<svg xmlns="http://www.w3.org/2000/svg" viewBox="0 0 138.81 36.7" width="138.81" height="36.7"><g fill="#ffffff">
    <g transform="translate(0.00,28.37) scale(0.028231,-0.028231)"><path d="M44 0V710H222L301 141H303L382 710H554V0H451V606L448 607L355 0H241L148 606H144V0Z"/></g>
    <g transform="translate(16.91,28.37) scale(0.028231,-0.028231)"><path d="M207 -12Q154 -12 113.0 13.5Q72 39 49.0 98.0Q26 157 26 255Q26 353 49.0 411.0Q72 469 113.0 495.0Q154 521 207 521Q261 521 301.5 495.0Q342 469 365.0 411.0Q388 353 388 255Q388 157 365.0 98.0Q342 39 301.5 13.5Q261 -12 207 -12ZM207 75Q239 75 256.5 103.0Q274 131 274 202V307Q274 378 256.5 406.0Q239 434 207 434Q175 434 157.5 406.0Q140 378 140 307V202Q140 131 157.5 103.0Q175 75 207 75Z"/></g>
    <g transform="translate(28.60,28.37) scale(0.028231,-0.028231)"><path d="M174 -12Q134 -12 100.5 13.5Q67 39 47.0 97.5Q27 156 27 254Q27 354 47.0 412.0Q67 470 101.0 495.5Q135 521 176 521Q206 521 230.5 507.0Q255 493 272 462V710H384V0H273V51Q257 18 231.5 3.0Q206 -12 174 -12ZM141 195Q141 133 157.5 104.0Q174 75 205 75Q233 75 252.5 96.0Q272 117 272 178V325Q272 391 252.5 413.0Q233 435 205 435Q174 435 157.5 406.0Q141 377 141 314Z"/></g>
    <g transform="translate(40.60,28.37) scale(0.028231,-0.028231)"><path d="M153 -12Q104 -12 71.5 22.0Q39 56 39 132V509H151V152Q151 108 165.0 92.5Q179 77 202 77Q224 77 242.0 93.0Q260 109 260 152V509H372V0H261V59Q243 22 215.0 5.0Q187 -12 153 -12Z"/></g>
    <g transform="translate(52.23,28.37) scale(0.028231,-0.028231)"><path d="M41 0V710H153V0Z"/></g>
    <g transform="translate(57.68,28.37) scale(0.028231,-0.028231)"><path d="M145 -8Q87 -8 54.5 28.5Q22 65 22 131Q22 197 56.5 234.0Q91 271 153 293L245 327V368Q245 406 230.5 420.0Q216 434 192 434Q166 434 150.5 416.0Q135 398 130 350L27 363Q35 440 77.5 480.5Q120 521 197 521Q357 521 357 355V130Q357 105 357.5 79.0Q358 53 361 0H257L251 55Q235 23 207.5 7.5Q180 -8 145 -8ZM132 140Q132 102 145.5 87.0Q159 72 184 72Q212 72 228.5 90.5Q245 109 245 138V251L195 230Q166 217 149.0 198.0Q132 179 132 140Z"/></g>
    <g transform="translate(68.85,28.37) scale(0.028231,-0.028231)"><path d="M41 0V509H152V441Q168 483 193.5 501.0Q219 519 247 519Q254 519 262.0 518.0Q270 517 279 514V414Q244 418 215.5 413.5Q187 409 170.0 388.5Q153 368 153 323V0Z"/></g>
    <g transform="translate(81.02,28.37) scale(0.028231,-0.028231)"><path d="M45 0V710H159V406H300V710H414V0H300V310H159V0Z"/></g>
    <g transform="translate(93.98,28.37) scale(0.028231,-0.028231)"><path d="M207 -12Q154 -12 113.0 13.5Q72 39 49.0 98.0Q26 157 26 255Q26 353 49.0 411.0Q72 469 113.0 495.0Q154 521 207 521Q261 521 301.5 495.0Q342 469 365.0 411.0Q388 353 388 255Q388 157 365.0 98.0Q342 39 301.5 13.5Q261 -12 207 -12ZM207 75Q239 75 256.5 103.0Q274 131 274 202V307Q274 378 256.5 406.0Q239 434 207 434Q175 434 157.5 406.0Q140 378 140 307V202Q140 131 157.5 103.0Q175 75 207 75Z"/></g>
    <g transform="translate(105.67,28.37) scale(0.028231,-0.028231)"><path d="M153 -12Q104 -12 71.5 22.0Q39 56 39 132V509H151V152Q151 108 165.0 92.5Q179 77 202 77Q224 77 242.0 93.0Q260 109 260 152V509H372V0H261V59Q243 22 215.0 5.0Q187 -12 153 -12Z"/></g>
    <g transform="translate(117.30,28.37) scale(0.028231,-0.028231)"><path d="M185 -12Q97 -12 57.5 38.0Q18 88 19 165L114 168Q115 71 185 71Q214 71 229.0 86.5Q244 102 244 127Q244 154 227.0 170.5Q210 187 181 203L135 228Q82 257 56.0 294.0Q30 331 30 381Q30 446 73.0 483.5Q116 521 183 521Q265 521 302.5 476.0Q340 431 338 353L243 351Q242 398 226.5 418.0Q211 438 184 438Q156 438 142.5 424.0Q129 410 129 389Q129 365 142.5 349.5Q156 334 185 317L244 283Q293 255 319.0 223.0Q345 191 345 136Q345 69 303.5 28.5Q262 -12 185 -12Z"/></g>
    <g transform="translate(127.66,28.37) scale(0.028231,-0.028231)"><path d="M205 -12Q153 -12 112.5 13.5Q72 39 49.5 97.5Q27 156 27 254Q27 352 50.0 410.5Q73 469 113.0 495.0Q153 521 205 521Q262 521 296.0 495.0Q330 469 346.5 426.5Q363 384 366.0 334.5Q369 285 365 238H139V202Q139 129 156.5 101.0Q174 73 207 73Q238 73 250.5 98.0Q263 123 269 182L368 174Q362 74 317.0 31.0Q272 -12 205 -12ZM139 312V309H268V315Q268 386 253.0 412.0Q238 438 207 438Q175 438 157.0 410.5Q139 383 139 312Z"/></g>
</g></svg>