<svg xmlns="http://www.w3.org/2000/svg" xmlns:xlink="http://www.w3.org/1999/xlink" xmlns:inkscape="http://www.inkscape.org/namespaces/inkscape" version="1.1" width="1191" height="842" viewBox="0 0 1191 842">
<defs>
<clipPath id="clip_1">
<path transform="matrix(.12,0,0,-.12,14,814)" d="M393 0H9292V6543H393V0"/>
</clipPath>
</defs>
<g clip-path="url(#clip_1)">
<g inkscape:groupmode="layer" inkscape:label="0">
<path transform="matrix(.12,0,0,-.12,14,814)" d="M7784 6097V5392H6584Z" fill="#cbb369"/>
<path transform="matrix(.12,0,0,-.12,14,814)" stroke-linecap="butt" stroke-miterlimit="10" stroke-linejoin="miter" fill="none" stroke="#cbb369" d="M7784 6097V5392H6584Z"/>
<path transform="matrix(.12,0,0,-.12,14,814)" d="M7784 5392H7371L7784 5181ZM7371 5392 7784 5181H7371Z" fill="#cbb369"/>
<path transform="matrix(.12,0,0,-.12,14,814)" stroke-linecap="butt" stroke-miterlimit="10" stroke-linejoin="miter" fill="none" stroke="#cbb369" d="M7784 5392H7371L7784 5181ZM7371 5392 7784 5181H7371Z"/>
<path transform="matrix(.12,0,0,-.12,14,814)" d="M7371 5392H6584L7008 5181ZM6584 5392 7008 5181H6225Z" fill="#cbb369"/>
<path transform="matrix(.12,0,0,-.12,14,814)" stroke-linecap="butt" stroke-miterlimit="10" stroke-linejoin="miter" fill="none" stroke="#cbb369" d="M7371 5392H6584L7008 5181ZM6584 5392 7008 5181H6225Z"/>
<path transform="matrix(.12,0,0,-.12,14,814)" d="M7008 5181H6225L7008 5037ZM6225 5181 7008 5037H5981Z" fill="#cbb369"/>
<path transform="matrix(.12,0,0,-.12,14,814)" stroke-linecap="butt" stroke-miterlimit="10" stroke-linejoin="miter" fill="none" stroke="#cbb369" d="M7008 5181H6225L7008 5037ZM6225 5181 7008 5037H5981Z"/>
<path transform="matrix(.12,0,0,-.12,14,814)" d="M7784 5181H7371L7784 4900ZM7371 5181 7784 4900H7371Z" fill="#cbb369"/>
<path transform="matrix(.12,0,0,-.12,14,814)" stroke-linecap="butt" stroke-miterlimit="10" stroke-linejoin="miter" fill="none" stroke="#cbb369" d="M7784 5181H7371L7784 4900ZM7371 5181 7784 4900H7371Z"/>
<path transform="matrix(.12,0,0,-.12,14,814)" d="M7008 5037H6760L7008 4900ZM6760 5037 7008 4900H6760Z" fill="#cbb369"/>
<path transform="matrix(.12,0,0,-.12,14,814)" stroke-linecap="butt" stroke-miterlimit="10" stroke-linejoin="miter" fill="none" stroke="#cbb369" d="M7008 5037H6760L7008 4900ZM6760 5037 7008 4900H6760Z"/>
<path transform="matrix(.12,0,0,-.12,14,814)" d="M6760 5037H5981L6506 4900ZM5981 5037 6506 4900H5747Z" fill="#cbb369"/>
<path transform="matrix(.12,0,0,-.12,14,814)" stroke-linecap="butt" stroke-miterlimit="10" stroke-linejoin="miter" fill="none" stroke="#cbb369" d="M6760 5037H5981L6506 4900ZM5981 5037 6506 4900H5747Z"/>
<path transform="matrix(.12,0,0,-.12,14,814)" d="M7371 4745H7458L7371 4703Z" fill="#cbb369"/>
<path transform="matrix(.12,0,0,-.12,14,814)" stroke-linecap="butt" stroke-miterlimit="10" stroke-linejoin="miter" fill="none" stroke="#cbb369" d="M7371 4745H7458L7371 4703Z"/>
<path transform="matrix(.12,0,0,-.12,14,814)" d="M7784 4745V4703H7716Z" fill="#cbb369"/>
<path transform="matrix(.12,0,0,-.12,14,814)" stroke-linecap="butt" stroke-miterlimit="10" stroke-linejoin="miter" fill="none" stroke="#cbb369" d="M7784 4745V4703H7716Z"/>
<path transform="matrix(.12,0,0,-.12,14,814)" d="M7784 4900H7371L7458 4745ZM7371 4900 7458 4745H7371Z" fill="#cbb369"/>
<path transform="matrix(.12,0,0,-.12,14,814)" stroke-linecap="butt" stroke-miterlimit="10" stroke-linejoin="miter" fill="none" stroke="#cbb369" d="M7784 4900H7371L7458 4745ZM7371 4900 7458 4745H7371Z"/>
<path transform="matrix(.12,0,0,-.12,14,814)" d="M6760 4900V4530H7008ZM6760 4530H7008L6760 4413Z" fill="#cbb369"/>
<path transform="matrix(.12,0,0,-.12,14,814)" stroke-linecap="butt" stroke-miterlimit="10" stroke-linejoin="miter" fill="none" stroke="#cbb369" d="M6760 4900V4530H7008ZM6760 4530H7008L6760 4413Z"/>
<path transform="matrix(.12,0,0,-.12,14,814)" d="M6760 4900H7008V4530Z" fill="#cbb369"/>
<path transform="matrix(.12,0,0,-.12,14,814)" stroke-linecap="butt" stroke-miterlimit="10" stroke-linejoin="miter" fill="none" stroke="#cbb369" d="M6760 4900H7008V4530Z"/>
<path transform="matrix(.12,0,0,-.12,14,814)" d="M7784 4703H7716L7784 3937ZM7716 4703 7784 3937H6458Z" fill="#cbb369"/>
<path transform="matrix(.12,0,0,-.12,14,814)" stroke-linecap="butt" stroke-miterlimit="10" stroke-linejoin="miter" fill="none" stroke="#cbb369" d="M7784 4703H7716L7784 3937ZM7716 4703 7784 3937H6458Z"/>
<path transform="matrix(.12,0,0,-.12,14,814)" d="M7784 3937H7371L7784 3806ZM7371 3937 7784 3806H7371Z" fill="#cbb369"/>
<path transform="matrix(.12,0,0,-.12,14,814)" stroke-linecap="butt" stroke-miterlimit="10" stroke-linejoin="miter" fill="none" stroke="#cbb369" d="M7784 3937H7371L7784 3806ZM7371 3937 7784 3806H7371Z"/>
<path transform="matrix(.12,0,0,-.12,14,814)" d="M7371 3937H6458L7171 3806ZM6458 3937 7171 3806H6243Z" fill="#cbb369"/>
<path transform="matrix(.12,0,0,-.12,14,814)" stroke-linecap="butt" stroke-miterlimit="10" stroke-linejoin="miter" fill="none" stroke="#cbb369" d="M7371 3937H6458L7171 3806ZM6458 3937 7171 3806H6243Z"/>
<path transform="matrix(.12,0,0,-.12,14,814)" d="M6506 4900H5747L4479 3806ZM5747 4900 4479 3806H3886Z" fill="#cbb369"/>
<path transform="matrix(.12,0,0,-.12,14,814)" stroke-linecap="butt" stroke-miterlimit="10" stroke-linejoin="miter" fill="none" stroke="#cbb369" d="M6506 4900H5747L4479 3806ZM5747 4900 4479 3806H3886Z"/>
<path transform="matrix(.12,0,0,-.12,14,814)" d="M4112 3698H4279L4201 3656Z" fill="#cbb369"/>
<path transform="matrix(.12,0,0,-.12,14,814)" stroke-linecap="butt" stroke-miterlimit="10" stroke-linejoin="miter" fill="none" stroke="#cbb369" d="M4112 3698H4279L4201 3656Z"/>
<path transform="matrix(.12,0,0,-.12,14,814)" d="M7171 3806H6243L7008 3698ZM6243 3806 7008 3698H6066Z" fill="#cbb369"/>
<path transform="matrix(.12,0,0,-.12,14,814)" stroke-linecap="butt" stroke-miterlimit="10" stroke-linejoin="miter" fill="none" stroke="#cbb369" d="M7171 3806H6243L7008 3698ZM6243 3806 7008 3698H6066Z"/>
<path transform="matrix(.12,0,0,-.12,14,814)" d="M4479 3806H3886L4279 3698ZM3886 3806 4279 3698H4112Z" fill="#cbb369"/>
<path transform="matrix(.12,0,0,-.12,14,814)" stroke-linecap="butt" stroke-miterlimit="10" stroke-linejoin="miter" fill="none" stroke="#cbb369" d="M4479 3806H3886L4279 3698ZM3886 3806 4279 3698H4112Z"/>
<path transform="matrix(.12,0,0,-.12,14,814)" d="M7008 3698H6066L7008 3535ZM6066 3698 7008 3535H5800Z" fill="#cbb369"/>
<path transform="matrix(.12,0,0,-.12,14,814)" stroke-linecap="butt" stroke-miterlimit="10" stroke-linejoin="miter" fill="none" stroke="#cbb369" d="M7008 3698H6066L7008 3535ZM6066 3698 7008 3535H5800Z"/>
<path transform="matrix(.12,0,0,-.12,14,814)" d="M7008 3535H6760L7008 3009ZM6760 3535 7008 3009H6760Z" fill="#cbb369"/>
<path transform="matrix(.12,0,0,-.12,14,814)" stroke-linecap="butt" stroke-miterlimit="10" stroke-linejoin="miter" fill="none" stroke="#cbb369" d="M7008 3535H6760L7008 3009ZM6760 3535 7008 3009H6760Z"/>
<path transform="matrix(.12,0,0,-.12,14,814)" d="M6760 3535H5800L5958 3009ZM5800 3535 5958 3009H4935Z" fill="#cbb369"/>
<path transform="matrix(.12,0,0,-.12,14,814)" stroke-linecap="butt" stroke-miterlimit="10" stroke-linejoin="miter" fill="none" stroke="#cbb369" d="M6760 3535H5800L5958 3009ZM5800 3535 5958 3009H4935Z"/>
<path transform="matrix(.12,0,0,-.12,14,814)" d="M7008 3009H6760L7008 2706ZM6760 3009 7008 2706H6760Z" fill="#cbb369"/>
<path transform="matrix(.12,0,0,-.12,14,814)" stroke-linecap="butt" stroke-miterlimit="10" stroke-linejoin="miter" fill="none" stroke="#cbb369" d="M7008 3009H6760L7008 2706ZM6760 3009 7008 2706H6760Z"/>
<path transform="matrix(.12,0,0,-.12,14,814)" d="M7784 3806H7371L7784 2409ZM7371 3806 7784 2409H7371Z" fill="#cbb369"/>
<path transform="matrix(.12,0,0,-.12,14,814)" stroke-linecap="butt" stroke-miterlimit="10" stroke-linejoin="miter" fill="none" stroke="#cbb369" d="M7784 3806H7371L7784 2409ZM7371 3806 7784 2409H7371Z"/>
<path transform="matrix(.12,0,0,-.12,14,814)" d="M7008 2706H6760L7363 2409ZM6760 2706 7363 2409H6760Z" fill="#cbb369"/>
<path transform="matrix(.12,0,0,-.12,14,814)" stroke-linecap="butt" stroke-miterlimit="10" stroke-linejoin="miter" fill="none" stroke="#cbb369" d="M7008 2706H6760L7363 2409ZM6760 2706 7363 2409H6760Z"/>
<path transform="matrix(.12,0,0,-.12,14,814)" d="M4935 2402H5034L4935 2337Z" fill="#cbb369"/>
<path transform="matrix(.12,0,0,-.12,14,814)" stroke-linecap="butt" stroke-miterlimit="10" stroke-linejoin="miter" fill="none" stroke="#cbb369" d="M4935 2402H5034L4935 2337Z"/>
<path transform="matrix(.12,0,0,-.12,14,814)" d="M7784 2409H7371L7784 2402ZM7371 2409 7784 2402H7371Z" fill="#cbb369"/>
<path transform="matrix(.12,0,0,-.12,14,814)" stroke-linecap="butt" stroke-miterlimit="10" stroke-linejoin="miter" fill="none" stroke="#cbb369" d="M7784 2409H7371L7784 2402ZM7371 2409 7784 2402H7371Z"/>
<path transform="matrix(.12,0,0,-.12,14,814)" d="M7363 2409H7008L7371 2402ZM7008 2409 7371 2402H7016Z" fill="#cbb369"/>
<path transform="matrix(.12,0,0,-.12,14,814)" stroke-linecap="butt" stroke-miterlimit="10" stroke-linejoin="miter" fill="none" stroke="#cbb369" d="M7363 2409H7008L7371 2402ZM7008 2409 7371 2402H7016Z"/>
<path transform="matrix(.12,0,0,-.12,14,814)" d="M5958 3009H4935L5034 2402ZM4935 3009 5034 2402H4935Z" fill="#cbb369"/>
<path transform="matrix(.12,0,0,-.12,14,814)" stroke-linecap="butt" stroke-miterlimit="10" stroke-linejoin="miter" fill="none" stroke="#cbb369" d="M5958 3009H4935L5034 2402ZM4935 3009 5034 2402H4935Z"/>
<path transform="matrix(.12,0,0,-.12,14,814)" d="M7784 2402H7016L7784 2215ZM7016 2402 7784 2215H7239Z" fill="#cbb369"/>
<path transform="matrix(.12,0,0,-.12,14,814)" stroke-linecap="butt" stroke-miterlimit="10" stroke-linejoin="miter" fill="none" stroke="#cbb369" d="M7784 2402H7016L7784 2215ZM7016 2402 7784 2215H7239Z"/>
<path transform="matrix(.12,0,0,-.12,14,814)" d="M7784 2215H7239L7784 2087ZM7239 2215 7784 2087H7044Z" fill="#cbb369"/>
<path transform="matrix(.12,0,0,-.12,14,814)" stroke-linecap="butt" stroke-miterlimit="10" stroke-linejoin="miter" fill="none" stroke="#cbb369" d="M7784 2215H7239L7784 2087ZM7239 2215 7784 2087H7044Z"/>
<path transform="matrix(.12,0,0,-.12,14,814)" d="M7784 2087H7371L7784 2063ZM7371 2087 7784 2063H7371Z" fill="#cbb369"/>
<path transform="matrix(.12,0,0,-.12,14,814)" stroke-linecap="butt" stroke-miterlimit="10" stroke-linejoin="miter" fill="none" stroke="#cbb369" d="M7784 2087H7371L7784 2063ZM7371 2087 7784 2063H7371Z"/>
<path transform="matrix(.12,0,0,-.12,14,814)" d="M7371 2087H7044L7334 2063ZM7044 2087 7334 2063H7008Z" fill="#cbb369"/>
<path transform="matrix(.12,0,0,-.12,14,814)" stroke-linecap="butt" stroke-miterlimit="10" stroke-linejoin="miter" fill="none" stroke="#cbb369" d="M7371 2087H7044L7334 2063ZM7044 2087 7334 2063H7008Z"/>
<path transform="matrix(.12,0,0,-.12,14,814)" d="M7008 2409H6760L7008 2063ZM6760 2409 7008 2063H6760Z" fill="#cbb369"/>
<path transform="matrix(.12,0,0,-.12,14,814)" stroke-linecap="butt" stroke-miterlimit="10" stroke-linejoin="miter" fill="none" stroke="#cbb369" d="M7008 2409H6760L7008 2063ZM6760 2409 7008 2063H6760Z"/>
<path transform="matrix(.12,0,0,-.12,14,814)" d="M7334 2063H6760L7008 1849ZM6760 2063 7008 1849H6760Z" fill="#cbb369"/>
<path transform="matrix(.12,0,0,-.12,14,814)" stroke-linecap="butt" stroke-miterlimit="10" stroke-linejoin="miter" fill="none" stroke="#cbb369" d="M7334 2063H6760L7008 1849ZM6760 2063 7008 1849H6760Z"/>
<path transform="matrix(.12,0,0,-.12,14,814)" d="M7008 1849H6760L7008 724ZM6760 1849 7008 724H6760Z" fill="#cbb369"/>
<path transform="matrix(.12,0,0,-.12,14,814)" stroke-linecap="butt" stroke-miterlimit="10" stroke-linejoin="miter" fill="none" stroke="#cbb369" d="M7008 1849H6760L7008 724ZM6760 1849 7008 724H6760Z"/>
<path transform="matrix(.12,0,0,-.12,14,814)" d="M7008 724H6760L7189 723ZM6760 724 7189 723H6760Z" fill="#cbb369"/>
<path transform="matrix(.12,0,0,-.12,14,814)" stroke-linecap="butt" stroke-miterlimit="10" stroke-linejoin="miter" fill="none" stroke="#cbb369" d="M7008 724H6760L7189 723ZM6760 724 7189 723H6760Z"/>
<path transform="matrix(.12,0,0,-.12,14,814)" d="M7784 2063H7371L7784 720ZM7371 2063 7784 720H7371Z" fill="#cbb369"/>
<path transform="matrix(.12,0,0,-.12,14,814)" stroke-linecap="butt" stroke-miterlimit="10" stroke-linejoin="miter" fill="none" stroke="#cbb369" d="M7784 2063H7371L7784 720ZM7371 2063 7784 720H7371Z"/>
<path transform="matrix(.12,0,0,-.12,14,814)" d="M7189 723H6760L7359 720ZM6760 723 7359 720H6760Z" fill="#cbb369"/>
<path transform="matrix(.12,0,0,-.12,14,814)" stroke-linecap="butt" stroke-miterlimit="10" stroke-linejoin="miter" fill="none" stroke="#cbb369" d="M7189 723H6760L7359 720ZM6760 723 7359 720H6760Z"/>
<path transform="matrix(.12,0,0,-.12,14,814)" d="M7371 720H7784ZM7784 720V720H7371Z" fill="#cbb369"/>
<path transform="matrix(.12,0,0,-.12,14,814)" stroke-linecap="butt" stroke-miterlimit="10" stroke-linejoin="miter" fill="none" stroke="#cbb369" d="M7371 720H7784ZM7784 720V720H7371Z"/>
<path transform="matrix(.12,0,0,-.12,14,814)" d="M7359 720H6760 7371ZM6760 720H7371 6754Z" fill="#cbb369"/>
<path transform="matrix(.12,0,0,-.12,14,814)" stroke-linecap="butt" stroke-miterlimit="10" stroke-linejoin="miter" fill="none" stroke="#cbb369" d="M7359 720H6760 7371ZM6760 720H7371 6754Z"/>
<path transform="matrix(.12,0,0,-.12,14,814)" d="M7784 720H6754L7784 712ZM6754 720 7784 712H6565Z" fill="#cbb369"/>
<path transform="matrix(.12,0,0,-.12,14,814)" stroke-linecap="butt" stroke-miterlimit="10" stroke-linejoin="miter" fill="none" stroke="#cbb369" d="M7784 720H6754L7784 712ZM6754 720 7784 712H6565Z"/>
<path transform="matrix(.12,0,0,-.12,14,814)" d="M7784 712H6565L7784 701ZM6565 712 7784 701H6370Z" fill="#cbb369"/>
<path transform="matrix(.12,0,0,-.12,14,814)" stroke-linecap="butt" stroke-miterlimit="10" stroke-linejoin="miter" fill="none" stroke="#cbb369" d="M7784 712H6565L7784 701ZM6565 712 7784 701H6370Z"/>
<path transform="matrix(.12,0,0,-.12,14,814)" d="M7784 701H6370L7784 699ZM6370 701 7784 699H6342Z" fill="#cbb369"/>
<path transform="matrix(.12,0,0,-.12,14,814)" stroke-linecap="butt" stroke-miterlimit="10" stroke-linejoin="miter" fill="none" stroke="#cbb369" d="M7784 701H6370L7784 699ZM6370 701 7784 699H6342Z"/>
<path transform="matrix(.12,0,0,-.12,14,814)" d="M7784 699H6342L7944 686ZM6342 699 7944 686H6176Z" fill="#cbb369"/>
<path transform="matrix(.12,0,0,-.12,14,814)" stroke-linecap="butt" stroke-miterlimit="10" stroke-linejoin="miter" fill="none" stroke="#cbb369" d="M7784 699H6342L7944 686ZM6342 699 7944 686H6176Z"/>
<path transform="matrix(.12,0,0,-.12,14,814)" d="M7944 686H6176L7974 684ZM6176 686 7974 684H6151Z" fill="#cbb369"/>
<path transform="matrix(.12,0,0,-.12,14,814)" stroke-linecap="butt" stroke-miterlimit="10" stroke-linejoin="miter" fill="none" stroke="#cbb369" d="M7944 686H6176L7974 684ZM6176 686 7974 684H6151Z"/>
<path transform="matrix(.12,0,0,-.12,14,814)" d="M7974 684H6151L8139 668ZM6151 684 8139 668H5982Z" fill="#cbb369"/>
<path transform="matrix(.12,0,0,-.12,14,814)" stroke-linecap="butt" stroke-miterlimit="10" stroke-linejoin="miter" fill="none" stroke="#cbb369" d="M7974 684H6151L8139 668ZM6151 684 8139 668H5982Z"/>
<path transform="matrix(.12,0,0,-.12,14,814)" d="M8139 668H5982L8163 665ZM5982 668 8163 665H5961Z" fill="#cbb369"/>
<path transform="matrix(.12,0,0,-.12,14,814)" stroke-linecap="butt" stroke-miterlimit="10" stroke-linejoin="miter" fill="none" stroke="#cbb369" d="M8139 668H5982L8163 665ZM5982 668 8163 665H5961Z"/>
<path transform="matrix(.12,0,0,-.12,14,814)" d="M8163 665H5961L8334 645ZM5961 665 8334 645H5788Z" fill="#cbb369"/>
<path transform="matrix(.12,0,0,-.12,14,814)" stroke-linecap="butt" stroke-miterlimit="10" stroke-linejoin="miter" fill="none" stroke="#cbb369" d="M8163 665H5961L8334 645ZM5961 665 8334 645H5788Z"/>
<path transform="matrix(.12,0,0,-.12,14,814)" d="M8334 645H5788L8353 643ZM5788 645 8353 643H5771Z" fill="#cbb369"/>
<path transform="matrix(.12,0,0,-.12,14,814)" stroke-linecap="butt" stroke-miterlimit="10" stroke-linejoin="miter" fill="none" stroke="#cbb369" d="M8334 645H5788L8353 643ZM5788 645 8353 643H5771Z"/>
<path transform="matrix(.12,0,0,-.12,14,814)" d="M8353 643H5771L8527 620ZM5771 643 8527 620H5594Z" fill="#cbb369"/>
<path transform="matrix(.12,0,0,-.12,14,814)" stroke-linecap="butt" stroke-miterlimit="10" stroke-linejoin="miter" fill="none" stroke="#cbb369" d="M8353 643H5771L8527 620ZM5771 643 8527 620H5594Z"/>
<path transform="matrix(.12,0,0,-.12,14,814)" d="M8527 620H5594L8542 618ZM5594 620 8542 618H5582Z" fill="#cbb369"/>
<path transform="matrix(.12,0,0,-.12,14,814)" stroke-linecap="butt" stroke-miterlimit="10" stroke-linejoin="miter" fill="none" stroke="#cbb369" d="M8527 620H5594L8542 618ZM5594 620 8542 618H5582Z"/>
<path transform="matrix(.12,0,0,-.12,14,814)" d="M8542 618H5582L8720 590ZM5582 618 8720 590H5402Z" fill="#cbb369"/>
<path transform="matrix(.12,0,0,-.12,14,814)" stroke-linecap="butt" stroke-miterlimit="10" stroke-linejoin="miter" fill="none" stroke="#cbb369" d="M8542 618H5582L8720 590ZM5582 618 8720 590H5402Z"/>
<path transform="matrix(.12,0,0,-.12,14,814)" d="M8720 590H5402L8730 589ZM5402 590 8730 589H5393Z" fill="#cbb369"/>
<path transform="matrix(.12,0,0,-.12,14,814)" stroke-linecap="butt" stroke-miterlimit="10" stroke-linejoin="miter" fill="none" stroke="#cbb369" d="M8720 590H5402L8730 589ZM5402 590 8730 589H5393Z"/>
<path transform="matrix(.12,0,0,-.12,14,814)" d="M8730 589H5393L8913 557ZM5393 589 8913 557H5209Z" fill="#cbb369"/>
<path transform="matrix(.12,0,0,-.12,14,814)" stroke-linecap="butt" stroke-miterlimit="10" stroke-linejoin="miter" fill="none" stroke="#cbb369" d="M8730 589H5393L8913 557ZM5393 589 8913 557H5209Z"/>
<path transform="matrix(.12,0,0,-.12,14,814)" d="M8913 557H5209L8918 556ZM5209 557 8918 556H5205Z" fill="#cbb369"/>
<path transform="matrix(.12,0,0,-.12,14,814)" stroke-linecap="butt" stroke-miterlimit="10" stroke-linejoin="miter" fill="none" stroke="#cbb369" d="M8913 557H5209L8918 556ZM5209 557 8918 556H5205Z"/>
<path transform="matrix(.12,0,0,-.12,14,814)" d="M8918 556H5205L9105 520ZM5205 556 9105 520H5018Z" fill="#cbb369"/>
<path transform="matrix(.12,0,0,-.12,14,814)" stroke-linecap="butt" stroke-miterlimit="10" stroke-linejoin="miter" fill="none" stroke="#cbb369" d="M8918 556H5205L9105 520ZM5205 556 9105 520H5018Z"/>
<path transform="matrix(.12,0,0,-.12,14,814)" stroke-width="5" stroke-linecap="round" stroke-linejoin="round" fill="none" stroke="#cbb369" d="M7784 6097 3886 3806 4201 3656 6760 5037V4413L7008 4530V5181L7371 5392V4703L7784 4900V6097"/>
<path transform="matrix(.12,0,0,-.12,14,814)" stroke-width="5" stroke-linecap="round" stroke-linejoin="round" fill="none" stroke="#cbb369" d="M4935 3009V2337L6760 3535V720L6565 712 6370 701 6176 686 5982 668 5788 645 5594 620 5402 590 5209 557 5018 520H9105L8918 556 8730 589 8542 618 8353 643 8163 665 7974 684 7784 699V4745L4935 3009"/>
<path transform="matrix(.12,0,0,-.12,14,814)" stroke-width="5" stroke-linecap="round" stroke-linejoin="round" fill="none" stroke="#cbb369" d="M7371 3937 7008 3698V2706L7371 2402V3937"/>
<path transform="matrix(.12,0,0,-.12,14,814)" stroke-width="5" stroke-linecap="round" stroke-linejoin="round" fill="none" stroke="#cbb369" d="M7008 2409 7239 2215 7008 2063V2409"/>
<path transform="matrix(.12,0,0,-.12,14,814)" stroke-width="5" stroke-linecap="round" stroke-linejoin="round" fill="none" stroke="#cbb369" d="M7008 1849V724L7189 723 7371 720V2087L7008 1849"/>
<path transform="matrix(.12,0,0,-.12,14,814)" d="M2087 5871 3280 5227H2087Z" fill="#323a3d"/>
<path transform="matrix(.12,0,0,-.12,14,814)" stroke-linecap="round" stroke-miterlimit="10" stroke-linejoin="miter" fill="none" stroke="#323a3d" d="M2087 5871 3280 5227H2087Z"/>
<path transform="matrix(.12,0,0,-.12,14,814)" d="M3280 5227H2499L3671 5016ZM2499 5227 3671 5016H2863Z" fill="#323a3d"/>
<path transform="matrix(.12,0,0,-.12,14,814)" stroke-linecap="round" stroke-miterlimit="10" stroke-linejoin="miter" fill="none" stroke="#323a3d" d="M3280 5227H2499L3671 5016ZM2499 5227 3671 5016H2863Z"/>
<path transform="matrix(.12,0,0,-.12,14,814)" d="M3671 5016H2863L3938 4872ZM2863 5016 3938 4872H2863Z" fill="#323a3d"/>
<path transform="matrix(.12,0,0,-.12,14,814)" stroke-linecap="round" stroke-miterlimit="10" stroke-linejoin="miter" fill="none" stroke="#323a3d" d="M3671 5016H2863L3938 4872ZM2863 5016 3938 4872H2863Z"/>
<path transform="matrix(.12,0,0,-.12,14,814)" d="M2499 5227H2087L2499 4662ZM2087 5227 2499 4662H2087Z" fill="#323a3d"/>
<path transform="matrix(.12,0,0,-.12,14,814)" stroke-linecap="round" stroke-miterlimit="10" stroke-linejoin="miter" fill="none" stroke="#323a3d" d="M2499 5227H2087L2499 4662ZM2087 5227 2499 4662H2087Z"/>
<path transform="matrix(.12,0,0,-.12,14,814)" d="M2087 4497 2147 4466H2087Z" fill="#323a3d"/>
<path transform="matrix(.12,0,0,-.12,14,814)" stroke-linecap="round" stroke-miterlimit="10" stroke-linejoin="miter" fill="none" stroke="#323a3d" d="M2087 4497 2147 4466H2087Z"/>
<path transform="matrix(.12,0,0,-.12,14,814)" d="M2087 4662 2433 4497H2499ZM2433 4497H2499V4466Z" fill="#323a3d"/>
<path transform="matrix(.12,0,0,-.12,14,814)" stroke-linecap="round" stroke-miterlimit="10" stroke-linejoin="miter" fill="none" stroke="#323a3d" d="M2087 4662 2433 4497H2499ZM2433 4497H2499V4466Z"/>
<path transform="matrix(.12,0,0,-.12,14,814)" d="M2087 4662H2499V4497Z" fill="#323a3d"/>
<path transform="matrix(.12,0,0,-.12,14,814)" stroke-linecap="round" stroke-miterlimit="10" stroke-linejoin="miter" fill="none" stroke="#323a3d" d="M2087 4662H2499V4497Z"/>
<path transform="matrix(.12,0,0,-.12,14,814)" d="M3938 4872H3110L4776 4419ZM3110 4872 4776 4419H3881Z" fill="#323a3d"/>
<path transform="matrix(.12,0,0,-.12,14,814)" stroke-linecap="round" stroke-miterlimit="10" stroke-linejoin="miter" fill="none" stroke="#323a3d" d="M3938 4872H3110L4776 4419ZM3110 4872 4776 4419H3881Z"/>
<path transform="matrix(.12,0,0,-.12,14,814)" d="M2863 4872V4293H3110ZM2863 4293H3110V4175Z" fill="#323a3d"/>
<path transform="matrix(.12,0,0,-.12,14,814)" stroke-linecap="round" stroke-miterlimit="10" stroke-linejoin="miter" fill="none" stroke="#323a3d" d="M2863 4872V4293H3110ZM2863 4293H3110V4175Z"/>
<path transform="matrix(.12,0,0,-.12,14,814)" d="M2863 4872H3110V4293Z" fill="#323a3d"/>
<path transform="matrix(.12,0,0,-.12,14,814)" stroke-linecap="round" stroke-miterlimit="10" stroke-linejoin="miter" fill="none" stroke="#323a3d" d="M2863 4872H3110V4293Z"/>
<path transform="matrix(.12,0,0,-.12,14,814)" d="M3881 4419 4296 4175H4369ZM4296 4175H4369L4333 4153Z" fill="#323a3d"/>
<path transform="matrix(.12,0,0,-.12,14,814)" stroke-linecap="round" stroke-miterlimit="10" stroke-linejoin="miter" fill="none" stroke="#323a3d" d="M3881 4419 4296 4175H4369ZM4296 4175H4369L4333 4153Z"/>
<path transform="matrix(.12,0,0,-.12,14,814)" d="M3881 4419H4776L4369 4175Z" fill="#323a3d"/>
<path transform="matrix(.12,0,0,-.12,14,814)" stroke-linecap="round" stroke-miterlimit="10" stroke-linejoin="miter" fill="none" stroke="#323a3d" d="M3881 4419H4776L4369 4175Z"/>
<path transform="matrix(.12,0,0,-.12,14,814)" d="M2147 4466H2087L3633 3689ZM2087 4466 3633 3689H2087Z" fill="#323a3d"/>
<path transform="matrix(.12,0,0,-.12,14,814)" stroke-linecap="round" stroke-miterlimit="10" stroke-linejoin="miter" fill="none" stroke="#323a3d" d="M2147 4466H2087L3633 3689ZM2087 4466 3633 3689H2087Z"/>
<path transform="matrix(.12,0,0,-.12,14,814)" d="M3633 3689H2499L4090 3450ZM2499 3689 4090 3450H2863Z" fill="#323a3d"/>
<path transform="matrix(.12,0,0,-.12,14,814)" stroke-linecap="round" stroke-miterlimit="10" stroke-linejoin="miter" fill="none" stroke="#323a3d" d="M3633 3689H2499L4090 3450ZM2499 3689 4090 3450H2863Z"/>
<path transform="matrix(.12,0,0,-.12,14,814)" d="M4090 3450H2863L4401 3288ZM2863 3450 4401 3288H2863Z" fill="#323a3d"/>
<path transform="matrix(.12,0,0,-.12,14,814)" stroke-linecap="round" stroke-miterlimit="10" stroke-linejoin="miter" fill="none" stroke="#323a3d" d="M4090 3450H2863L4401 3288ZM2863 3450 4401 3288H2863Z"/>
<path transform="matrix(.12,0,0,-.12,14,814)" d="M4401 3288H3110L4935 3009ZM3110 3288 4935 3009H3646Z" fill="#323a3d"/>
<path transform="matrix(.12,0,0,-.12,14,814)" stroke-linecap="round" stroke-miterlimit="10" stroke-linejoin="miter" fill="none" stroke="#323a3d" d="M4401 3288H3110L4935 3009ZM3110 3288 4935 3009H3646Z"/>
<path transform="matrix(.12,0,0,-.12,14,814)" d="M3646 3009 4639 2491H4935ZM4639 2491H4935V2337Z" fill="#323a3d"/>
<path transform="matrix(.12,0,0,-.12,14,814)" stroke-linecap="round" stroke-miterlimit="10" stroke-linejoin="miter" fill="none" stroke="#323a3d" d="M3646 3009 4639 2491H4935ZM4639 2491H4935V2337Z"/>
<path transform="matrix(.12,0,0,-.12,14,814)" d="M3646 3009H4935V2491Z" fill="#323a3d"/>
<path transform="matrix(.12,0,0,-.12,14,814)" stroke-linecap="round" stroke-miterlimit="10" stroke-linejoin="miter" fill="none" stroke="#323a3d" d="M3646 3009H4935V2491Z"/>
<path transform="matrix(.12,0,0,-.12,14,814)" d="M3110 3288H2863L3110 2491ZM2863 3288 3110 2491H2863Z" fill="#323a3d"/>
<path transform="matrix(.12,0,0,-.12,14,814)" stroke-linecap="round" stroke-miterlimit="10" stroke-linejoin="miter" fill="none" stroke="#323a3d" d="M3110 3288H2863L3110 2491ZM2863 3288 3110 2491H2863Z"/>
<path transform="matrix(.12,0,0,-.12,14,814)" d="M3110 2491H2863L3110 2194ZM2863 2491 3110 2194H2508Z" fill="#323a3d"/>
<path transform="matrix(.12,0,0,-.12,14,814)" stroke-linecap="round" stroke-miterlimit="10" stroke-linejoin="miter" fill="none" stroke="#323a3d" d="M3110 2491H2863L3110 2194ZM2863 2491 3110 2194H2508Z"/>
<path transform="matrix(.12,0,0,-.12,14,814)" d="M3110 2194H2863L3110 2187ZM2863 2194 3110 2187H2863Z" fill="#323a3d"/>
<path transform="matrix(.12,0,0,-.12,14,814)" stroke-linecap="round" stroke-miterlimit="10" stroke-linejoin="miter" fill="none" stroke="#323a3d" d="M3110 2194H2863L3110 2187ZM2863 2194 3110 2187H2863Z"/>
<path transform="matrix(.12,0,0,-.12,14,814)" d="M2863 2194H2508L2855 2187ZM2508 2194 2855 2187H2499Z" fill="#323a3d"/>
<path transform="matrix(.12,0,0,-.12,14,814)" stroke-linecap="round" stroke-miterlimit="10" stroke-linejoin="miter" fill="none" stroke="#323a3d" d="M2863 2194H2508L2855 2187ZM2508 2194 2855 2187H2499Z"/>
<path transform="matrix(.12,0,0,-.12,14,814)" d="M2499 3689H2087L2499 2187ZM2087 3689 2499 2187H2087Z" fill="#323a3d"/>
<path transform="matrix(.12,0,0,-.12,14,814)" stroke-linecap="round" stroke-miterlimit="10" stroke-linejoin="miter" fill="none" stroke="#323a3d" d="M2499 3689H2087L2499 2187ZM2087 3689 2499 2187H2087Z"/>
<path transform="matrix(.12,0,0,-.12,14,814)" d="M2855 2187H2087L2631 2000ZM2087 2187 2631 2000H2087Z" fill="#323a3d"/>
<path transform="matrix(.12,0,0,-.12,14,814)" stroke-linecap="round" stroke-miterlimit="10" stroke-linejoin="miter" fill="none" stroke="#323a3d" d="M2855 2187H2087L2631 2000ZM2087 2187 2631 2000H2087Z"/>
<path transform="matrix(.12,0,0,-.12,14,814)" d="M3110 2187H2863L3110 1873ZM2863 2187 3110 1873H2863Z" fill="#323a3d"/>
<path transform="matrix(.12,0,0,-.12,14,814)" stroke-linecap="round" stroke-miterlimit="10" stroke-linejoin="miter" fill="none" stroke="#323a3d" d="M3110 2187H2863L3110 1873ZM2863 2187 3110 1873H2863Z"/>
<path transform="matrix(.12,0,0,-.12,14,814)" d="M2631 2000H2087L2826 1873ZM2087 2000 2826 1873H2087Z" fill="#323a3d"/>
<path transform="matrix(.12,0,0,-.12,14,814)" stroke-linecap="round" stroke-miterlimit="10" stroke-linejoin="miter" fill="none" stroke="#323a3d" d="M2631 2000H2087L2826 1873ZM2087 2000 2826 1873H2087Z"/>
<path transform="matrix(.12,0,0,-.12,14,814)" d="M3110 1873H2863L3110 1849ZM2863 1873 3110 1849H2863Z" fill="#323a3d"/>
<path transform="matrix(.12,0,0,-.12,14,814)" stroke-linecap="round" stroke-miterlimit="10" stroke-linejoin="miter" fill="none" stroke="#323a3d" d="M3110 1873H2863L3110 1849ZM2863 1873 3110 1849H2863Z"/>
<path transform="matrix(.12,0,0,-.12,14,814)" d="M2826 1873H2499L2863 1849ZM2499 1873 2863 1849H2536Z" fill="#323a3d"/>
<path transform="matrix(.12,0,0,-.12,14,814)" stroke-linecap="round" stroke-miterlimit="10" stroke-linejoin="miter" fill="none" stroke="#323a3d" d="M2826 1873H2499L2863 1849ZM2499 1873 2863 1849H2536Z"/>
<path transform="matrix(.12,0,0,-.12,14,814)" d="M3110 1849H2536L3110 1634ZM2536 1849 3110 1634H2863Z" fill="#323a3d"/>
<path transform="matrix(.12,0,0,-.12,14,814)" stroke-linecap="round" stroke-miterlimit="10" stroke-linejoin="miter" fill="none" stroke="#323a3d" d="M3110 1849H2536L3110 1634ZM2536 1849 3110 1634H2863Z"/>
<path transform="matrix(.12,0,0,-.12,14,814)" d="M2679 725 2858 724H2499Z" fill="#323a3d"/>
<path transform="matrix(.12,0,0,-.12,14,814)" stroke-linecap="round" stroke-miterlimit="10" stroke-linejoin="miter" fill="none" stroke="#323a3d" d="M2679 725 2858 724H2499Z"/>
<path transform="matrix(.12,0,0,-.12,14,814)" d="M3110 1634H2863L3110 724ZM2863 1634 3110 724H2858Z" fill="#323a3d"/>
<path transform="matrix(.12,0,0,-.12,14,814)" stroke-linecap="round" stroke-miterlimit="10" stroke-linejoin="miter" fill="none" stroke="#323a3d" d="M3110 1634H2863L3110 724ZM2863 1634 3110 724H2858Z"/>
<path transform="matrix(.12,0,0,-.12,14,814)" d="M2499 1873H2087L2499 724ZM2087 1873 2499 724H2087Z" fill="#323a3d"/>
<path transform="matrix(.12,0,0,-.12,14,814)" stroke-linecap="round" stroke-miterlimit="10" stroke-linejoin="miter" fill="none" stroke="#323a3d" d="M2499 1873H2087L2499 724ZM2087 1873 2499 724H2087Z"/>
<path transform="matrix(.12,0,0,-.12,14,814)" d="M3110 724H2087L3110 720ZM2087 724 3110 720H2087Z" fill="#323a3d"/>
<path transform="matrix(.12,0,0,-.12,14,814)" stroke-linecap="round" stroke-miterlimit="10" stroke-linejoin="miter" fill="none" stroke="#323a3d" d="M3110 724H2087L3110 720ZM2087 724 3110 720H2087Z"/>
<path transform="matrix(.12,0,0,-.12,14,814)" d="M3110 720H2087L3305 712ZM2087 720 3305 712H2087Z" fill="#323a3d"/>
<path transform="matrix(.12,0,0,-.12,14,814)" stroke-linecap="round" stroke-miterlimit="10" stroke-linejoin="miter" fill="none" stroke="#323a3d" d="M3110 720H2087L3305 712ZM2087 720 3305 712H2087Z"/>
<path transform="matrix(.12,0,0,-.12,14,814)" d="M3305 712H2087L3500 701ZM2087 712 3500 701H2087Z" fill="#323a3d"/>
<path transform="matrix(.12,0,0,-.12,14,814)" stroke-linecap="round" stroke-miterlimit="10" stroke-linejoin="miter" fill="none" stroke="#323a3d" d="M3305 712H2087L3500 701ZM2087 712 3500 701H2087Z"/>
<path transform="matrix(.12,0,0,-.12,14,814)" d="M3500 701H2087L3528 699ZM2087 701 3528 699H2087Z" fill="#323a3d"/>
<path transform="matrix(.12,0,0,-.12,14,814)" stroke-linecap="round" stroke-miterlimit="10" stroke-linejoin="miter" fill="none" stroke="#323a3d" d="M3500 701H2087L3528 699ZM2087 701 3528 699H2087Z"/>
<path transform="matrix(.12,0,0,-.12,14,814)" d="M3528 699H2087L3695 686ZM2087 699 3695 686H1926Z" fill="#323a3d"/>
<path transform="matrix(.12,0,0,-.12,14,814)" stroke-linecap="round" stroke-miterlimit="10" stroke-linejoin="miter" fill="none" stroke="#323a3d" d="M3528 699H2087L3695 686ZM2087 699 3695 686H1926Z"/>
<path transform="matrix(.12,0,0,-.12,14,814)" d="M3695 686H1926L3719 684ZM1926 686 3719 684H1897Z" fill="#323a3d"/>
<path transform="matrix(.12,0,0,-.12,14,814)" stroke-linecap="round" stroke-miterlimit="10" stroke-linejoin="miter" fill="none" stroke="#323a3d" d="M3695 686H1926L3719 684ZM1926 686 3719 684H1897Z"/>
<path transform="matrix(.12,0,0,-.12,14,814)" d="M3719 684H1897L3889 668ZM1897 684 3889 668H1731Z" fill="#323a3d"/>
<path transform="matrix(.12,0,0,-.12,14,814)" stroke-linecap="round" stroke-miterlimit="10" stroke-linejoin="miter" fill="none" stroke="#323a3d" d="M3719 684H1897L3889 668ZM1897 684 3889 668H1731Z"/>
<path transform="matrix(.12,0,0,-.12,14,814)" d="M3889 668H1731L3909 665ZM1731 668 3909 665H1707Z" fill="#323a3d"/>
<path transform="matrix(.12,0,0,-.12,14,814)" stroke-linecap="round" stroke-miterlimit="10" stroke-linejoin="miter" fill="none" stroke="#323a3d" d="M3889 668H1731L3909 665ZM1731 668 3909 665H1707Z"/>
<path transform="matrix(.12,0,0,-.12,14,814)" d="M3909 665H1707L4083 645ZM1707 665 4083 645H1537Z" fill="#323a3d"/>
<path transform="matrix(.12,0,0,-.12,14,814)" stroke-linecap="round" stroke-miterlimit="10" stroke-linejoin="miter" fill="none" stroke="#323a3d" d="M3909 665H1707L4083 645ZM1707 665 4083 645H1537Z"/>
<path transform="matrix(.12,0,0,-.12,14,814)" d="M4083 645H1537L4099 643ZM1537 645 4099 643H1518Z" fill="#323a3d"/>
<path transform="matrix(.12,0,0,-.12,14,814)" stroke-linecap="round" stroke-miterlimit="10" stroke-linejoin="miter" fill="none" stroke="#323a3d" d="M4083 645H1537L4099 643ZM1537 645 4099 643H1518Z"/>
<path transform="matrix(.12,0,0,-.12,14,814)" d="M4099 643H1518L4276 620ZM1518 643 4276 620H1343Z" fill="#323a3d"/>
<path transform="matrix(.12,0,0,-.12,14,814)" stroke-linecap="round" stroke-miterlimit="10" stroke-linejoin="miter" fill="none" stroke="#323a3d" d="M4099 643H1518L4276 620ZM1518 643 4276 620H1343Z"/>
<path transform="matrix(.12,0,0,-.12,14,814)" d="M4276 620H1343L4288 618ZM1343 620 4288 618H1329Z" fill="#323a3d"/>
<path transform="matrix(.12,0,0,-.12,14,814)" stroke-linecap="round" stroke-miterlimit="10" stroke-linejoin="miter" fill="none" stroke="#323a3d" d="M4276 620H1343L4288 618ZM1343 620 4288 618H1329Z"/>
<path transform="matrix(.12,0,0,-.12,14,814)" d="M4288 618H1329L4469 590ZM1329 618 4469 590H1150Z" fill="#323a3d"/>
<path transform="matrix(.12,0,0,-.12,14,814)" stroke-linecap="round" stroke-miterlimit="10" stroke-linejoin="miter" fill="none" stroke="#323a3d" d="M4288 618H1329L4469 590ZM1329 618 4469 590H1150Z"/>
<path transform="matrix(.12,0,0,-.12,14,814)" d="M4469 590H1150L4477 589ZM1150 590 4477 589H1140Z" fill="#323a3d"/>
<path transform="matrix(.12,0,0,-.12,14,814)" stroke-linecap="round" stroke-miterlimit="10" stroke-linejoin="miter" fill="none" stroke="#323a3d" d="M4469 590H1150L4477 589ZM1150 590 4477 589H1140Z"/>
<path transform="matrix(.12,0,0,-.12,14,814)" d="M4477 589H1140L4661 557ZM1140 589 4661 557H957Z" fill="#323a3d"/>
<path transform="matrix(.12,0,0,-.12,14,814)" stroke-linecap="round" stroke-miterlimit="10" stroke-linejoin="miter" fill="none" stroke="#323a3d" d="M4477 589H1140L4661 557ZM1140 589 4661 557H957Z"/>
<path transform="matrix(.12,0,0,-.12,14,814)" d="M4661 557H957L4665 556ZM957 557 4665 556H953Z" fill="#323a3d"/>
<path transform="matrix(.12,0,0,-.12,14,814)" stroke-linecap="round" stroke-miterlimit="10" stroke-linejoin="miter" fill="none" stroke="#323a3d" d="M4661 557H957L4665 556ZM957 557 4665 556H953Z"/>
<path transform="matrix(.12,0,0,-.12,14,814)" d="M4665 556H953L4853 520ZM953 556 4853 520H765Z" fill="#323a3d"/>
<path transform="matrix(.12,0,0,-.12,14,814)" stroke-linecap="round" stroke-miterlimit="10" stroke-linejoin="miter" fill="none" stroke="#323a3d" d="M4665 556H953L4853 520ZM953 556 4853 520H765Z"/>
<path transform="matrix(.12,0,0,-.12,14,814)" stroke-width="5" stroke-linecap="round" stroke-linejoin="round" fill="none" stroke="#323a3d" d="M2087 4662V5871L4776 4419 4333 4153 3110 4872V4175L2863 4293V5016L2499 5227V4466L2087 4662"/>
<path transform="matrix(.12,0,0,-.12,14,814)" stroke-width="5" stroke-linecap="round" stroke-linejoin="round" fill="none" stroke="#323a3d" d="M4935 3009V2337L3110 3288V720L3305 712 3500 701 3695 686 3889 668 4083 645 4276 620 4469 590 4661 557 4853 520H765L953 556 1140 589 1329 618 1518 643 1707 665 1897 684 2087 699V4497L4935 3009"/>
<path transform="matrix(.12,0,0,-.12,14,814)" stroke-width="5" stroke-linecap="round" stroke-linejoin="round" fill="none" stroke="#323a3d" d="M2499 3689 2863 3450V2491L2499 2187V3689"/>
<path transform="matrix(.12,0,0,-.12,14,814)" stroke-width="5" stroke-linecap="round" stroke-linejoin="round" fill="none" stroke="#323a3d" d="M2863 2194 2631 2000 2863 1849V2194"/>
<path transform="matrix(.12,0,0,-.12,14,814)" stroke-width="5" stroke-linecap="round" stroke-linejoin="round" fill="none" stroke="#323a3d" d="M2863 1634 2858 724H2499V1873L2863 1634"/>
</g>
</g>
</svg>
