<?xml version="1.0" standalone="no"?>
<!DOCTYPE svg PUBLIC "-//W3C//DTD SVG 20010904//EN"
 "http://www.w3.org/TR/2001/REC-SVG-20010904/DTD/svg10.dtd">
<svg version="1.0" xmlns="http://www.w3.org/2000/svg"
 width="1080.000000pt" height="1080.000000pt" viewBox="0 0 1080.000000 1080.000000"
 preserveAspectRatio="xMidYMid meet">

<g transform="translate(0.000000,1080.000000) scale(0.100000,-0.100000)"
fill="#000000" stroke="none">
<path d="M5315 9696 c-38 -24 -205 -123 -370 -221 -165 -98 -320 -190 -345
-205 -25 -15 -214 -128 -420 -250 -206 -123 -463 -276 -570 -340 -107 -64
-420 -250 -695 -414 -275 -164 -525 -314 -555 -333 -30 -19 -197 -119 -370
-222 l-315 -188 -3 -2081 -2 -2080 67 -40 c38 -21 169 -100 293 -175 124 -74
378 -227 565 -339 187 -113 558 -336 825 -498 267 -161 694 -419 950 -573 256
-154 590 -356 743 -448 152 -93 282 -169 288 -169 9 0 141 78 404 238 214 130
626 379 700 422 50 29 104 61 120 72 17 10 89 54 160 97 72 43 272 164 445
269 435 262 767 463 815 494 22 14 194 117 382 229 187 112 340 206 338 210
-2 3 2 6 8 6 7 0 90 46 185 103 l172 103 0 2082 0 2081 -42 24 c-24 13 -257
152 -518 308 -915 548 -1607 960 -2015 1202 -71 43 -258 154 -415 247 -607
362 -729 433 -742 432 -7 0 -44 -20 -83 -43z m15 -1861 l0 -1706 -27 15 c-16
8 -98 57 -183 109 l-155 93 0 1287 c0 708 -3 1287 -8 1287 -4 0 -74 -40 -155
-88 -81 -49 -338 -202 -572 -342 -234 -139 -490 -292 -570 -340 -80 -48 -325
-194 -545 -325 -220 -131 -412 -245 -428 -254 l-27 -17 67 -43 c164 -102 198
-123 823 -491 124 -73 329 -195 455 -270 257 -153 638 -379 760 -450 44 -26
154 -91 245 -145 297 -177 381 -225 391 -225 9 0 154 84 434 250 44 26 186
111 315 187 129 77 314 186 410 243 96 56 272 160 390 230 118 70 328 194 465
275 514 303 725 430 725 437 0 4 -10 13 -22 19 -13 7 -194 114 -403 239 -209
124 -537 320 -730 435 -192 114 -476 283 -630 375 -395 235 -505 300 -510 300
-3 0 -6 -579 -7 -1287 l-3 -1288 -180 -108 -180 -108 -3 1702 c-1 936 0 1704
2 1707 3 2 17 -5 33 -16 23 -16 422 -255 498 -298 49 -28 643 -380 975 -579
654 -391 1865 -1117 1868 -1120 3 -3 -159 -105 -288 -182 -47 -27 -195 -115
-330 -195 -135 -80 -414 -246 -620 -368 -461 -274 -695 -412 -955 -565 -110
-65 -254 -150 -320 -190 -66 -39 -151 -89 -190 -112 -38 -22 -131 -77 -205
-120 -74 -44 -225 -133 -335 -198 l-200 -117 -40 22 c-51 29 -290 169 -460
270 -71 42 -206 122 -300 177 -400 235 -748 441 -863 509 -68 41 -125 74 -127
74 -2 0 -161 94 -352 208 -191 115 -382 228 -423 251 -280 161 -880 527 -877
536 2 5 28 24 58 41 30 17 196 116 369 221 622 375 1771 1061 2498 1491 149
89 307 184 350 211 42 27 80 50 85 50 4 1 7 -766 7 -1704z m-514 459 c-2 -6
-64 -47 -138 -91 -73 -44 -155 -94 -183 -110 -76 -46 -908 -543 -1005 -600
-47 -28 -115 -69 -152 -92 -37 -22 -73 -41 -80 -41 -7 1 -38 16 -68 35 -30 18
-99 59 -152 91 -54 32 -98 61 -98 65 0 5 66 47 148 95 81 48 235 140 342 204
107 64 330 197 495 295 165 98 433 259 595 356 l295 177 3 -186 c1 -102 0
-192 -2 -198z m1529 169 c149 -88 396 -235 550 -327 154 -92 436 -260 627
-374 191 -114 347 -209 347 -212 1 -4 -104 -68 -267 -162 -26 -15 -52 -28 -58
-28 -6 0 -107 58 -225 129 -118 70 -333 199 -479 285 -146 87 -399 237 -562
334 l-297 177 -1 197 0 198 48 -29 c26 -16 169 -101 317 -188z m-1525 -1184
c0 -768 -1 -841 -16 -835 -9 3 -102 57 -208 120 -105 62 -319 188 -476 281
-157 92 -339 200 -405 240 -66 39 -164 98 -218 129 -89 52 -97 59 -80 70 10 7
113 69 228 138 116 69 359 214 540 323 182 109 391 233 465 277 74 44 139 84
145 89 5 5 13 9 17 9 4 0 8 -378 8 -841z m1296 764 c723 -428 1283 -768 1277
-774 -11 -10 -334 -204 -677 -406 -154 -91 -357 -210 -451 -266 -93 -55 -179
-105 -190 -112 -11 -6 -37 -21 -57 -34 l-38 -23 0 846 c0 465 2 846 4 846 2 0
61 -34 132 -77z m-4062 -751 c127 -77 283 -170 346 -207 63 -38 187 -111 275
-163 88 -52 196 -116 240 -142 44 -26 231 -136 415 -245 325 -192 445 -263
560 -330 105 -62 496 -293 645 -382 83 -49 233 -138 335 -198 102 -59 247
-146 323 -192 l137 -85 0 -2015 c0 -1108 -3 -2013 -7 -2011 -5 2 -26 16 -48
31 -22 16 -134 85 -250 154 -257 154 -384 230 -450 270 -27 17 -138 84 -245
149 -107 64 -377 227 -600 362 -223 135 -470 284 -550 332 -80 48 -255 154
-390 235 -310 187 -290 175 -342 206 -125 75 -387 235 -416 254 l-33 22 48 30
c26 17 75 46 108 65 33 19 159 93 280 165 203 120 427 252 780 458 152 89 713
419 890 523 61 35 178 104 260 152 83 48 191 111 240 140 50 29 106 62 125 72
19 11 44 27 55 34 11 8 23 14 27 14 5 0 8 -90 8 -199 l0 -199 -47 -30 c-61
-37 -732 -434 -943 -557 -30 -18 -95 -56 -145 -85 -125 -73 -259 -152 -395
-230 -63 -37 -178 -104 -255 -150 -77 -46 -167 -99 -200 -117 -117 -67 -158
-97 -144 -106 8 -4 68 -41 134 -81 66 -41 257 -156 425 -256 168 -100 343
-206 390 -234 118 -73 861 -523 1110 -672 l205 -124 3 1602 c2 1274 -1 1605
-10 1614 -11 10 -256 156 -593 354 -335 196 -862 508 -1475 872 -190 112 -390
231 -445 263 -55 32 -133 78 -173 103 -40 24 -75 42 -78 40 -2 -3 -3 -620 -2
-1371 l3 -1367 100 59 c322 189 466 273 600 351 83 47 229 133 325 189 300
176 352 207 465 273 61 36 166 97 235 138 69 40 159 93 200 118 127 75 260
152 264 152 2 0 72 -40 154 -89 82 -49 164 -97 181 -105 17 -9 31 -20 31 -25
0 -4 -53 -39 -117 -77 -65 -37 -174 -102 -243 -143 -155 -92 -275 -163 -360
-211 -36 -20 -124 -73 -197 -116 -73 -43 -206 -122 -295 -174 -90 -52 -246
-143 -348 -203 -102 -60 -214 -126 -250 -147 -201 -116 -272 -158 -335 -196
-38 -23 -113 -67 -165 -97 -52 -30 -212 -122 -354 -206 -143 -83 -261 -151
-263 -151 -1 0 -3 907 -3 2015 0 1108 3 2015 6 2015 4 0 111 -62 238 -138z
m6936 -1877 c0 -1252 -4 -2015 -9 -2015 -6 0 -13 5 -16 11 -4 6 -14 8 -22 5
-8 -3 -12 -2 -9 2 3 5 -57 45 -132 88 -318 186 -715 420 -752 442 -14 9 -104
61 -200 117 -216 125 -708 414 -930 545 -91 54 -259 153 -375 220 -276 161
-457 270 -473 284 -9 9 3 21 55 51 38 21 106 62 153 90 47 29 100 60 118 69
l34 17 66 -39 c37 -22 108 -63 157 -92 50 -29 133 -79 185 -110 97 -59 393
-232 555 -325 50 -28 113 -65 140 -82 28 -17 122 -72 210 -123 297 -173 779
-455 843 -492 l32 -20 0 1372 c0 754 -3 1370 -8 1368 -7 -3 -41 -23 -337 -198
-99 -59 -292 -174 -430 -255 -137 -81 -369 -218 -515 -305 -520 -308 -808
-478 -990 -585 -102 -60 -248 -146 -325 -192 -77 -46 -147 -87 -155 -92 -13
-7 -15 -199 -18 -1615 l-2 -1606 42 21 c24 12 57 31 73 43 17 12 62 40 100 63
92 53 450 268 495 297 19 13 98 60 175 106 77 46 258 155 403 244 326 200 868
527 944 570 l56 32 -131 78 c-73 44 -208 124 -302 179 -93 55 -233 137 -310
182 -77 45 -221 130 -320 188 -99 57 -243 142 -320 187 -259 153 -549 323
-645 378 -52 30 -101 59 -107 64 -10 8 -13 62 -13 209 0 110 2 199 5 199 7 0
87 -46 310 -177 94 -55 249 -146 345 -203 96 -56 249 -146 340 -200 91 -53
212 -124 270 -157 58 -33 128 -74 155 -91 174 -106 297 -172 307 -166 6 4 8 3
5 -3 -4 -7 117 -84 296 -188 166 -98 340 -200 387 -228 47 -27 105 -61 130
-75 25 -14 56 -33 70 -42 14 -9 50 -31 80 -47 93 -51 120 -68 120 -74 0 -7
-295 -189 -615 -379 -49 -29 -112 -67 -140 -85 -27 -17 -102 -62 -165 -100
-63 -38 -185 -111 -270 -163 -85 -52 -180 -109 -210 -127 -106 -63 -725 -437
-760 -459 -19 -13 -87 -54 -150 -91 -63 -38 -124 -75 -135 -82 -11 -7 -202
-123 -425 -256 -223 -134 -417 -251 -433 -261 l-27 -18 2 2018 3 2018 225 134
c124 74 317 188 430 254 113 67 300 177 415 245 259 154 342 203 470 278 55
32 154 91 220 130 66 40 147 88 180 107 67 39 590 348 970 573 138 81 327 194
420 251 94 57 173 103 178 104 4 0 7 -907 7 -2015z m-514 -1103 c-3 -2 -81 42
-175 98 l-171 101 2 922 3 922 45 28 c25 16 101 61 170 102 l125 73 3 -1121
c1 -616 0 -1122 -2 -1125z m-5974 2140 l163 -97 3 -923 2 -922 -42 -27 c-24
-14 -91 -54 -149 -89 -58 -34 -118 -69 -132 -79 l-27 -17 0 1126 c0 675 4
1126 9 1126 5 0 83 -44 173 -98z m390 -231 c72 -44 453 -269 483 -285 11 -6
110 -65 220 -130 110 -66 298 -177 418 -248 119 -71 215 -133 212 -138 -3 -4
-26 -20 -53 -35 -85 -50 -354 -207 -512 -300 -116 -69 -791 -463 -842 -492 -5
-2 -8 372 -8 831 0 517 4 836 9 836 6 0 38 -17 73 -39z m5098 -791 c0 -456 -2
-830 -5 -830 -7 0 -213 117 -370 210 -77 45 -210 123 -295 173 -662 386 -750
438 -750 445 0 4 37 27 82 52 45 25 121 68 168 96 495 296 1154 683 1163 684
4 0 7 -373 7 -830z m-3170 -1836 l0 -826 -32 20 c-18 11 -179 108 -358 215
-748 449 -984 593 -987 602 -1 6 28 28 65 49 37 21 130 76 207 121 77 45 257
151 400 235 392 229 430 252 565 333 69 42 128 76 133 76 4 1 7 -371 7 -825z
m1303 747 c73 -43 166 -98 207 -121 41 -24 185 -109 320 -188 135 -79 270
-159 300 -177 294 -172 420 -248 418 -250 -2 -1 -106 -65 -233 -142 -349 -213
-416 -253 -595 -361 -91 -55 -252 -152 -357 -216 -106 -64 -195 -116 -198
-116 -3 0 -5 371 -5 825 0 454 2 825 5 825 3 0 65 -35 138 -79z m-2542 -992
c156 -95 428 -258 604 -364 176 -106 390 -235 475 -287 l155 -94 3 -203 2
-204 -22 15 c-13 8 -135 82 -273 165 -137 83 -446 268 -685 413 -239 145 -507
307 -595 360 -212 128 -285 174 -285 180 0 3 28 21 62 40 34 19 104 61 157 92
53 32 101 57 107 58 6 0 138 -77 295 -171z m4004 135 c33 -20 80 -48 105 -62
93 -52 152 -94 144 -102 -5 -5 -79 -50 -164 -101 -85 -50 -200 -120 -255 -154
-126 -78 -602 -367 -675 -410 -30 -17 -118 -70 -195 -117 -355 -216 -557 -338
-561 -338 -2 0 -3 91 -2 202 l3 201 205 124 c113 68 215 129 227 136 12 7 81
48 155 93 73 44 180 109 238 144 58 35 195 118 305 185 110 67 216 131 235
142 19 11 62 37 94 57 33 20 65 36 70 36 6 0 38 -16 71 -36z"/>
</g>
</svg>
