<svg xmlns="http://www.w3.org/2000/svg" xmlns:xlink="http://www.w3.org/1999/xlink" xmlns:inkscape="http://www.inkscape.org/namespaces/inkscape" version="1.1" width="842" height="595" viewBox="0 0 842 595">
<defs>
<clipPath id="clip_1">
<path transform="matrix(.03,0,0,-.03,14,547)" d="M2295 0H24822V16629H2295V0"/>
</clipPath>
<clipPath id="clip_2">
<path transform="matrix(.03,0,0,-.03,14,547)" d="M2295 0H24822V16629H2295V0"/>
</clipPath>
<clipPath id="clip_3">
<path transform="matrix(.03,0,0,-.03,14,547)" d="M2295 0H24822V16629H2295V0"/>
</clipPath>
<clipPath id="clip_4">
<path transform="matrix(.03,0,0,-.03,14,547)" d="M2295 0H24822V16629H2295V0"/>
</clipPath>
<clipPath id="clip_5">
<path transform="matrix(.03,0,0,-.03,14,547)" d="M2295 0H24822V16629H2295V0"/>
</clipPath>
</defs>
<g clip-path="url(#clip_1)">
<g inkscape:groupmode="layer" inkscape:label="0">
<path transform="matrix(.03,0,0,-.03,14,547)" d="M18984 16273V14930H16699Z" fill="#cbb369"/>
<path transform="matrix(.03,0,0,-.03,14,547)" stroke-linecap="butt" stroke-miterlimit="10" stroke-linejoin="miter" fill="none" stroke="#cbb369" d="M18984 16273V14930H16699Z"/>
<path transform="matrix(.03,0,0,-.03,14,547)" d="M18984 14930H18197L18984 14528ZM18197 14930 18984 14528H18197Z" fill="#cbb369"/>
<path transform="matrix(.03,0,0,-.03,14,547)" stroke-linecap="butt" stroke-miterlimit="10" stroke-linejoin="miter" fill="none" stroke="#cbb369" d="M18984 14930H18197L18984 14528ZM18197 14930 18984 14528H18197Z"/>
<path transform="matrix(.03,0,0,-.03,14,547)" d="M18197 14930H16699L17505 14528ZM16699 14930 17505 14528H16016Z" fill="#cbb369"/>
<path transform="matrix(.03,0,0,-.03,14,547)" stroke-linecap="butt" stroke-miterlimit="10" stroke-linejoin="miter" fill="none" stroke="#cbb369" d="M18197 14930H16699L17505 14528ZM16699 14930 17505 14528H16016Z"/>
<path transform="matrix(.03,0,0,-.03,14,547)" d="M17505 14528H16016L17505 14254ZM16016 14528 17505 14254H15549Z" fill="#cbb369"/>
<path transform="matrix(.03,0,0,-.03,14,547)" stroke-linecap="butt" stroke-miterlimit="10" stroke-linejoin="miter" fill="none" stroke="#cbb369" d="M17505 14528H16016L17505 14254ZM16016 14528 17505 14254H15549Z"/>
<path transform="matrix(.03,0,0,-.03,14,547)" d="M18984 14528H18197L18984 13993ZM18197 14528 18984 13993H18197Z" fill="#cbb369"/>
<path transform="matrix(.03,0,0,-.03,14,547)" stroke-linecap="butt" stroke-miterlimit="10" stroke-linejoin="miter" fill="none" stroke="#cbb369" d="M18984 14528H18197L18984 13993ZM18197 14528 18984 13993H18197Z"/>
<path transform="matrix(.03,0,0,-.03,14,547)" d="M17505 14254H17034L17505 13993ZM17034 14254 17505 13993H17034Z" fill="#cbb369"/>
<path transform="matrix(.03,0,0,-.03,14,547)" stroke-linecap="butt" stroke-miterlimit="10" stroke-linejoin="miter" fill="none" stroke="#cbb369" d="M17505 14254H17034L17505 13993ZM17034 14254 17505 13993H17034Z"/>
<path transform="matrix(.03,0,0,-.03,14,547)" d="M17034 14254H15549L16550 13993ZM15549 14254 16550 13993H15105Z" fill="#cbb369"/>
<path transform="matrix(.03,0,0,-.03,14,547)" stroke-linecap="butt" stroke-miterlimit="10" stroke-linejoin="miter" fill="none" stroke="#cbb369" d="M17034 14254H15549L16550 13993ZM15549 14254 16550 13993H15105Z"/>
<path transform="matrix(.03,0,0,-.03,14,547)" d="M18197 13698H18364L18197 13619Z" fill="#cbb369"/>
<path transform="matrix(.03,0,0,-.03,14,547)" stroke-linecap="butt" stroke-miterlimit="10" stroke-linejoin="miter" fill="none" stroke="#cbb369" d="M18197 13698H18364L18197 13619Z"/>
<path transform="matrix(.03,0,0,-.03,14,547)" d="M18984 13698V13619H18854Z" fill="#cbb369"/>
<path transform="matrix(.03,0,0,-.03,14,547)" stroke-linecap="butt" stroke-miterlimit="10" stroke-linejoin="miter" fill="none" stroke="#cbb369" d="M18984 13698V13619H18854Z"/>
<path transform="matrix(.03,0,0,-.03,14,547)" d="M18984 13993H18197L18364 13698ZM18197 13993 18364 13698H18197Z" fill="#cbb369"/>
<path transform="matrix(.03,0,0,-.03,14,547)" stroke-linecap="butt" stroke-miterlimit="10" stroke-linejoin="miter" fill="none" stroke="#cbb369" d="M18984 13993H18197L18364 13698ZM18197 13993 18364 13698H18197Z"/>
<path transform="matrix(.03,0,0,-.03,14,547)" d="M17034 13993V13290H17505ZM17034 13290H17505L17034 13065Z" fill="#cbb369"/>
<path transform="matrix(.03,0,0,-.03,14,547)" stroke-linecap="butt" stroke-miterlimit="10" stroke-linejoin="miter" fill="none" stroke="#cbb369" d="M17034 13993V13290H17505ZM17034 13290H17505L17034 13065Z"/>
<path transform="matrix(.03,0,0,-.03,14,547)" d="M17034 13993H17505V13290Z" fill="#cbb369"/>
<path transform="matrix(.03,0,0,-.03,14,547)" stroke-linecap="butt" stroke-miterlimit="10" stroke-linejoin="miter" fill="none" stroke="#cbb369" d="M17034 13993H17505V13290Z"/>
<path transform="matrix(.03,0,0,-.03,14,547)" d="M18984 13619H18854L18984 12159ZM18854 13619 18984 12159H16459Z" fill="#cbb369"/>
<path transform="matrix(.03,0,0,-.03,14,547)" stroke-linecap="butt" stroke-miterlimit="10" stroke-linejoin="miter" fill="none" stroke="#cbb369" d="M18984 13619H18854L18984 12159ZM18854 13619 18984 12159H16459Z"/>
<path transform="matrix(.03,0,0,-.03,14,547)" d="M18984 12159H18197L18984 11909ZM18197 12159 18984 11909H18197Z" fill="#cbb369"/>
<path transform="matrix(.03,0,0,-.03,14,547)" stroke-linecap="butt" stroke-miterlimit="10" stroke-linejoin="miter" fill="none" stroke="#cbb369" d="M18984 12159H18197L18984 11909ZM18197 12159 18984 11909H18197Z"/>
<path transform="matrix(.03,0,0,-.03,14,547)" d="M18197 12159H16459L17817 11909ZM16459 12159 17817 11909H16049Z" fill="#cbb369"/>
<path transform="matrix(.03,0,0,-.03,14,547)" stroke-linecap="butt" stroke-miterlimit="10" stroke-linejoin="miter" fill="none" stroke="#cbb369" d="M18197 12159H16459L17817 11909ZM16459 12159 17817 11909H16049Z"/>
<path transform="matrix(.03,0,0,-.03,14,547)" d="M16550 13993H15105L12689 11909ZM15105 13993 12689 11909H11560Z" fill="#cbb369"/>
<path transform="matrix(.03,0,0,-.03,14,547)" stroke-linecap="butt" stroke-miterlimit="10" stroke-linejoin="miter" fill="none" stroke="#cbb369" d="M16550 13993H15105L12689 11909ZM15105 13993 12689 11909H11560Z"/>
<path transform="matrix(.03,0,0,-.03,14,547)" d="M11991 11704H12309L12160 11624Z" fill="#cbb369"/>
<path transform="matrix(.03,0,0,-.03,14,547)" stroke-linecap="butt" stroke-miterlimit="10" stroke-linejoin="miter" fill="none" stroke="#cbb369" d="M11991 11704H12309L12160 11624Z"/>
<path transform="matrix(.03,0,0,-.03,14,547)" d="M17817 11909H16049L17505 11704ZM16049 11909 17505 11704H15713Z" fill="#cbb369"/>
<path transform="matrix(.03,0,0,-.03,14,547)" stroke-linecap="butt" stroke-miterlimit="10" stroke-linejoin="miter" fill="none" stroke="#cbb369" d="M17817 11909H16049L17505 11704ZM16049 11909 17505 11704H15713Z"/>
<path transform="matrix(.03,0,0,-.03,14,547)" d="M12689 11909H11560L12309 11704ZM11560 11909 12309 11704H11991Z" fill="#cbb369"/>
<path transform="matrix(.03,0,0,-.03,14,547)" stroke-linecap="butt" stroke-miterlimit="10" stroke-linejoin="miter" fill="none" stroke="#cbb369" d="M12689 11909H11560L12309 11704ZM11560 11909 12309 11704H11991Z"/>
<path transform="matrix(.03,0,0,-.03,14,547)" d="M17505 11704H15713L17505 11394ZM15713 11704 17505 11394H15204Z" fill="#cbb369"/>
<path transform="matrix(.03,0,0,-.03,14,547)" stroke-linecap="butt" stroke-miterlimit="10" stroke-linejoin="miter" fill="none" stroke="#cbb369" d="M17505 11704H15713L17505 11394ZM15713 11704 17505 11394H15204Z"/>
<path transform="matrix(.03,0,0,-.03,14,547)" d="M17505 11394H17034L17505 10391ZM17034 11394 17505 10391H17034Z" fill="#cbb369"/>
<path transform="matrix(.03,0,0,-.03,14,547)" stroke-linecap="butt" stroke-miterlimit="10" stroke-linejoin="miter" fill="none" stroke="#cbb369" d="M17505 11394H17034L17505 10391ZM17034 11394 17505 10391H17034Z"/>
<path transform="matrix(.03,0,0,-.03,14,547)" d="M17034 11394H15204L15506 10391ZM15204 11394 15506 10391H13558Z" fill="#cbb369"/>
<path transform="matrix(.03,0,0,-.03,14,547)" stroke-linecap="butt" stroke-miterlimit="10" stroke-linejoin="miter" fill="none" stroke="#cbb369" d="M17034 11394H15204L15506 10391ZM15204 11394 15506 10391H13558Z"/>
<path transform="matrix(.03,0,0,-.03,14,547)" d="M17505 10391H17034L17505 9814ZM17034 10391 17505 9814H17034Z" fill="#cbb369"/>
<path transform="matrix(.03,0,0,-.03,14,547)" stroke-linecap="butt" stroke-miterlimit="10" stroke-linejoin="miter" fill="none" stroke="#cbb369" d="M17505 10391H17034L17505 9814ZM17034 10391 17505 9814H17034Z"/>
<path transform="matrix(.03,0,0,-.03,14,547)" d="M18984 11909H18197L18984 9248ZM18197 11909 18984 9248H18197Z" fill="#cbb369"/>
<path transform="matrix(.03,0,0,-.03,14,547)" stroke-linecap="butt" stroke-miterlimit="10" stroke-linejoin="miter" fill="none" stroke="#cbb369" d="M18984 11909H18197L18984 9248ZM18197 11909 18984 9248H18197Z"/>
<path transform="matrix(.03,0,0,-.03,14,547)" d="M17505 9814H17034L18182 9248ZM17034 9814 18182 9248H17034Z" fill="#cbb369"/>
<path transform="matrix(.03,0,0,-.03,14,547)" stroke-linecap="butt" stroke-miterlimit="10" stroke-linejoin="miter" fill="none" stroke="#cbb369" d="M17505 9814H17034L18182 9248ZM17034 9814 18182 9248H17034Z"/>
<path transform="matrix(.03,0,0,-.03,14,547)" d="M13558 9235H13747L13558 9111Z" fill="#cbb369"/>
<path transform="matrix(.03,0,0,-.03,14,547)" stroke-linecap="butt" stroke-miterlimit="10" stroke-linejoin="miter" fill="none" stroke="#cbb369" d="M13558 9235H13747L13558 9111Z"/>
<path transform="matrix(.03,0,0,-.03,14,547)" d="M18984 9248H18197L18984 9235ZM18197 9248 18984 9235H18197Z" fill="#cbb369"/>
<path transform="matrix(.03,0,0,-.03,14,547)" stroke-linecap="butt" stroke-miterlimit="10" stroke-linejoin="miter" fill="none" stroke="#cbb369" d="M18984 9248H18197L18984 9235ZM18197 9248 18984 9235H18197Z"/>
<path transform="matrix(.03,0,0,-.03,14,547)" d="M18182 9248H17505L18197 9235ZM17505 9248 18197 9235H17521Z" fill="#cbb369"/>
<path transform="matrix(.03,0,0,-.03,14,547)" stroke-linecap="butt" stroke-miterlimit="10" stroke-linejoin="miter" fill="none" stroke="#cbb369" d="M18182 9248H17505L18197 9235ZM17505 9248 18197 9235H17521Z"/>
<path transform="matrix(.03,0,0,-.03,14,547)" d="M15506 10391H13558L13747 9235ZM13558 10391 13747 9235H13558Z" fill="#cbb369"/>
<path transform="matrix(.03,0,0,-.03,14,547)" stroke-linecap="butt" stroke-miterlimit="10" stroke-linejoin="miter" fill="none" stroke="#cbb369" d="M15506 10391H13558L13747 9235ZM13558 10391 13747 9235H13558Z"/>
<path transform="matrix(.03,0,0,-.03,14,547)" d="M18984 9235H17521L18984 8880ZM17521 9235 18984 8880H17946Z" fill="#cbb369"/>
<path transform="matrix(.03,0,0,-.03,14,547)" stroke-linecap="butt" stroke-miterlimit="10" stroke-linejoin="miter" fill="none" stroke="#cbb369" d="M18984 9235H17521L18984 8880ZM17521 9235 18984 8880H17946Z"/>
<path transform="matrix(.03,0,0,-.03,14,547)" d="M18984 8880H17946L18984 8636ZM17946 8880 18984 8636H17575Z" fill="#cbb369"/>
<path transform="matrix(.03,0,0,-.03,14,547)" stroke-linecap="butt" stroke-miterlimit="10" stroke-linejoin="miter" fill="none" stroke="#cbb369" d="M18984 8880H17946L18984 8636ZM17946 8880 18984 8636H17575Z"/>
<path transform="matrix(.03,0,0,-.03,14,547)" d="M18984 8636H18197L18984 8591ZM18197 8636 18984 8591H18197Z" fill="#cbb369"/>
<path transform="matrix(.03,0,0,-.03,14,547)" stroke-linecap="butt" stroke-miterlimit="10" stroke-linejoin="miter" fill="none" stroke="#cbb369" d="M18984 8636H18197L18984 8591ZM18197 8636 18984 8591H18197Z"/>
<path transform="matrix(.03,0,0,-.03,14,547)" d="M18197 8636H17575L18128 8591ZM17575 8636 18128 8591H17505Z" fill="#cbb369"/>
<path transform="matrix(.03,0,0,-.03,14,547)" stroke-linecap="butt" stroke-miterlimit="10" stroke-linejoin="miter" fill="none" stroke="#cbb369" d="M18197 8636H17575L18128 8591ZM17575 8636 18128 8591H17505Z"/>
<path transform="matrix(.03,0,0,-.03,14,547)" d="M17505 9248H17034L17505 8591ZM17034 9248 17505 8591H17034Z" fill="#cbb369"/>
<path transform="matrix(.03,0,0,-.03,14,547)" stroke-linecap="butt" stroke-miterlimit="10" stroke-linejoin="miter" fill="none" stroke="#cbb369" d="M17505 9248H17034L17505 8591ZM17034 9248 17505 8591H17034Z"/>
<path transform="matrix(.03,0,0,-.03,14,547)" d="M18128 8591H17034L17505 8182ZM17034 8591 17505 8182H17034Z" fill="#cbb369"/>
<path transform="matrix(.03,0,0,-.03,14,547)" stroke-linecap="butt" stroke-miterlimit="10" stroke-linejoin="miter" fill="none" stroke="#cbb369" d="M18128 8591H17034L17505 8182ZM17034 8591 17505 8182H17034Z"/>
<path transform="matrix(.03,0,0,-.03,14,547)" d="M17505 8182H17034L17505 6040ZM17034 8182 17505 6040H17034Z" fill="#cbb369"/>
<path transform="matrix(.03,0,0,-.03,14,547)" stroke-linecap="butt" stroke-miterlimit="10" stroke-linejoin="miter" fill="none" stroke="#cbb369" d="M17505 8182H17034L17505 6040ZM17034 8182 17505 6040H17034Z"/>
<path transform="matrix(.03,0,0,-.03,14,547)" d="M17736 6040V6040H17034ZM17736 6040H17034 17505Z" fill="#cbb369"/>
<path transform="matrix(.03,0,0,-.03,14,547)" stroke-linecap="butt" stroke-miterlimit="10" stroke-linejoin="miter" fill="none" stroke="#cbb369" d="M17736 6040V6040H17034ZM17736 6040H17034 17505Z"/>
<path transform="matrix(.03,0,0,-.03,14,547)" d="M17736 6040H17034L17967 6037ZM17034 6040 17967 6037H17034Z" fill="#cbb369"/>
<path transform="matrix(.03,0,0,-.03,14,547)" stroke-linecap="butt" stroke-miterlimit="10" stroke-linejoin="miter" fill="none" stroke="#cbb369" d="M17736 6040H17034L17967 6037ZM17034 6040 17967 6037H17034Z"/>
<path transform="matrix(.03,0,0,-.03,14,547)" d="M18984 8591H18197L18984 6032ZM18197 8591 18984 6032H18197Z" fill="#cbb369"/>
<path transform="matrix(.03,0,0,-.03,14,547)" stroke-linecap="butt" stroke-miterlimit="10" stroke-linejoin="miter" fill="none" stroke="#cbb369" d="M18984 8591H18197L18984 6032ZM18197 8591 18984 6032H18197Z"/>
<path transform="matrix(.03,0,0,-.03,14,547)" d="M17967 6037H17034L18178 6032ZM17034 6037 18178 6032H17034Z" fill="#cbb369"/>
<path transform="matrix(.03,0,0,-.03,14,547)" stroke-linecap="butt" stroke-miterlimit="10" stroke-linejoin="miter" fill="none" stroke="#cbb369" d="M17967 6037H17034L18178 6032ZM17034 6037 18178 6032H17034Z"/>
<path transform="matrix(.03,0,0,-.03,14,547)" d="M18984 6032H18197L18984 6031ZM18197 6032 18984 6031H18197Z" fill="#cbb369"/>
<path transform="matrix(.03,0,0,-.03,14,547)" stroke-linecap="butt" stroke-miterlimit="10" stroke-linejoin="miter" fill="none" stroke="#cbb369" d="M18984 6032H18197L18984 6031ZM18197 6032 18984 6031H18197Z"/>
<path transform="matrix(.03,0,0,-.03,14,547)" d="M18178 6032H17034L18197 6031ZM17034 6032 18197 6031H17021Z" fill="#cbb369"/>
<path transform="matrix(.03,0,0,-.03,14,547)" stroke-linecap="butt" stroke-miterlimit="10" stroke-linejoin="miter" fill="none" stroke="#cbb369" d="M18178 6032H17034L18197 6031ZM17034 6032 18197 6031H17021Z"/>
<path transform="matrix(.03,0,0,-.03,14,547)" d="M18984 6031H17021L18984 6022ZM17021 6031 18984 6022H16755Z" fill="#cbb369"/>
<path transform="matrix(.03,0,0,-.03,14,547)" stroke-linecap="butt" stroke-miterlimit="10" stroke-linejoin="miter" fill="none" stroke="#cbb369" d="M18984 6031H17021L18984 6022ZM17021 6031 18984 6022H16755Z"/>
<path transform="matrix(.03,0,0,-.03,14,547)" d="M18984 6022H16755L18984 6008ZM16755 6022 18984 6008H16477Z" fill="#cbb369"/>
<path transform="matrix(.03,0,0,-.03,14,547)" stroke-linecap="butt" stroke-miterlimit="10" stroke-linejoin="miter" fill="none" stroke="#cbb369" d="M18984 6022H16755L18984 6008ZM16755 6022 18984 6008H16477Z"/>
<path transform="matrix(.03,0,0,-.03,14,547)" d="M18984 6008H16477L18984 5992ZM16477 6008 18984 5992H16235Z" fill="#cbb369"/>
<path transform="matrix(.03,0,0,-.03,14,547)" stroke-linecap="butt" stroke-miterlimit="10" stroke-linejoin="miter" fill="none" stroke="#cbb369" d="M18984 6008H16477L18984 5992ZM16477 6008 18984 5992H16235Z"/>
<path transform="matrix(.03,0,0,-.03,14,547)" d="M18984 5992H16235L19014 5990ZM16235 5992 19014 5990H16199Z" fill="#cbb369"/>
<path transform="matrix(.03,0,0,-.03,14,547)" stroke-linecap="butt" stroke-miterlimit="10" stroke-linejoin="miter" fill="none" stroke="#cbb369" d="M18984 5992H16235L19014 5990ZM16235 5992 19014 5990H16199Z"/>
<path transform="matrix(.03,0,0,-.03,14,547)" d="M19014 5990H16199L19237 5972ZM16199 5990 19237 5972H15982Z" fill="#cbb369"/>
<path transform="matrix(.03,0,0,-.03,14,547)" stroke-linecap="butt" stroke-miterlimit="10" stroke-linejoin="miter" fill="none" stroke="#cbb369" d="M19014 5990H16199L19237 5972ZM16199 5990 19237 5972H15982Z"/>
<path transform="matrix(.03,0,0,-.03,14,547)" d="M19237 5972H15982L19291 5968ZM15982 5972 19291 5968H15921Z" fill="#cbb369"/>
<path transform="matrix(.03,0,0,-.03,14,547)" stroke-linecap="butt" stroke-miterlimit="10" stroke-linejoin="miter" fill="none" stroke="#cbb369" d="M19237 5972H15982L19291 5968ZM15982 5972 19291 5968H15921Z"/>
<path transform="matrix(.03,0,0,-.03,14,547)" d="M19291 5968H15921L19490 5950ZM15921 5968 19490 5950H15730Z" fill="#cbb369"/>
<path transform="matrix(.03,0,0,-.03,14,547)" stroke-linecap="butt" stroke-miterlimit="10" stroke-linejoin="miter" fill="none" stroke="#cbb369" d="M19291 5968H15921L19490 5950ZM15921 5968 19490 5950H15730Z"/>
<path transform="matrix(.03,0,0,-.03,14,547)" d="M19490 5950H15730L19568 5942ZM15730 5950 19568 5942H15643Z" fill="#cbb369"/>
<path transform="matrix(.03,0,0,-.03,14,547)" stroke-linecap="butt" stroke-miterlimit="10" stroke-linejoin="miter" fill="none" stroke="#cbb369" d="M19490 5950H15730L19568 5942ZM15730 5950 19568 5942H15643Z"/>
<path transform="matrix(.03,0,0,-.03,14,547)" d="M19568 5942H15643L19743 5924ZM15643 5942 19743 5924H15477Z" fill="#cbb369"/>
<path transform="matrix(.03,0,0,-.03,14,547)" stroke-linecap="butt" stroke-miterlimit="10" stroke-linejoin="miter" fill="none" stroke="#cbb369" d="M19568 5942H15643L19743 5924ZM15643 5942 19743 5924H15477Z"/>
<path transform="matrix(.03,0,0,-.03,14,547)" d="M19743 5924H15477L19845 5912ZM15477 5924 19845 5912H15366Z" fill="#cbb369"/>
<path transform="matrix(.03,0,0,-.03,14,547)" stroke-linecap="butt" stroke-miterlimit="10" stroke-linejoin="miter" fill="none" stroke="#cbb369" d="M19743 5924H15477L19845 5912ZM15477 5924 19845 5912H15366Z"/>
<path transform="matrix(.03,0,0,-.03,14,547)" d="M19845 5912H15366L19995 5895ZM15366 5912 19995 5895H15224Z" fill="#cbb369"/>
<path transform="matrix(.03,0,0,-.03,14,547)" stroke-linecap="butt" stroke-miterlimit="10" stroke-linejoin="miter" fill="none" stroke="#cbb369" d="M19845 5912H15366L19995 5895ZM15366 5912 19995 5895H15224Z"/>
<path transform="matrix(.03,0,0,-.03,14,547)" d="M19995 5895H15224L20122 5878ZM15224 5895 20122 5878H15090Z" fill="#cbb369"/>
<path transform="matrix(.03,0,0,-.03,14,547)" stroke-linecap="butt" stroke-miterlimit="10" stroke-linejoin="miter" fill="none" stroke="#cbb369" d="M19995 5895H15224L20122 5878ZM15224 5895 20122 5878H15090Z"/>
<path transform="matrix(.03,0,0,-.03,14,547)" d="M20122 5878H15090L20247 5862ZM15090 5878 20247 5862H14972Z" fill="#cbb369"/>
<path transform="matrix(.03,0,0,-.03,14,547)" stroke-linecap="butt" stroke-miterlimit="10" stroke-linejoin="miter" fill="none" stroke="#cbb369" d="M20122 5878H15090L20247 5862ZM15090 5878 20247 5862H14972Z"/>
<path transform="matrix(.03,0,0,-.03,14,547)" d="M20247 5862H14972L20399 5841ZM14972 5862 20399 5841H14814Z" fill="#cbb369"/>
<path transform="matrix(.03,0,0,-.03,14,547)" stroke-linecap="butt" stroke-miterlimit="10" stroke-linejoin="miter" fill="none" stroke="#cbb369" d="M20247 5862H14972L20399 5841ZM14972 5862 20399 5841H14814Z"/>
<path transform="matrix(.03,0,0,-.03,14,547)" d="M20399 5841H14814L20499 5827ZM14814 5841 20499 5827H14719Z" fill="#cbb369"/>
<path transform="matrix(.03,0,0,-.03,14,547)" stroke-linecap="butt" stroke-miterlimit="10" stroke-linejoin="miter" fill="none" stroke="#cbb369" d="M20399 5841H14814L20499 5827ZM14814 5841 20499 5827H14719Z"/>
<path transform="matrix(.03,0,0,-.03,14,547)" d="M20499 5827H14719L20675 5799ZM14719 5827 20675 5799H14538Z" fill="#cbb369"/>
<path transform="matrix(.03,0,0,-.03,14,547)" stroke-linecap="butt" stroke-miterlimit="10" stroke-linejoin="miter" fill="none" stroke="#cbb369" d="M20499 5827H14719L20675 5799ZM14719 5827 20675 5799H14538Z"/>
<path transform="matrix(.03,0,0,-.03,14,547)" d="M20675 5799H14538L20750 5788ZM14538 5799 20750 5788H14468Z" fill="#cbb369"/>
<path transform="matrix(.03,0,0,-.03,14,547)" stroke-linecap="butt" stroke-miterlimit="10" stroke-linejoin="miter" fill="none" stroke="#cbb369" d="M20675 5799H14538L20750 5788ZM14538 5799 20750 5788H14468Z"/>
<path transform="matrix(.03,0,0,-.03,14,547)" d="M20750 5788H14468L20951 5754ZM14468 5788 20951 5754H14263Z" fill="#cbb369"/>
<path transform="matrix(.03,0,0,-.03,14,547)" stroke-linecap="butt" stroke-miterlimit="10" stroke-linejoin="miter" fill="none" stroke="#cbb369" d="M20750 5788H14468L20951 5754ZM14468 5788 20951 5754H14263Z"/>
<path transform="matrix(.03,0,0,-.03,14,547)" d="M20951 5754H14263L21001 5746ZM14263 5754 21001 5746H14216Z" fill="#cbb369"/>
<path transform="matrix(.03,0,0,-.03,14,547)" stroke-linecap="butt" stroke-miterlimit="10" stroke-linejoin="miter" fill="none" stroke="#cbb369" d="M20951 5754H14263L21001 5746ZM14263 5754 21001 5746H14216Z"/>
<path transform="matrix(.03,0,0,-.03,14,547)" d="M21001 5746H14216L21226 5705ZM14216 5746 21226 5705H13989Z" fill="#cbb369"/>
<path transform="matrix(.03,0,0,-.03,14,547)" stroke-linecap="butt" stroke-miterlimit="10" stroke-linejoin="miter" fill="none" stroke="#cbb369" d="M21001 5746H14216L21226 5705ZM14216 5746 21226 5705H13989Z"/>
<path transform="matrix(.03,0,0,-.03,14,547)" d="M21226 5705H13989L21251 5700ZM13989 5705 21251 5700H13965Z" fill="#cbb369"/>
<path transform="matrix(.03,0,0,-.03,14,547)" stroke-linecap="butt" stroke-miterlimit="10" stroke-linejoin="miter" fill="none" stroke="#cbb369" d="M21226 5705H13989L21251 5700ZM13989 5705 21251 5700H13965Z"/>
<path transform="matrix(.03,0,0,-.03,14,547)" d="M21251 5700H13965L21500 5652ZM13965 5700 21500 5652H13715Z" fill="#cbb369"/>
<path transform="matrix(.03,0,0,-.03,14,547)" stroke-linecap="butt" stroke-miterlimit="10" stroke-linejoin="miter" fill="none" stroke="#cbb369" d="M21251 5700H13965L21500 5652ZM13965 5700 21500 5652H13715Z"/>
<path transform="matrix(.03,0,0,-.03,14,547)" stroke-width="19" stroke-linecap="round" stroke-linejoin="round" fill="none" stroke="#cbb369" d="M18984 16273 11560 11909 12160 11624 17034 14254V13065L17505 13290V14528L18197 14930V13619L18984 13993V16273"/>
<path transform="matrix(.03,0,0,-.03,14,547)" stroke-width="19" stroke-linecap="round" stroke-linejoin="round" fill="none" stroke="#cbb369" d="M13558 10391V9111L17034 11394V6032L16755 6022 16477 6008 16199 5990 15921 5968 15643 5942 15366 5912 15090 5878 14814 5841 14538 5799 14263 5754 13989 5705 13715 5652H21500L21223 5705 20945 5755 20666 5801 20387 5843 20107 5881 19827 5915 19546 5944 19265 5970 18984 5992V13698L13558 10391"/>
<path transform="matrix(.03,0,0,-.03,14,547)" stroke-width="19" stroke-linecap="round" stroke-linejoin="round" fill="none" stroke="#cbb369" d="M18197 12159 17505 11704V9814L18197 9235V12159"/>
<path transform="matrix(.03,0,0,-.03,14,547)" stroke-width="19" stroke-linecap="round" stroke-linejoin="round" fill="none" stroke="#cbb369" d="M17505 9248 17946 8880 17505 8591V9248"/>
<path transform="matrix(.03,0,0,-.03,14,547)" stroke-width="19" stroke-linecap="round" stroke-linejoin="round" fill="none" stroke="#cbb369" d="M17505 8182V6040L17851 6038 18197 6031V8636L17505 8182"/>
<path transform="matrix(.03,0,0,-.03,14,547)" d="M8132 15842 10405 14616H8132Z" fill="#323a3d"/>
<path transform="matrix(.03,0,0,-.03,14,547)" stroke-linecap="round" stroke-miterlimit="10" stroke-linejoin="miter" fill="none" stroke="#323a3d" d="M8132 15842 10405 14616H8132Z"/>
<path transform="matrix(.03,0,0,-.03,14,547)" d="M10405 14616H8919L11150 14214ZM8919 14616 11150 14214H9611Z" fill="#323a3d"/>
<path transform="matrix(.03,0,0,-.03,14,547)" stroke-linecap="round" stroke-miterlimit="10" stroke-linejoin="miter" fill="none" stroke="#323a3d" d="M10405 14616H8919L11150 14214ZM8919 14616 11150 14214H9611Z"/>
<path transform="matrix(.03,0,0,-.03,14,547)" d="M11150 14214H9611L11658 13939ZM9611 14214 11658 13939H9611Z" fill="#323a3d"/>
<path transform="matrix(.03,0,0,-.03,14,547)" stroke-linecap="round" stroke-miterlimit="10" stroke-linejoin="miter" fill="none" stroke="#323a3d" d="M11150 14214H9611L11658 13939ZM9611 14214 11658 13939H9611Z"/>
<path transform="matrix(.03,0,0,-.03,14,547)" d="M8919 14616H8132L8919 13540ZM8132 14616 8919 13540H8132Z" fill="#323a3d"/>
<path transform="matrix(.03,0,0,-.03,14,547)" stroke-linecap="round" stroke-miterlimit="10" stroke-linejoin="miter" fill="none" stroke="#323a3d" d="M8919 14616H8132L8919 13540ZM8132 14616 8919 13540H8132Z"/>
<path transform="matrix(.03,0,0,-.03,14,547)" d="M8132 13226 8247 13166H8132Z" fill="#323a3d"/>
<path transform="matrix(.03,0,0,-.03,14,547)" stroke-linecap="round" stroke-miterlimit="10" stroke-linejoin="miter" fill="none" stroke="#323a3d" d="M8132 13226 8247 13166H8132Z"/>
<path transform="matrix(.03,0,0,-.03,14,547)" d="M8132 13540 8792 13226H8919ZM8792 13226H8919V13166Z" fill="#323a3d"/>
<path transform="matrix(.03,0,0,-.03,14,547)" stroke-linecap="round" stroke-miterlimit="10" stroke-linejoin="miter" fill="none" stroke="#323a3d" d="M8132 13540 8792 13226H8919ZM8792 13226H8919V13166Z"/>
<path transform="matrix(.03,0,0,-.03,14,547)" d="M8132 13540H8919V13226Z" fill="#323a3d"/>
<path transform="matrix(.03,0,0,-.03,14,547)" stroke-linecap="round" stroke-miterlimit="10" stroke-linejoin="miter" fill="none" stroke="#323a3d" d="M8132 13540H8919V13226Z"/>
<path transform="matrix(.03,0,0,-.03,14,547)" d="M11658 13939H10082L13255 13077ZM10082 13939 13255 13077H11549Z" fill="#323a3d"/>
<path transform="matrix(.03,0,0,-.03,14,547)" stroke-linecap="round" stroke-miterlimit="10" stroke-linejoin="miter" fill="none" stroke="#323a3d" d="M11658 13939H10082L13255 13077ZM10082 13939 13255 13077H11549Z"/>
<path transform="matrix(.03,0,0,-.03,14,547)" d="M9611 13939V12837H10082ZM9611 12837H10082V12612Z" fill="#323a3d"/>
<path transform="matrix(.03,0,0,-.03,14,547)" stroke-linecap="round" stroke-miterlimit="10" stroke-linejoin="miter" fill="none" stroke="#323a3d" d="M9611 13939V12837H10082ZM9611 12837H10082V12612Z"/>
<path transform="matrix(.03,0,0,-.03,14,547)" d="M9611 13939H10082V12837Z" fill="#323a3d"/>
<path transform="matrix(.03,0,0,-.03,14,547)" stroke-linecap="round" stroke-miterlimit="10" stroke-linejoin="miter" fill="none" stroke="#323a3d" d="M9611 13939H10082V12837Z"/>
<path transform="matrix(.03,0,0,-.03,14,547)" d="M11549 13077 12341 12612H12480ZM12341 12612H12480L12411 12571Z" fill="#323a3d"/>
<path transform="matrix(.03,0,0,-.03,14,547)" stroke-linecap="round" stroke-miterlimit="10" stroke-linejoin="miter" fill="none" stroke="#323a3d" d="M11549 13077 12341 12612H12480ZM12341 12612H12480L12411 12571Z"/>
<path transform="matrix(.03,0,0,-.03,14,547)" d="M11549 13077H13255L12480 12612Z" fill="#323a3d"/>
<path transform="matrix(.03,0,0,-.03,14,547)" stroke-linecap="round" stroke-miterlimit="10" stroke-linejoin="miter" fill="none" stroke="#323a3d" d="M11549 13077H13255L12480 12612Z"/>
<path transform="matrix(.03,0,0,-.03,14,547)" d="M8247 13166H8132L11077 11687ZM8132 13166 11077 11687H8132Z" fill="#323a3d"/>
<path transform="matrix(.03,0,0,-.03,14,547)" stroke-linecap="round" stroke-miterlimit="10" stroke-linejoin="miter" fill="none" stroke="#323a3d" d="M8247 13166H8132L11077 11687ZM8132 13166 11077 11687H8132Z"/>
<path transform="matrix(.03,0,0,-.03,14,547)" d="M11077 11687H8919L11947 11233ZM8919 11687 11947 11233H9611Z" fill="#323a3d"/>
<path transform="matrix(.03,0,0,-.03,14,547)" stroke-linecap="round" stroke-miterlimit="10" stroke-linejoin="miter" fill="none" stroke="#323a3d" d="M11077 11687H8919L11947 11233ZM8919 11687 11947 11233H9611Z"/>
<path transform="matrix(.03,0,0,-.03,14,547)" d="M11947 11233H9611L12541 10923ZM9611 11233 12541 10923H9611Z" fill="#323a3d"/>
<path transform="matrix(.03,0,0,-.03,14,547)" stroke-linecap="round" stroke-miterlimit="10" stroke-linejoin="miter" fill="none" stroke="#323a3d" d="M11947 11233H9611L12541 10923ZM9611 11233 12541 10923H9611Z"/>
<path transform="matrix(.03,0,0,-.03,14,547)" d="M12541 10923H10082L13558 10391ZM10082 10923 13558 10391H11103Z" fill="#323a3d"/>
<path transform="matrix(.03,0,0,-.03,14,547)" stroke-linecap="round" stroke-miterlimit="10" stroke-linejoin="miter" fill="none" stroke="#323a3d" d="M12541 10923H10082L13558 10391ZM10082 10923 13558 10391H11103Z"/>
<path transform="matrix(.03,0,0,-.03,14,547)" d="M11103 10391 12993 9406H13558ZM12993 9406H13558V9111Z" fill="#323a3d"/>
<path transform="matrix(.03,0,0,-.03,14,547)" stroke-linecap="round" stroke-miterlimit="10" stroke-linejoin="miter" fill="none" stroke="#323a3d" d="M11103 10391 12993 9406H13558ZM12993 9406H13558V9111Z"/>
<path transform="matrix(.03,0,0,-.03,14,547)" d="M11103 10391H13558V9406Z" fill="#323a3d"/>
<path transform="matrix(.03,0,0,-.03,14,547)" stroke-linecap="round" stroke-miterlimit="10" stroke-linejoin="miter" fill="none" stroke="#323a3d" d="M11103 10391H13558V9406Z"/>
<path transform="matrix(.03,0,0,-.03,14,547)" d="M10082 10923H9611L10082 9406ZM9611 10923 10082 9406H9611Z" fill="#323a3d"/>
<path transform="matrix(.03,0,0,-.03,14,547)" stroke-linecap="round" stroke-miterlimit="10" stroke-linejoin="miter" fill="none" stroke="#323a3d" d="M10082 10923H9611L10082 9406ZM9611 10923 10082 9406H9611Z"/>
<path transform="matrix(.03,0,0,-.03,14,547)" d="M10082 9406H9611L10082 8839ZM9611 9406 10082 8839H8934Z" fill="#323a3d"/>
<path transform="matrix(.03,0,0,-.03,14,547)" stroke-linecap="round" stroke-miterlimit="10" stroke-linejoin="miter" fill="none" stroke="#323a3d" d="M10082 9406H9611L10082 8839ZM9611 9406 10082 8839H8934Z"/>
<path transform="matrix(.03,0,0,-.03,14,547)" d="M10082 8839H9611L10082 8826ZM9611 8839 10082 8826H9611Z" fill="#323a3d"/>
<path transform="matrix(.03,0,0,-.03,14,547)" stroke-linecap="round" stroke-miterlimit="10" stroke-linejoin="miter" fill="none" stroke="#323a3d" d="M10082 8839H9611L10082 8826ZM9611 8839 10082 8826H9611Z"/>
<path transform="matrix(.03,0,0,-.03,14,547)" d="M9611 8839H8934L9595 8826ZM8934 8839 9595 8826H8919Z" fill="#323a3d"/>
<path transform="matrix(.03,0,0,-.03,14,547)" stroke-linecap="round" stroke-miterlimit="10" stroke-linejoin="miter" fill="none" stroke="#323a3d" d="M9611 8839H8934L9595 8826ZM8934 8839 9595 8826H8919Z"/>
<path transform="matrix(.03,0,0,-.03,14,547)" d="M8919 11687H8132L8919 8826ZM8132 11687 8919 8826H8132Z" fill="#323a3d"/>
<path transform="matrix(.03,0,0,-.03,14,547)" stroke-linecap="round" stroke-miterlimit="10" stroke-linejoin="miter" fill="none" stroke="#323a3d" d="M8919 11687H8132L8919 8826ZM8132 11687 8919 8826H8132Z"/>
<path transform="matrix(.03,0,0,-.03,14,547)" d="M9595 8826H8132L9170 8471ZM8132 8826 9170 8471H8132Z" fill="#323a3d"/>
<path transform="matrix(.03,0,0,-.03,14,547)" stroke-linecap="round" stroke-miterlimit="10" stroke-linejoin="miter" fill="none" stroke="#323a3d" d="M9595 8826H8132L9170 8471ZM8132 8826 9170 8471H8132Z"/>
<path transform="matrix(.03,0,0,-.03,14,547)" d="M10082 8826H9611L10082 8227ZM9611 8826 10082 8227H9611Z" fill="#323a3d"/>
<path transform="matrix(.03,0,0,-.03,14,547)" stroke-linecap="round" stroke-miterlimit="10" stroke-linejoin="miter" fill="none" stroke="#323a3d" d="M10082 8826H9611L10082 8227ZM9611 8826 10082 8227H9611Z"/>
<path transform="matrix(.03,0,0,-.03,14,547)" d="M9170 8471H8132L9541 8227ZM8132 8471 9541 8227H8132Z" fill="#323a3d"/>
<path transform="matrix(.03,0,0,-.03,14,547)" stroke-linecap="round" stroke-miterlimit="10" stroke-linejoin="miter" fill="none" stroke="#323a3d" d="M9170 8471H8132L9541 8227ZM8132 8471 9541 8227H8132Z"/>
<path transform="matrix(.03,0,0,-.03,14,547)" d="M10082 8227H9611L10082 8182ZM9611 8227 10082 8182H9611Z" fill="#323a3d"/>
<path transform="matrix(.03,0,0,-.03,14,547)" stroke-linecap="round" stroke-miterlimit="10" stroke-linejoin="miter" fill="none" stroke="#323a3d" d="M10082 8227H9611L10082 8182ZM9611 8227 10082 8182H9611Z"/>
<path transform="matrix(.03,0,0,-.03,14,547)" d="M9541 8227H8919L9611 8182ZM8919 8227 9611 8182H8988Z" fill="#323a3d"/>
<path transform="matrix(.03,0,0,-.03,14,547)" stroke-linecap="round" stroke-miterlimit="10" stroke-linejoin="miter" fill="none" stroke="#323a3d" d="M9541 8227H8919L9611 8182ZM8919 8227 9611 8182H8988Z"/>
<path transform="matrix(.03,0,0,-.03,14,547)" d="M10082 8182H8988L10082 7773ZM8988 8182 10082 7773H9611Z" fill="#323a3d"/>
<path transform="matrix(.03,0,0,-.03,14,547)" stroke-linecap="round" stroke-miterlimit="10" stroke-linejoin="miter" fill="none" stroke="#323a3d" d="M10082 8182H8988L10082 7773ZM8988 8182 10082 7773H9611Z"/>
<path transform="matrix(.03,0,0,-.03,14,547)" d="M9260 6041 9602 6040H8919Z" fill="#323a3d"/>
<path transform="matrix(.03,0,0,-.03,14,547)" stroke-linecap="round" stroke-miterlimit="10" stroke-linejoin="miter" fill="none" stroke="#323a3d" d="M9260 6041 9602 6040H8919Z"/>
<path transform="matrix(.03,0,0,-.03,14,547)" d="M10082 7773H9611L10082 6040ZM9611 7773 10082 6040H9602Z" fill="#323a3d"/>
<path transform="matrix(.03,0,0,-.03,14,547)" stroke-linecap="round" stroke-miterlimit="10" stroke-linejoin="miter" fill="none" stroke="#323a3d" d="M10082 7773H9611L10082 6040ZM9611 7773 10082 6040H9602Z"/>
<path transform="matrix(.03,0,0,-.03,14,547)" d="M8919 8227H8132L8919 6040ZM8132 8227 8919 6040H8132Z" fill="#323a3d"/>
<path transform="matrix(.03,0,0,-.03,14,547)" stroke-linecap="round" stroke-miterlimit="10" stroke-linejoin="miter" fill="none" stroke="#323a3d" d="M8919 8227H8132L8919 6040ZM8132 8227 8919 6040H8132Z"/>
<path transform="matrix(.03,0,0,-.03,14,547)" d="M10082 6040H8132L10082 6032ZM8132 6040 10082 6032H8132Z" fill="#323a3d"/>
<path transform="matrix(.03,0,0,-.03,14,547)" stroke-linecap="round" stroke-miterlimit="10" stroke-linejoin="miter" fill="none" stroke="#323a3d" d="M10082 6040H8132L10082 6032ZM8132 6040 10082 6032H8132Z"/>
<path transform="matrix(.03,0,0,-.03,14,547)" d="M10082 6032H8132L10361 6022ZM8132 6032 10361 6022H8132Z" fill="#323a3d"/>
<path transform="matrix(.03,0,0,-.03,14,547)" stroke-linecap="round" stroke-miterlimit="10" stroke-linejoin="miter" fill="none" stroke="#323a3d" d="M10082 6032H8132L10361 6022ZM8132 6032 10361 6022H8132Z"/>
<path transform="matrix(.03,0,0,-.03,14,547)" d="M10361 6022H8132L10639 6008ZM8132 6022 10639 6008H8132Z" fill="#323a3d"/>
<path transform="matrix(.03,0,0,-.03,14,547)" stroke-linecap="round" stroke-miterlimit="10" stroke-linejoin="miter" fill="none" stroke="#323a3d" d="M10361 6022H8132L10639 6008ZM8132 6022 10639 6008H8132Z"/>
<path transform="matrix(.03,0,0,-.03,14,547)" d="M10639 6008H8132L10881 5992ZM8132 6008 10881 5992H8132Z" fill="#323a3d"/>
<path transform="matrix(.03,0,0,-.03,14,547)" stroke-linecap="round" stroke-miterlimit="10" stroke-linejoin="miter" fill="none" stroke="#323a3d" d="M10639 6008H8132L10881 5992ZM8132 6008 10881 5992H8132Z"/>
<path transform="matrix(.03,0,0,-.03,14,547)" d="M10881 5992H8132L10917 5990ZM8132 5992 10917 5990H8102Z" fill="#323a3d"/>
<path transform="matrix(.03,0,0,-.03,14,547)" stroke-linecap="round" stroke-miterlimit="10" stroke-linejoin="miter" fill="none" stroke="#323a3d" d="M10881 5992H8132L10917 5990ZM8132 5992 10917 5990H8102Z"/>
<path transform="matrix(.03,0,0,-.03,14,547)" d="M10917 5990H8102L11134 5972ZM8102 5990 11134 5972H7879Z" fill="#323a3d"/>
<path transform="matrix(.03,0,0,-.03,14,547)" stroke-linecap="round" stroke-miterlimit="10" stroke-linejoin="miter" fill="none" stroke="#323a3d" d="M10917 5990H8102L11134 5972ZM8102 5990 11134 5972H7879Z"/>
<path transform="matrix(.03,0,0,-.03,14,547)" d="M11134 5972H7879L11195 5968ZM7879 5972 11195 5968H7825Z" fill="#323a3d"/>
<path transform="matrix(.03,0,0,-.03,14,547)" stroke-linecap="round" stroke-miterlimit="10" stroke-linejoin="miter" fill="none" stroke="#323a3d" d="M11134 5972H7879L11195 5968ZM7879 5972 11195 5968H7825Z"/>
<path transform="matrix(.03,0,0,-.03,14,547)" d="M11195 5968H7825L11386 5950ZM7825 5968 11386 5950H7626Z" fill="#323a3d"/>
<path transform="matrix(.03,0,0,-.03,14,547)" stroke-linecap="round" stroke-miterlimit="10" stroke-linejoin="miter" fill="none" stroke="#323a3d" d="M11195 5968H7825L11386 5950ZM7825 5968 11386 5950H7626Z"/>
<path transform="matrix(.03,0,0,-.03,14,547)" d="M11386 5950H7626L11473 5942ZM7626 5950 11473 5942H7548Z" fill="#323a3d"/>
<path transform="matrix(.03,0,0,-.03,14,547)" stroke-linecap="round" stroke-miterlimit="10" stroke-linejoin="miter" fill="none" stroke="#323a3d" d="M11386 5950H7626L11473 5942ZM7626 5950 11473 5942H7548Z"/>
<path transform="matrix(.03,0,0,-.03,14,547)" d="M11473 5942H7548L11639 5924ZM7548 5942 11639 5924H7373Z" fill="#323a3d"/>
<path transform="matrix(.03,0,0,-.03,14,547)" stroke-linecap="round" stroke-miterlimit="10" stroke-linejoin="miter" fill="none" stroke="#323a3d" d="M11473 5942H7548L11639 5924ZM7548 5942 11639 5924H7373Z"/>
<path transform="matrix(.03,0,0,-.03,14,547)" d="M11639 5924H7373L11750 5912ZM7373 5924 11750 5912H7271Z" fill="#323a3d"/>
<path transform="matrix(.03,0,0,-.03,14,547)" stroke-linecap="round" stroke-miterlimit="10" stroke-linejoin="miter" fill="none" stroke="#323a3d" d="M11639 5924H7373L11750 5912ZM7373 5924 11750 5912H7271Z"/>
<path transform="matrix(.03,0,0,-.03,14,547)" d="M11750 5912H7271L11892 5895ZM7271 5912 11892 5895H7121Z" fill="#323a3d"/>
<path transform="matrix(.03,0,0,-.03,14,547)" stroke-linecap="round" stroke-miterlimit="10" stroke-linejoin="miter" fill="none" stroke="#323a3d" d="M11750 5912H7271L11892 5895ZM7271 5912 11892 5895H7121Z"/>
<path transform="matrix(.03,0,0,-.03,14,547)" d="M11892 5895H7121L12026 5878ZM7121 5895 12026 5878H6994Z" fill="#323a3d"/>
<path transform="matrix(.03,0,0,-.03,14,547)" stroke-linecap="round" stroke-miterlimit="10" stroke-linejoin="miter" fill="none" stroke="#323a3d" d="M11892 5895H7121L12026 5878ZM7121 5895 12026 5878H6994Z"/>
<path transform="matrix(.03,0,0,-.03,14,547)" d="M12026 5878H6994L12144 5862ZM6994 5878 12144 5862H6869Z" fill="#323a3d"/>
<path transform="matrix(.03,0,0,-.03,14,547)" stroke-linecap="round" stroke-miterlimit="10" stroke-linejoin="miter" fill="none" stroke="#323a3d" d="M12026 5878H6994L12144 5862ZM6994 5878 12144 5862H6869Z"/>
<path transform="matrix(.03,0,0,-.03,14,547)" d="M12144 5862H6869L12302 5841ZM6869 5862 12302 5841H6717Z" fill="#323a3d"/>
<path transform="matrix(.03,0,0,-.03,14,547)" stroke-linecap="round" stroke-miterlimit="10" stroke-linejoin="miter" fill="none" stroke="#323a3d" d="M12144 5862H6869L12302 5841ZM6869 5862 12302 5841H6717Z"/>
<path transform="matrix(.03,0,0,-.03,14,547)" d="M12302 5841H6717L12397 5827ZM6717 5841 12397 5827H6617Z" fill="#323a3d"/>
<path transform="matrix(.03,0,0,-.03,14,547)" stroke-linecap="round" stroke-miterlimit="10" stroke-linejoin="miter" fill="none" stroke="#323a3d" d="M12302 5841H6717L12397 5827ZM6717 5841 12397 5827H6617Z"/>
<path transform="matrix(.03,0,0,-.03,14,547)" d="M12397 5827H6617L12578 5799ZM6617 5827 12578 5799H6441Z" fill="#323a3d"/>
<path transform="matrix(.03,0,0,-.03,14,547)" stroke-linecap="round" stroke-miterlimit="10" stroke-linejoin="miter" fill="none" stroke="#323a3d" d="M12397 5827H6617L12578 5799ZM6617 5827 12578 5799H6441Z"/>
<path transform="matrix(.03,0,0,-.03,14,547)" d="M12578 5799H6441L12648 5788ZM6441 5799 12648 5788H6366Z" fill="#323a3d"/>
<path transform="matrix(.03,0,0,-.03,14,547)" stroke-linecap="round" stroke-miterlimit="10" stroke-linejoin="miter" fill="none" stroke="#323a3d" d="M12578 5799H6441L12648 5788ZM6441 5799 12648 5788H6366Z"/>
<path transform="matrix(.03,0,0,-.03,14,547)" d="M12648 5788H6366L12853 5754ZM6366 5788 12853 5754H6165Z" fill="#323a3d"/>
<path transform="matrix(.03,0,0,-.03,14,547)" stroke-linecap="round" stroke-miterlimit="10" stroke-linejoin="miter" fill="none" stroke="#323a3d" d="M12648 5788H6366L12853 5754ZM6366 5788 12853 5754H6165Z"/>
<path transform="matrix(.03,0,0,-.03,14,547)" d="M12853 5754H6165L12900 5746ZM6165 5754 12900 5746H6115Z" fill="#323a3d"/>
<path transform="matrix(.03,0,0,-.03,14,547)" stroke-linecap="round" stroke-miterlimit="10" stroke-linejoin="miter" fill="none" stroke="#323a3d" d="M12853 5754H6165L12900 5746ZM6165 5754 12900 5746H6115Z"/>
<path transform="matrix(.03,0,0,-.03,14,547)" d="M12900 5746H6115L13127 5705ZM6115 5746 13127 5705H5890Z" fill="#323a3d"/>
<path transform="matrix(.03,0,0,-.03,14,547)" stroke-linecap="round" stroke-miterlimit="10" stroke-linejoin="miter" fill="none" stroke="#323a3d" d="M12900 5746H6115L13127 5705ZM6115 5746 13127 5705H5890Z"/>
<path transform="matrix(.03,0,0,-.03,14,547)" d="M13127 5705H5890L13151 5700ZM5890 5705 13151 5700H5865Z" fill="#323a3d"/>
<path transform="matrix(.03,0,0,-.03,14,547)" stroke-linecap="round" stroke-miterlimit="10" stroke-linejoin="miter" fill="none" stroke="#323a3d" d="M13127 5705H5890L13151 5700ZM5890 5705 13151 5700H5865Z"/>
<path transform="matrix(.03,0,0,-.03,14,547)" d="M13151 5700H5865L13401 5652ZM5865 5700 13401 5652H5616Z" fill="#323a3d"/>
<path transform="matrix(.03,0,0,-.03,14,547)" stroke-linecap="round" stroke-miterlimit="10" stroke-linejoin="miter" fill="none" stroke="#323a3d" d="M13151 5700H5865L13401 5652ZM5865 5700 13401 5652H5616Z"/>
<path transform="matrix(.03,0,0,-.03,14,547)" stroke-width="19" stroke-linecap="round" stroke-linejoin="round" fill="none" stroke="#323a3d" d="M8132 13540V15842L13255 13077 12411 12571 10082 13939V12612L9611 12837V14214L8919 14616V13166L8132 13540"/>
<path transform="matrix(.03,0,0,-.03,14,547)" stroke-width="19" stroke-linecap="round" stroke-linejoin="round" fill="none" stroke="#323a3d" d="M13558 10391V9111L10082 10923V6032L10361 6022 10639 6008 10917 5990 11195 5968 11473 5942 11750 5912 12026 5878 12302 5841 12578 5799 12853 5754 13127 5705 13401 5652H5616L5893 5705 6171 5755 6450 5801 6729 5843 7009 5881 7289 5915 7570 5944 7851 5970 8132 5992V13226L13558 10391"/>
<path transform="matrix(.03,0,0,-.03,14,547)" stroke-width="19" stroke-linecap="round" stroke-linejoin="round" fill="none" stroke="#323a3d" d="M8919 11687 9611 11233V9406L8919 8826V11687"/>
<path transform="matrix(.03,0,0,-.03,14,547)" stroke-width="19" stroke-linecap="round" stroke-linejoin="round" fill="none" stroke="#323a3d" d="M9611 8839 9170 8471 9611 8182V8839"/>
<path transform="matrix(.03,0,0,-.03,14,547)" stroke-width="19" stroke-linecap="round" stroke-linejoin="round" fill="none" stroke="#323a3d" d="M9611 7773 9602 6040 9260 6041 8919 6040V8227L9611 7773"/>
<path transform="matrix(.03,0,0,-.03,14,547)" d="M22242 769 24507 731H22242ZM24507 731H22242V693Z" fill="#8d8e92"/>
<path transform="matrix(.03,0,0,-.03,14,547)" stroke-linecap="round" stroke-miterlimit="10" stroke-linejoin="miter" fill="none" stroke="#8d8e92" d="M22242 769 24507 731H22242ZM24507 731H22242V693Z"/>
</g>
</g>
<g clip-path="url(#clip_2)">
<g inkscape:groupmode="layer" inkscape:label="0">
<text fill="#323a3d" xml:space="preserve" transform="matrix(.03 0 -0 .03 14 547)" font-size="3303.331" font-family="Franklin Gothic Demi Cond"><tspan y="-2134" x="2714 5191.4987 6711.031 8286.72 9862.408 10648.601 12224.289 13238.412 15151.041 16670.575 18246.264 19597.327">ModularHouse</tspan></text>
</g>
</g>
<g clip-path="url(#clip_3)">
<text fill="#699447" xml:space="preserve" transform="matrix(.03 0 -0 .03 14 547)" font-size="3303.331" font-family="Franklin Gothic Demi Cond"><tspan y="-2134" x="21115 21957.35 22743.543">.ie</tspan></text>
</g>
<g clip-path="url(#clip_4)">
<g inkscape:groupmode="layer" inkscape:label="0">
<text fill="#8d8e92" xml:space="preserve" transform="matrix(.03 0 -0 .03 14 547)" font-size="919.668" font-family="TechnicLite"><tspan y="-417" x="5279">S</tspan></text>
</g>
</g>
<g clip-path="url(#clip_5)">
<text fill="#8d8e92" xml:space="preserve" transform="matrix(.03 0 -0 .03 14 547)" font-size="459.834" font-family="TechnicLite"><tspan y="-417" x="5812"> </tspan></text>
<text fill="#8d8e92" xml:space="preserve" transform="matrix(.03 0 -0 .03 14 547)" font-size="919.677" font-family="TechnicLite"><tspan y="-417" x="5991">T</tspan></text>
<text fill="#8d8e92" xml:space="preserve" transform="matrix(.03 0 -0 .03 14 547)" font-size="459.829" font-family="TechnicLite"><tspan y="-417" x="6562"> </tspan></text>
<text fill="#8d8e92" xml:space="preserve" transform="matrix(.03 0 -0 .03 14 547)" font-size="919.677" font-family="TechnicLite"><tspan y="-417" x="6742">E</tspan></text>
<text fill="#8d8e92" xml:space="preserve" transform="matrix(.03 0 -0 .03 14 547)" font-size="459.829" font-family="TechnicLite"><tspan y="-417" x="7294"> </tspan></text>
<text fill="#8d8e92" xml:space="preserve" transform="matrix(.03 0 -0 .03 14 547)" font-size="919.686" font-family="TechnicLite"><tspan y="-417" x="7474">E</tspan></text>
<text fill="#8d8e92" xml:space="preserve" transform="matrix(.03 0 -0 .03 14 547)" font-size="459.825" font-family="TechnicLite"><tspan y="-417" x="8026"> </tspan></text>
<text fill="#8d8e92" xml:space="preserve" transform="matrix(.03 0 -0 .03 14 547)" font-size="919.686" font-family="TechnicLite"><tspan y="-417" x="8206">L</tspan></text>
<text fill="#8d8e92" xml:space="preserve" transform="matrix(.03 0 -0 .03 14 547)" font-size="459.825" font-family="TechnicLite"><tspan y="-417" x="8727 8906.792 9086.584">   </tspan></text>
<text fill="#8d8e92" xml:space="preserve" transform="matrix(.03 0 -0 .03 14 547)" font-size="919.695" font-family="TechnicLite"><tspan y="-417" x="9266">F</tspan></text>
<text fill="#8d8e92" xml:space="preserve" transform="matrix(.03 0 -0 .03 14 547)" font-size="459.82" font-family="TechnicLite"><tspan y="-417" x="9802"> </tspan></text>
<text fill="#8d8e92" xml:space="preserve" transform="matrix(.03 0 -0 .03 14 547)" font-size="919.695" font-family="TechnicLite"><tspan y="-417" x="9981">R</tspan></text>
<text fill="#8d8e92" xml:space="preserve" transform="matrix(.03 0 -0 .03 14 547)" font-size="459.82" font-family="TechnicLite"><tspan y="-417" x="10539"> </tspan></text>
<text fill="#8d8e92" xml:space="preserve" transform="matrix(.03 0 -0 .03 14 547)" font-size="919.705" font-family="TechnicLite"><tspan y="-417" x="10719">A</tspan></text>
<text fill="#8d8e92" xml:space="preserve" transform="matrix(.03 0 -0 .03 14 547)" font-size="459.815" font-family="TechnicLite"><tspan y="-417" x="11296"> </tspan></text>
<text fill="#8d8e92" xml:space="preserve" transform="matrix(.03 0 -0 .03 14 547)" font-size="919.705" font-family="TechnicLite"><tspan y="-417" x="11476">M</tspan></text>
<text fill="#8d8e92" xml:space="preserve" transform="matrix(.03 0 -0 .03 14 547)" font-size="459.815" font-family="TechnicLite"><tspan y="-417" x="12133"> </tspan></text>
<text fill="#8d8e92" xml:space="preserve" transform="matrix(.03 0 -0 .03 14 547)" font-size="919.714" font-family="TechnicLite"><tspan y="-417" x="12312">E</tspan></text>
<text fill="#8d8e92" xml:space="preserve" transform="matrix(.03 0 -0 .03 14 547)" font-size="459.811" font-family="TechnicLite"><tspan y="-417" x="12864 13043.786 13223.572">   </tspan></text>
<text fill="#8d8e92" xml:space="preserve" transform="matrix(.03 0 -0 .03 14 547)" font-size="919.714" font-family="TechnicLite"><tspan y="-417" x="13404">G</tspan></text>
<text fill="#8d8e92" xml:space="preserve" transform="matrix(.03 0 -0 .03 14 547)" font-size="459.811" font-family="TechnicLite"><tspan y="-417" x="14008"> </tspan></text>
<text fill="#8d8e92" xml:space="preserve" transform="matrix(.03 0 -0 .03 14 547)" font-size="919.723" font-family="TechnicLite"><tspan y="-417" x="14188">A</tspan></text>
<text fill="#8d8e92" xml:space="preserve" transform="matrix(.03 0 -0 .03 14 547)" font-size="459.806" font-family="TechnicLite"><tspan y="-417" x="14765"> </tspan></text>
<text fill="#8d8e92" xml:space="preserve" transform="matrix(.03 0 -0 .03 14 547)" font-size="919.723" font-family="TechnicLite"><tspan y="-417" x="14945">R</tspan></text>
<text fill="#8d8e92" xml:space="preserve" transform="matrix(.03 0 -0 .03 14 547)" font-size="459.806" font-family="TechnicLite"><tspan y="-417" x="15503"> </tspan></text>
<text fill="#8d8e92" xml:space="preserve" transform="matrix(.03 0 -0 .03 14 547)" font-size="919.732" font-family="TechnicLite"><tspan y="-417" x="15682">D</tspan></text>
<text fill="#8d8e92" xml:space="preserve" transform="matrix(.03 0 -0 .03 14 547)" font-size="459.801" font-family="TechnicLite"><tspan y="-417" x="16229"> </tspan></text>
<text fill="#8d8e92" xml:space="preserve" transform="matrix(.03 0 -0 .03 14 547)" font-size="919.732" font-family="TechnicLite"><tspan y="-417" x="16408">E</tspan></text>
<text fill="#8d8e92" xml:space="preserve" transform="matrix(.03 0 -0 .03 14 547)" font-size="459.801" font-family="TechnicLite"><tspan y="-417" x="16960"> </tspan></text>
<text fill="#8d8e92" xml:space="preserve" transform="matrix(.03 0 -0 .03 14 547)" font-size="919.741" font-family="TechnicLite"><tspan y="-417" x="17140">N</tspan></text>
<text fill="#8d8e92" xml:space="preserve" transform="matrix(.03 0 -0 .03 14 547)" font-size="459.797" font-family="TechnicLite"><tspan y="-417" x="17731 17910.782 18090.563">   </tspan></text>
<text fill="#8d8e92" xml:space="preserve" transform="matrix(.03 0 -0 .03 14 547)" font-size="919.741" font-family="TechnicLite"><tspan y="-417" x="18270">R</tspan></text>
<text fill="#8d8e92" xml:space="preserve" transform="matrix(.03 0 -0 .03 14 547)" font-size="459.797" font-family="TechnicLite"><tspan y="-417" x="18827"> </tspan></text>
<text fill="#8d8e92" xml:space="preserve" transform="matrix(.03 0 -0 .03 14 547)" font-size="919.75" font-family="TechnicLite"><tspan y="-417" x="19007">O</tspan></text>
<text fill="#8d8e92" xml:space="preserve" transform="matrix(.03 0 -0 .03 14 547)" font-size="459.792" font-family="TechnicLite"><tspan y="-417" x="19595"> </tspan></text>
<text fill="#8d8e92" xml:space="preserve" transform="matrix(.03 0 -0 .03 14 547)" font-size="919.75" font-family="TechnicLite"><tspan y="-417" x="19775">O</tspan></text>
<text fill="#8d8e92" xml:space="preserve" transform="matrix(.03 0 -0 .03 14 547)" font-size="459.792" font-family="TechnicLite"><tspan y="-417" x="20362"> </tspan></text>
<text fill="#8d8e92" xml:space="preserve" transform="matrix(.03 0 -0 .03 14 547)" font-size="919.76" font-family="TechnicLite"><tspan y="-417" x="20542">M</tspan></text>
<text fill="#8d8e92" xml:space="preserve" transform="matrix(.03 0 -0 .03 14 547)" font-size="459.788" font-family="TechnicLite"><tspan y="-417" x="21199"> </tspan></text>
<text fill="#8d8e92" xml:space="preserve" transform="matrix(.03 0 -0 .03 14 547)" font-size="919.76" font-family="TechnicLite"><tspan y="-417" x="21379">S</tspan></text>
<path transform="matrix(.03,0,0,-.03,14,547)" stroke-width="14" stroke-linecap="round" stroke-linejoin="round" fill="none" stroke="#8d8e92" d="M22242 769V693L24507 731 22242 769"/>
<path transform="matrix(.03,0,0,-.03,14,547)" d="M4874 769V731H2609ZM4874 731H2609L4874 693Z" fill="#8d8e92"/>
<path transform="matrix(.03,0,0,-.03,14,547)" stroke-linecap="round" stroke-miterlimit="10" stroke-linejoin="miter" fill="none" stroke="#8d8e92" d="M4874 769V731H2609ZM4874 731H2609L4874 693Z"/>
<path transform="matrix(.03,0,0,-.03,14,547)" stroke-width="14" stroke-linecap="round" stroke-linejoin="round" fill="none" stroke="#8d8e92" d="M4874 769V693L2609 731 4874 769"/>
<path transform="matrix(.03,0,0,-.03,14,547)" stroke-linecap="round" stroke-linejoin="round" fill="none" stroke="#000000" d="M24821 16628H2295V0H24821V16628"/>
</g>
</svg>
