<svg xmlns="http://www.w3.org/2000/svg" viewBox="0 13.850000381469727 335.3500061035156 36.70000076293945" data-asc="1" width="335.3500061035156" height="36.70000076293945"><defs/><g fill="#000000"><g transform="translate(0, 0)"><path d="M0 50L0 14.85L4.80 14.85L19.05 37.65L16.30 37.65L30.50 14.85L35.30 14.85L35.30 50L28.55 50L28.55 26.50L29.85 26.90L19.95 42.80L15.35 42.80L5.45 26.90L6.80 26.50L6.80 50L0 50ZM53.15 50.50Q49.50 50.50 46.58 48.83Q43.65 47.15 41.92 44.27Q40.20 41.40 40.20 37.85Q40.20 34.30 41.90 31.47Q43.60 28.65 46.55 26.97Q49.50 25.30 53.10 25.30Q56.80 25.30 59.73 26.97Q62.65 28.65 64.35 31.47Q66.05 34.30 66.05 37.85Q66.05 41.40 64.35 44.27Q62.65 47.15 59.73 48.83Q56.80 50.50 53.15 50.50M53.10 44.40Q54.95 44.40 56.38 43.58Q57.80 42.75 58.58 41.27Q59.35 39.80 59.35 37.90Q59.35 36 58.55 34.55Q57.75 33.10 56.35 32.27Q54.95 31.45 53.10 31.45Q51.30 31.45 49.90 32.27Q48.50 33.10 47.70 34.55Q46.90 36 46.90 37.90Q46.90 39.80 47.70 41.27Q48.50 42.75 49.90 43.58Q51.30 44.40 53.10 44.40ZM80.45 50.50Q77.10 50.50 74.45 48.85Q71.80 47.20 70.27 44.35Q68.75 41.50 68.75 37.95Q68.75 34.35 70.27 31.50Q71.80 28.65 74.42 27Q77.05 25.35 80.45 25.35Q83.05 25.35 85.13 26.40Q87.20 27.45 88.47 29.32Q89.75 31.20 89.85 33.55L89.85 42.15Q89.75 44.50 88.50 46.40Q87.25 48.30 85.15 49.40Q83.05 50.50 80.45 50.50M81.55 44.45Q83.40 44.45 84.77 43.63Q86.15 42.80 86.92 41.33Q87.70 39.85 87.70 37.90Q87.70 36 86.92 34.52Q86.15 33.05 84.77 32.22Q83.40 31.40 81.60 31.40Q79.75 31.40 78.38 32.25Q77 33.10 76.22 34.55Q75.45 36 75.45 37.90Q75.45 39.85 76.22 41.33Q77 42.80 78.40 43.63Q79.80 44.45 81.55 44.45M93.85 50L87.35 50L87.35 43.50L88.40 37.60L87.30 31.80L87.30 13.85L93.85 13.85L93.85 50ZM109.95 50.50Q106.75 50.50 104.28 49.15Q101.80 47.80 100.40 45.40Q99 43 99 39.85L99 25.85L105.60 25.85L105.60 39.70Q105.60 41.20 106.10 42.27Q106.60 43.35 107.60 43.90Q108.60 44.45 109.95 44.45Q112 44.45 113.15 43.20Q114.30 41.95 114.30 39.70L114.30 25.85L120.85 25.85L120.85 39.85Q120.85 43.05 119.47 45.45Q118.10 47.85 115.63 49.17Q113.15 50.50 109.95 50.50ZM126.05 50L126.05 13.85L132.60 13.85L132.60 50L126.05 50ZM148.50 50.50Q145.20 50.50 142.55 48.85Q139.90 47.20 138.40 44.35Q136.90 41.50 136.90 37.95Q136.90 34.35 138.40 31.50Q139.90 28.65 142.55 27Q145.20 25.35 148.50 25.35Q151.10 25.35 153.15 26.40Q155.20 27.45 156.43 29.32Q157.65 31.20 157.75 33.55L157.75 42.25Q157.65 44.65 156.43 46.50Q155.20 48.35 153.15 49.42Q151.10 50.50 148.50 50.50M149.70 44.45Q152.45 44.45 154.15 42.63Q155.85 40.80 155.85 37.90Q155.85 36 155.07 34.52Q154.30 33.05 152.93 32.22Q151.55 31.40 149.70 31.40Q147.90 31.40 146.53 32.22Q145.15 33.05 144.38 34.52Q143.60 36 143.60 37.90Q143.60 39.85 144.38 41.33Q145.15 42.80 146.53 43.63Q147.90 44.45 149.70 44.45M155.50 50L155.50 43.50L156.55 37.60L155.50 31.80L155.50 25.85L162 25.85L162 50L155.50 50ZM167.80 50L167.80 25.85L174.35 25.85L174.35 50L167.80 50M174.35 36.65L171.80 34.95Q172.25 30.50 174.40 27.92Q176.55 25.35 180.60 25.35Q182.35 25.35 183.75 25.92Q185.15 26.50 186.30 27.80L182.20 32.50Q181.65 31.90 180.88 31.60Q180.10 31.30 179.10 31.30Q177 31.30 175.68 32.63Q174.35 33.95 174.35 36.65ZM199.95 50L199.95 14.85L206.75 14.85L206.75 50L199.95 50M222.00 50L222.00 14.85L228.80 14.85L228.80 50L222.00 50M204.25 34.85L204.25 28.85L223.90 28.85L223.90 34.85L204.25 34.85ZM246.65 50.50Q243.00 50.50 240.08 48.83Q237.15 47.15 235.43 44.27Q233.70 41.40 233.70 37.85Q233.70 34.30 235.40 31.47Q237.10 28.65 240.05 26.97Q243.00 25.30 246.60 25.30Q250.30 25.30 253.23 26.97Q256.15 28.65 257.85 31.47Q259.55 34.30 259.55 37.85Q259.55 41.40 257.85 44.27Q256.15 47.15 253.23 48.83Q250.30 50.50 246.65 50.50M246.60 44.40Q248.45 44.40 249.88 43.58Q251.30 42.75 252.08 41.27Q252.85 39.80 252.85 37.90Q252.85 36 252.05 34.55Q251.25 33.10 249.85 32.27Q248.45 31.45 246.60 31.45Q244.80 31.45 243.40 32.27Q242.00 33.10 241.20 34.55Q240.40 36 240.40 37.90Q240.40 39.80 241.20 41.27Q242.00 42.75 243.40 43.58Q244.80 44.40 246.60 44.40ZM274.05 50.50Q270.85 50.50 268.38 49.15Q265.90 47.80 264.50 45.40Q263.10 43 263.10 39.85L263.10 25.85L269.70 25.85L269.70 39.70Q269.70 41.20 270.20 42.27Q270.70 43.35 271.70 43.90Q272.70 44.45 274.05 44.45Q276.10 44.45 277.25 43.20Q278.40 41.95 278.40 39.70L278.40 25.85L284.95 25.85L284.95 39.85Q284.95 43.05 283.58 45.45Q282.20 47.85 279.73 49.17Q277.25 50.50 274.05 50.50ZM298.45 50.55Q296.40 50.55 294.43 50Q292.45 49.45 290.80 48.48Q289.15 47.50 287.95 46.10L291.85 42.15Q293.10 43.55 294.75 44.25Q296.40 44.95 298.40 44.95Q300 44.95 300.82 44.50Q301.65 44.05 301.65 43.15Q301.65 42.15 300.77 41.60Q299.90 41.05 298.50 40.67Q297.10 40.30 295.57 39.83Q294.05 39.35 292.65 38.58Q291.25 37.80 290.38 36.42Q289.50 35.05 289.50 32.85Q289.50 30.55 290.63 28.85Q291.75 27.15 293.85 26.20Q295.95 25.25 298.80 25.25Q301.80 25.25 304.23 26.30Q306.65 27.35 308.25 29.45L304.30 33.40Q303.20 32.05 301.82 31.45Q300.45 30.85 298.85 30.85Q297.40 30.85 296.63 31.30Q295.85 31.75 295.85 32.55Q295.85 33.45 296.73 33.95Q297.60 34.45 299 34.83Q300.40 35.20 301.93 35.67Q303.45 36.15 304.82 37Q306.20 37.85 307.07 39.25Q307.95 40.65 307.95 42.85Q307.95 46.40 305.40 48.48Q302.85 50.55 298.45 50.55ZM323.90 50.50Q320.10 50.50 317.15 48.88Q314.20 47.25 312.47 44.40Q310.75 41.55 310.75 37.90Q310.75 34.30 312.43 31.47Q314.10 28.65 317 26.97Q319.90 25.30 323.45 25.30Q326.95 25.30 329.63 26.88Q332.30 28.45 333.82 31.18Q335.35 33.90 335.35 37.35Q335.35 38 335.27 38.67Q335.20 39.35 335 40.20L314.70 40.25L314.70 35.35L331.95 35.30L329.30 37.35Q329.20 35.20 328.52 33.75Q327.85 32.30 326.57 31.52Q325.30 30.75 323.45 30.75Q321.50 30.75 320.05 31.63Q318.60 32.50 317.82 34.08Q317.05 35.65 317.05 37.80Q317.05 40 317.88 41.63Q318.70 43.25 320.25 44.13Q321.80 45 323.85 45Q325.70 45 327.20 44.38Q328.70 43.75 329.80 42.50L333.65 46.35Q331.90 48.40 329.38 49.45Q326.85 50.50 323.90 50.50Z"/></g></g></svg>