<svg xmlns="http://www.w3.org/2000/svg" xmlns:xlink="http://www.w3.org/1999/xlink" xmlns:inkscape="http://www.inkscape.org/namespaces/inkscape" version="1.1" width="842" height="595" viewBox="0 0 842 595">
<defs>
<clipPath id="clip_1">
<path transform="matrix(.12,0,0,-.12,14,547)" d="M1512 691H5268V3467H1512V691"/>
</clipPath>
<clipPath id="clip_2">
<path transform="matrix(.12,0,0,-.12,14,547)" d="M1512 691H5268V3467H1512V691"/>
</clipPath>
<clipPath id="clip_3">
<path transform="matrix(.12,0,0,-.12,14,547)" d="M1512 691H5268V3467H1512V691"/>
</clipPath>
</defs>
<g clip-path="url(#clip_1)">
<g inkscape:groupmode="layer" inkscape:label="0">
<path transform="matrix(.12,0,0,-.12,14,547)" stroke-width="6" stroke-linecap="round" stroke-linejoin="round" fill="none" stroke="#767676" d="M2219 3119H1789"/>
<path transform="matrix(.12,0,0,-.12,14,547)" stroke-width="6" stroke-linecap="round" stroke-linejoin="round" fill="none" stroke="#767676" d="M2219 1348H1789"/>
<path transform="matrix(.12,0,0,-.12,14,547)" stroke-width="6" stroke-linecap="round" stroke-linejoin="round" fill="none" stroke="#767676" d="M1789 3119V2294"/>
<path transform="matrix(.12,0,0,-.12,14,547)" stroke-width="6" stroke-linecap="round" stroke-linejoin="round" fill="none" stroke="#767676" d="M1789 1348V2173"/>
<path transform="matrix(.12,0,0,-.12,14,547)" d="M1828 3070 1838 3080 1740 3159ZM1838 3080 1740 3159 1749 3168Z" fill="#767676"/>
<path transform="matrix(.12,0,0,-.12,14,547)" stroke-linecap="round" stroke-miterlimit="10" stroke-linejoin="miter" fill="none" stroke="#767676" d="M1828 3070 1838 3080 1740 3159ZM1838 3080 1740 3159 1749 3168Z"/>
<path transform="matrix(.12,0,0,-.12,14,547)" d="M1749 1397 1740 1387 1838 1308ZM1740 1387 1838 1308 1828 1299Z" fill="#767676"/>
<path transform="matrix(.12,0,0,-.12,14,547)" stroke-linecap="round" stroke-miterlimit="10" stroke-linejoin="miter" fill="none" stroke="#767676" d="M1749 1397 1740 1387 1838 1308ZM1740 1387 1838 1308 1828 1299Z"/>
</g>
</g>
<g clip-path="url(#clip_2)">
<g inkscape:groupmode="layer" inkscape:label="0">
<text xml:space="preserve" transform="matrix(.12 0 -0 .12 14 547)" font-size="164.989" font-family="Arial"><tspan y="-2176" x="1606 1697.7339 1789.4678 1881.2017">3000</tspan></text>
</g>
</g>
<g clip-path="url(#clip_3)">
<path transform="matrix(.12,0,0,-.12,14,547)" stroke-width="6" stroke-linecap="round" stroke-linejoin="round" fill="none" stroke="#767676" d="M5091 3066V3308"/>
<path transform="matrix(.12,0,0,-.12,14,547)" stroke-width="6" stroke-linecap="round" stroke-linejoin="round" fill="none" stroke="#767676" d="M2138 3066V3308"/>
<path transform="matrix(.12,0,0,-.12,14,547)" stroke-width="6" stroke-linecap="round" stroke-linejoin="round" fill="none" stroke="#767676" d="M5091 3308H3791"/>
<path transform="matrix(.12,0,0,-.12,14,547)" stroke-width="6" stroke-linecap="round" stroke-linejoin="round" fill="none" stroke="#767676" d="M2138 3308H3438"/>
<path transform="matrix(.12,0,0,-.12,14,547)" d="M5042 3268 5051 3259 5130 3357ZM5051 3259 5130 3357 5140 3347Z" fill="#767676"/>
<path transform="matrix(.12,0,0,-.12,14,547)" stroke-linecap="round" stroke-miterlimit="10" stroke-linejoin="miter" fill="none" stroke="#767676" d="M5042 3268 5051 3259 5130 3357ZM5051 3259 5130 3357 5140 3347Z"/>
<path transform="matrix(.12,0,0,-.12,14,547)" d="M2187 3347 2178 3357 2099 3259ZM2178 3357 2099 3259 2089 3268Z" fill="#767676"/>
<path transform="matrix(.12,0,0,-.12,14,547)" stroke-linecap="round" stroke-miterlimit="10" stroke-linejoin="miter" fill="none" stroke="#767676" d="M2187 3347 2178 3357 2099 3259ZM2178 3357 2099 3259 2089 3268Z"/>
<text xml:space="preserve" transform="matrix(.12 0 -0 .12 14 547)" font-size="164.989" font-family="Arial"><tspan y="-3250" x="3432 3523.734 3615.4678 3707.2017">5000</tspan></text>
<path transform="matrix(.12,0,0,-.12,14,547)" stroke-width="7" stroke-linecap="round" stroke-linejoin="round" fill="none" stroke="#000000" d="M2138 3119H5091V3039H2138V3119"/>
<path transform="matrix(.12,0,0,-.12,14,547)" stroke-width="7" stroke-linecap="round" stroke-linejoin="round" fill="none" stroke="#000000" d="M5091 3039V1428H5011V3039H5091"/>
<path transform="matrix(.12,0,0,-.12,14,547)" stroke-width="7" stroke-linecap="round" stroke-linejoin="round" fill="none" stroke="#000000" d="M2138 3039V1428H2219V3039H2138"/>
<path transform="matrix(.12,0,0,-.12,14,547)" stroke-width="7" stroke-linecap="round" stroke-linejoin="round" fill="none" stroke="#000000" d="M4758 1348H5091V1428H4758V1348"/>
<path transform="matrix(.12,0,0,-.12,14,547)" stroke-width="6" stroke-linecap="round" stroke-linejoin="round" fill="none" stroke="#000000" d="M4758 1418V1358H4738V1418H4758"/>
<path transform="matrix(.12,0,0,-.12,14,547)" stroke-width="6" stroke-linecap="round" stroke-linejoin="round" fill="none" stroke="#000000" d="M4738 1358V877H4718V1358H4738"/>
<g inkscape:groupmode="layer" inkscape:label="KITCHEN AND BATH">
<path transform="matrix(.12,0,0,-.12,14,547)" stroke-width="3" stroke-linecap="round" stroke-linejoin="round" fill="none" stroke="#000000" d="M4285 1361 4288 1323"/>
<path transform="matrix(.12,0,0,-.12,14,547)" stroke-width="3" stroke-linecap="round" stroke-linejoin="round" fill="none" stroke="#000000" d="M4291 1304 4296 1274 4297 1268"/>
<path transform="matrix(.12,0,0,-.12,14,547)" stroke-width="3" stroke-linecap="round" stroke-linejoin="round" fill="none" stroke="#000000" d="M4302 1250 4307 1231 4313 1215"/>
<path transform="matrix(.12,0,0,-.12,14,547)" stroke-width="3" stroke-linecap="round" stroke-linejoin="round" fill="none" stroke="#000000" d="M4319 1198 4322 1190 4333 1164"/>
<path transform="matrix(.12,0,0,-.12,14,547)" stroke-width="3" stroke-linecap="round" stroke-linejoin="round" fill="none" stroke="#000000" d="M4341 1147 4359 1115"/>
<path transform="matrix(.12,0,0,-.12,14,547)" stroke-width="3" stroke-linecap="round" stroke-linejoin="round" fill="none" stroke="#000000" d="M4369 1099 4386 1075 4391 1069"/>
<path transform="matrix(.12,0,0,-.12,14,547)" stroke-width="3" stroke-linecap="round" stroke-linejoin="round" fill="none" stroke="#000000" d="M4402 1055 4414 1041 4427 1028"/>
<path transform="matrix(.12,0,0,-.12,14,547)" stroke-width="3" stroke-linecap="round" stroke-linejoin="round" fill="none" stroke="#000000" d="M4440 1014 4445 1009 4468 990"/>
<path transform="matrix(.12,0,0,-.12,14,547)" stroke-width="3" stroke-linecap="round" stroke-linejoin="round" fill="none" stroke="#000000" d="M4482 978 4512 957"/>
<path transform="matrix(.12,0,0,-.12,14,547)" stroke-width="3" stroke-linecap="round" stroke-linejoin="round" fill="none" stroke="#000000" d="M4527 947 4552 932 4560 929"/>
<path transform="matrix(.12,0,0,-.12,14,547)" stroke-width="3" stroke-linecap="round" stroke-linejoin="round" fill="none" stroke="#000000" d="M4576 921 4592 913 4610 906"/>
<path transform="matrix(.12,0,0,-.12,14,547)" stroke-width="3" stroke-linecap="round" stroke-linejoin="round" fill="none" stroke="#000000" d="M4627 900 4633 898 4663 889"/>
<path transform="matrix(.12,0,0,-.12,14,547)" stroke-width="3" stroke-linecap="round" stroke-linejoin="round" fill="none" stroke="#000000" d="M4681 885 4718 877"/>
</g>
<g inkscape:groupmode="layer" inkscape:label="0">
<path transform="matrix(.12,0,0,-.12,14,547)" stroke-width="6" stroke-linecap="round" stroke-linejoin="round" fill="none" stroke="#000000" d="M3813 1418V1358H3833V1418H3813"/>
<path transform="matrix(.12,0,0,-.12,14,547)" stroke-width="6" stroke-linecap="round" stroke-linejoin="round" fill="none" stroke="#000000" d="M3833 1358V877H3852V1358H3833"/>
</g>
<g inkscape:groupmode="layer" inkscape:label="KITCHEN AND BATH">
<path transform="matrix(.12,0,0,-.12,14,547)" stroke-width="3" stroke-linecap="round" stroke-linejoin="round" fill="none" stroke="#000000" d="M3852 877 3890 885"/>
<path transform="matrix(.12,0,0,-.12,14,547)" stroke-width="3" stroke-linecap="round" stroke-linejoin="round" fill="none" stroke="#000000" d="M3908 889 3938 898 3944 900"/>
<path transform="matrix(.12,0,0,-.12,14,547)" stroke-width="3" stroke-linecap="round" stroke-linejoin="round" fill="none" stroke="#000000" d="M3961 906 3979 913 3995 921"/>
<path transform="matrix(.12,0,0,-.12,14,547)" stroke-width="3" stroke-linecap="round" stroke-linejoin="round" fill="none" stroke="#000000" d="M4011 929 4019 932 4043 947"/>
<path transform="matrix(.12,0,0,-.12,14,547)" stroke-width="3" stroke-linecap="round" stroke-linejoin="round" fill="none" stroke="#000000" d="M4059 957 4089 978"/>
<path transform="matrix(.12,0,0,-.12,14,547)" stroke-width="3" stroke-linecap="round" stroke-linejoin="round" fill="none" stroke="#000000" d="M4103 990 4126 1009 4131 1015"/>
<path transform="matrix(.12,0,0,-.12,14,547)" stroke-width="3" stroke-linecap="round" stroke-linejoin="round" fill="none" stroke="#000000" d="M4144 1028 4157 1041 4168 1055"/>
<path transform="matrix(.12,0,0,-.12,14,547)" stroke-width="3" stroke-linecap="round" stroke-linejoin="round" fill="none" stroke="#000000" d="M4180 1070 4185 1075 4201 1100"/>
<path transform="matrix(.12,0,0,-.12,14,547)" stroke-width="3" stroke-linecap="round" stroke-linejoin="round" fill="none" stroke="#000000" d="M4212 1115 4230 1147"/>
<path transform="matrix(.12,0,0,-.12,14,547)" stroke-width="3" stroke-linecap="round" stroke-linejoin="round" fill="none" stroke="#000000" d="M4237 1164 4249 1190 4252 1198"/>
<path transform="matrix(.12,0,0,-.12,14,547)" stroke-width="3" stroke-linecap="round" stroke-linejoin="round" fill="none" stroke="#000000" d="M4258 1215 4264 1231 4269 1251"/>
<path transform="matrix(.12,0,0,-.12,14,547)" stroke-width="3" stroke-linecap="round" stroke-linejoin="round" fill="none" stroke="#000000" d="M4273 1268 4275 1274 4280 1305"/>
<path transform="matrix(.12,0,0,-.12,14,547)" stroke-width="3" stroke-linecap="round" stroke-linejoin="round" fill="none" stroke="#000000" d="M4282 1323 4285 1361"/>
</g>
<g inkscape:groupmode="layer" inkscape:label="0">
<path transform="matrix(.12,0,0,-.12,14,547)" d="M4285 1123 4468 806H4102Z"/>
<path transform="matrix(.12,0,0,-.12,14,547)" stroke-linecap="round" stroke-miterlimit="10" stroke-linejoin="miter" fill="none" stroke="#000000" d="M4285 1123 4468 806H4102Z"/>
<path transform="matrix(.12,0,0,-.12,14,547)" stroke-width="6" stroke-linecap="round" stroke-linejoin="round" fill="none" stroke="#000000" d="M4285 1123 4468 806H4102L4285 1123"/>
<path transform="matrix(.12,0,0,-.12,14,547)" stroke-width="7" stroke-linecap="round" stroke-linejoin="round" fill="none" stroke="#000000" d="M3813 1348H3480V1428H3813V1348"/>
<path transform="matrix(.12,0,0,-.12,14,547)" stroke-width="7" stroke-linecap="round" stroke-linejoin="round" fill="none" stroke="#767676" d="M3016 1361H2602V1415H3016V1361"/>
<path transform="matrix(.12,0,0,-.12,14,547)" stroke-width="7" stroke-linecap="round" stroke-linejoin="round" fill="none" stroke="#000000" d="M2602 1348H2138V1428H2602V1348"/>
<path transform="matrix(.12,0,0,-.12,14,547)" stroke-width="6" stroke-linecap="round" stroke-linejoin="round" fill="none" stroke="#767676" d="M2602 1348V1215"/>
<path transform="matrix(.12,0,0,-.12,14,547)" stroke-width="6" stroke-linecap="round" stroke-linejoin="round" fill="none" stroke="#767676" d="M2138 1348V1215"/>
<path transform="matrix(.12,0,0,-.12,14,547)" stroke-width="6" stroke-linecap="round" stroke-linejoin="round" fill="none" stroke="#767676" d="M2602 1215H2500"/>
<path transform="matrix(.12,0,0,-.12,14,547)" stroke-width="6" stroke-linecap="round" stroke-linejoin="round" fill="none" stroke="#767676" d="M2138 1215H2240"/>
<path transform="matrix(.12,0,0,-.12,14,547)" d="M2553 1175 2563 1166 2642 1264ZM2563 1166 2642 1264 2651 1254Z" fill="#767676"/>
<path transform="matrix(.12,0,0,-.12,14,547)" stroke-linecap="round" stroke-miterlimit="10" stroke-linejoin="miter" fill="none" stroke="#767676" d="M2553 1175 2563 1166 2642 1264ZM2563 1166 2642 1264 2651 1254Z"/>
<path transform="matrix(.12,0,0,-.12,14,547)" d="M2187 1254 2178 1264 2099 1166ZM2178 1264 2099 1166 2089 1175Z" fill="#767676"/>
<path transform="matrix(.12,0,0,-.12,14,547)" stroke-linecap="round" stroke-miterlimit="10" stroke-linejoin="miter" fill="none" stroke="#767676" d="M2187 1254 2178 1264 2099 1166ZM2178 1264 2099 1166 2089 1175Z"/>
<text xml:space="preserve" transform="matrix(.12 0 -0 .12 14 547)" font-size="164.989" font-family="Arial"><tspan y="-1157" x="2233 2324.734 2416.4678">786</tspan></text>
<path transform="matrix(.12,0,0,-.12,14,547)" stroke-width="6" stroke-linecap="round" stroke-linejoin="round" fill="none" stroke="#767676" d="M3813 1348V1215"/>
<path transform="matrix(.12,0,0,-.12,14,547)" stroke-width="6" stroke-linecap="round" stroke-linejoin="round" fill="none" stroke="#767676" d="M3480 1348V1215"/>
<path transform="matrix(.12,0,0,-.12,14,547)" stroke-width="6" stroke-linecap="round" stroke-linejoin="round" fill="none" stroke="#767676" d="M3813 1215H3777"/>
<path transform="matrix(.12,0,0,-.12,14,547)" stroke-width="6" stroke-linecap="round" stroke-linejoin="round" fill="none" stroke="#767676" d="M3480 1215H3516"/>
<path transform="matrix(.12,0,0,-.12,14,547)" d="M3764 1175 3773 1166 3853 1264ZM3773 1166 3853 1264 3862 1254Z" fill="#767676"/>
<path transform="matrix(.12,0,0,-.12,14,547)" stroke-linecap="round" stroke-miterlimit="10" stroke-linejoin="miter" fill="none" stroke="#767676" d="M3764 1175 3773 1166 3853 1264ZM3773 1166 3853 1264 3862 1254Z"/>
<path transform="matrix(.12,0,0,-.12,14,547)" d="M3529 1254 3519 1264 3440 1166ZM3519 1264 3440 1166 3431 1175Z" fill="#767676"/>
<path transform="matrix(.12,0,0,-.12,14,547)" stroke-linecap="round" stroke-miterlimit="10" stroke-linejoin="miter" fill="none" stroke="#767676" d="M3529 1254 3519 1264 3440 1166ZM3519 1264 3440 1166 3431 1175Z"/>
<text xml:space="preserve" transform="matrix(.12 0 -0 .12 14 547)" font-size="164.989" font-family="Arial"><tspan y="-1157" x="3509 3600.734 3692.4678">564</tspan></text>
<path transform="matrix(.12,0,0,-.12,14,547)" stroke-width="6" stroke-linecap="round" stroke-linejoin="round" fill="none" stroke="#767676" d="M4758 1348V1215"/>
<path transform="matrix(.12,0,0,-.12,14,547)" stroke-width="6" stroke-linecap="round" stroke-linejoin="round" fill="none" stroke="#767676" d="M5091 1348V1215"/>
<path transform="matrix(.12,0,0,-.12,14,547)" stroke-width="6" stroke-linecap="round" stroke-linejoin="round" fill="none" stroke="#767676" d="M4758 1215H4794"/>
<path transform="matrix(.12,0,0,-.12,14,547)" stroke-width="6" stroke-linecap="round" stroke-linejoin="round" fill="none" stroke="#767676" d="M5091 1215H5055"/>
<path transform="matrix(.12,0,0,-.12,14,547)" d="M4807 1254 4797 1264 4718 1166ZM4797 1264 4718 1166 4709 1175Z" fill="#767676"/>
<path transform="matrix(.12,0,0,-.12,14,547)" stroke-linecap="round" stroke-miterlimit="10" stroke-linejoin="miter" fill="none" stroke="#767676" d="M4807 1254 4797 1264 4718 1166ZM4797 1264 4718 1166 4709 1175Z"/>
<path transform="matrix(.12,0,0,-.12,14,547)" d="M5042 1175 5051 1166 5130 1264ZM5051 1166 5130 1264 5140 1254Z" fill="#767676"/>
<path transform="matrix(.12,0,0,-.12,14,547)" stroke-linecap="round" stroke-miterlimit="10" stroke-linejoin="miter" fill="none" stroke="#767676" d="M5042 1175 5051 1166 5130 1264ZM5051 1166 5130 1264 5140 1254Z"/>
<text xml:space="preserve" transform="matrix(.12 0 -0 .12 14 547)" font-size="164.989" font-family="Arial"><tspan y="-1157" x="4787 4878.734 4970.468">564</tspan></text>
<path transform="matrix(.12,0,0,-.12,14,547)" stroke-width="7" stroke-linecap="round" stroke-linejoin="round" fill="none" stroke="#000000" d="M3480 1348H3016V1428H3480V1348"/>
<path transform="matrix(.12,0,0,-.12,14,547)" stroke-width="6" stroke-linecap="round" stroke-linejoin="round" fill="none" stroke="#767676" d="M3480 1348V1215"/>
<path transform="matrix(.12,0,0,-.12,14,547)" stroke-width="6" stroke-linecap="round" stroke-linejoin="round" fill="none" stroke="#767676" d="M3016 1348V1215"/>
<path transform="matrix(.12,0,0,-.12,14,547)" stroke-width="6" stroke-linecap="round" stroke-linejoin="round" fill="none" stroke="#767676" d="M3480 1215H3378"/>
<path transform="matrix(.12,0,0,-.12,14,547)" stroke-width="6" stroke-linecap="round" stroke-linejoin="round" fill="none" stroke="#767676" d="M3016 1215H3118"/>
<path transform="matrix(.12,0,0,-.12,14,547)" d="M3431 1175 3440 1166 3519 1264ZM3440 1166 3519 1264 3529 1254Z" fill="#767676"/>
<path transform="matrix(.12,0,0,-.12,14,547)" stroke-linecap="round" stroke-miterlimit="10" stroke-linejoin="miter" fill="none" stroke="#767676" d="M3431 1175 3440 1166 3519 1264ZM3440 1166 3519 1264 3529 1254Z"/>
<path transform="matrix(.12,0,0,-.12,14,547)" d="M3065 1254 3055 1264 2976 1166ZM3055 1264 2976 1166 2967 1175Z" fill="#767676"/>
<path transform="matrix(.12,0,0,-.12,14,547)" stroke-linecap="round" stroke-miterlimit="10" stroke-linejoin="miter" fill="none" stroke="#767676" d="M3065 1254 3055 1264 2976 1166ZM3055 1264 2976 1166 2967 1175Z"/>
<text xml:space="preserve" transform="matrix(.12 0 -0 .12 14 547)" font-size="164.989" font-family="Arial"><tspan y="-1157" x="3110 3201.734 3293.4678">786</tspan></text>
</g>
<g inkscape:groupmode="layer" inkscape:label="KITCHEN AND BATH">
<path transform="matrix(.12,0,0,-.12,14,547)" stroke-width="5" stroke-linecap="round" stroke-linejoin="round" fill="none" stroke="#808080" d="M2545 2497V2497"/>
<path transform="matrix(.12,0,0,-.12,14,547)" stroke-width="5" stroke-linecap="round" stroke-linejoin="round" fill="none" stroke="#808080" d="M2284.5 2591C2267.103 2591 2253 2576.897 2253 2559.5"/>
<path transform="matrix(.12,0,0,-.12,14,547)" stroke-width="5" stroke-linecap="round" stroke-linejoin="round" fill="none" stroke="#808080" d="M2608 2559.5C2608 2576.897 2593.897 2591 2576.5 2591"/>
<path transform="matrix(.12,0,0,-.12,14,547)" stroke-width="5" stroke-linecap="round" stroke-linejoin="round" fill="none" stroke="#808080" d="M2576 2591H2284"/>
<path transform="matrix(.12,0,0,-.12,14,547)" stroke-width="5" stroke-linecap="round" stroke-linejoin="round" fill="none" stroke="#808080" d="M2608 2559V2497"/>
<path transform="matrix(.12,0,0,-.12,14,547)" stroke-width="5" stroke-linecap="round" stroke-linejoin="round" fill="none" stroke="#808080" d="M2253 1795.5C2253 1778.103 2267.103 1764 2284.5 1764"/>
<path transform="matrix(.12,0,0,-.12,14,547)" stroke-width="5" stroke-linecap="round" stroke-linejoin="round" fill="none" stroke="#808080" d="M2622 2177H2328"/>
<path transform="matrix(.12,0,0,-.12,14,547)" stroke-width="5" stroke-linecap="round" stroke-linejoin="round" fill="none" stroke="#808080" d="M2328 2497V1858"/>
<path transform="matrix(.12,0,0,-.12,14,547)" stroke-width="5" stroke-linecap="round" stroke-linejoin="round" fill="none" stroke="#808080" d="M2252 1795V2559"/>
<path transform="matrix(.12,0,0,-.12,14,547)" stroke-width="5" stroke-linecap="round" stroke-linejoin="round" fill="none" stroke="#808080" d="M2654 2146.5C2654 2163.897 2639.897 2178 2622.5 2178"/>
<path transform="matrix(.12,0,0,-.12,14,547)" stroke-width="5" stroke-linecap="round" stroke-linejoin="round" fill="none" stroke="#808080" d="M2622.5 1858C2639.897 1858 2654 1872.103 2654 1889.5"/>
<path transform="matrix(.12,0,0,-.12,14,547)" stroke-width="5" stroke-linecap="round" stroke-linejoin="round" fill="none" stroke="#808080" d="M2653 2146V1889"/>
<path transform="matrix(.12,0,0,-.12,14,547)" stroke-width="5" stroke-linecap="round" stroke-linejoin="round" fill="none" stroke="#808080" d="M2576.5 1764C2593.897 1764 2608 1778.103 2608 1795.5"/>
<path transform="matrix(.12,0,0,-.12,14,547)" stroke-width="5" stroke-linecap="round" stroke-linejoin="round" fill="none" stroke="#808080" d="M2608 1795V1858"/>
<path transform="matrix(.12,0,0,-.12,14,547)" stroke-width="5" stroke-linecap="round" stroke-linejoin="round" fill="none" stroke="#808080" d="M2622 2177H2328 2622"/>
<path transform="matrix(.12,0,0,-.12,14,547)" stroke-width="5" stroke-linecap="round" stroke-linejoin="round" fill="none" stroke="#808080" d="M2622 1858H2328"/>
<path transform="matrix(.12,0,0,-.12,14,547)" stroke-width="5" stroke-linecap="round" stroke-linejoin="round" fill="none" stroke="#808080" d="M2576 1764H2284"/>
<path transform="matrix(.12,0,0,-.12,14,547)" stroke-width="5" stroke-linecap="round" stroke-linejoin="round" fill="none" stroke="#808080" d="M2622 2497H2328"/>
<path transform="matrix(.12,0,0,-.12,14,547)" stroke-width="5" stroke-linecap="round" stroke-linejoin="round" fill="none" stroke="#808080" d="M2654 2466.5C2654 2483.897 2639.897 2498 2622.5 2498"/>
<path transform="matrix(.12,0,0,-.12,14,547)" stroke-width="5" stroke-linecap="round" stroke-linejoin="round" fill="none" stroke="#808080" d="M2622.5 2178C2639.897 2178 2654 2192.103 2654 2209.5"/>
<path transform="matrix(.12,0,0,-.12,14,547)" stroke-width="5" stroke-linecap="round" stroke-linejoin="round" fill="none" stroke="#808080" d="M2653 2466V2209"/>
<path transform="matrix(.12,0,0,-.12,14,547)" stroke-width="5" stroke-linecap="round" stroke-linejoin="round" fill="none" stroke="#808080" d="M2622 2497H2328 2622"/>
<path transform="matrix(.12,0,0,-.12,14,547)" stroke-width="5" stroke-linecap="round" stroke-linejoin="round" fill="none" stroke="#808080" d="M3173 2042V2308H2907V2042H3173"/>
<path transform="matrix(.12,0,0,-.12,14,547)" stroke-width="5" stroke-linecap="round" stroke-linejoin="round" fill="none" stroke="#808080" d="M3347 2713V2713"/>
<path transform="matrix(.12,0,0,-.12,14,547)" stroke-width="5" stroke-linecap="round" stroke-linejoin="round" fill="none" stroke="#808080" d="M3442 2975.5C3442 2992.897 3427.897 3007 3410.5 3007"/>
<path transform="matrix(.12,0,0,-.12,14,547)" stroke-width="5" stroke-linecap="round" stroke-linejoin="round" fill="none" stroke="#808080" d="M3410.5 2651C3427.897 2651 3442 2665.103 3442 2682.5"/>
<path transform="matrix(.12,0,0,-.12,14,547)" stroke-width="5" stroke-linecap="round" stroke-linejoin="round" fill="none" stroke="#808080" d="M3441 2682V2975"/>
<path transform="matrix(.12,0,0,-.12,14,547)" stroke-width="5" stroke-linecap="round" stroke-linejoin="round" fill="none" stroke="#808080" d="M3410 2650H3347"/>
<path transform="matrix(.12,0,0,-.12,14,547)" stroke-width="5" stroke-linecap="round" stroke-linejoin="round" fill="none" stroke="#808080" d="M2645.5 3007C2628.103 3007 2614 2992.897 2614 2975.5"/>
<path transform="matrix(.12,0,0,-.12,14,547)" stroke-width="5" stroke-linecap="round" stroke-linejoin="round" fill="none" stroke="#808080" d="M3028 2636V2930"/>
<path transform="matrix(.12,0,0,-.12,14,547)" stroke-width="5" stroke-linecap="round" stroke-linejoin="round" fill="none" stroke="#808080" d="M3347 2930H2708"/>
<path transform="matrix(.12,0,0,-.12,14,547)" stroke-width="5" stroke-linecap="round" stroke-linejoin="round" fill="none" stroke="#808080" d="M2645 3006H3410"/>
<path transform="matrix(.12,0,0,-.12,14,547)" stroke-width="5" stroke-linecap="round" stroke-linejoin="round" fill="none" stroke="#808080" d="M2996.5 2605C3013.897 2605 3028 2619.103 3028 2636.5"/>
<path transform="matrix(.12,0,0,-.12,14,547)" stroke-width="5" stroke-linecap="round" stroke-linejoin="round" fill="none" stroke="#808080" d="M2708 2636.5C2708 2619.103 2722.103 2605 2739.5 2605"/>
<path transform="matrix(.12,0,0,-.12,14,547)" stroke-width="5" stroke-linecap="round" stroke-linejoin="round" fill="none" stroke="#808080" d="M2996 2605H2739"/>
<path transform="matrix(.12,0,0,-.12,14,547)" stroke-width="5" stroke-linecap="round" stroke-linejoin="round" fill="none" stroke="#808080" d="M2614 2682.5C2614 2665.103 2628.103 2651 2645.5 2651"/>
<path transform="matrix(.12,0,0,-.12,14,547)" stroke-width="5" stroke-linecap="round" stroke-linejoin="round" fill="none" stroke="#808080" d="M2645 2650H2708"/>
<path transform="matrix(.12,0,0,-.12,14,547)" stroke-width="5" stroke-linecap="round" stroke-linejoin="round" fill="none" stroke="#808080" d="M3028 2636V2930 2636"/>
<path transform="matrix(.12,0,0,-.12,14,547)" stroke-width="5" stroke-linecap="round" stroke-linejoin="round" fill="none" stroke="#808080" d="M2708 2636V2930"/>
<path transform="matrix(.12,0,0,-.12,14,547)" stroke-width="5" stroke-linecap="round" stroke-linejoin="round" fill="none" stroke="#808080" d="M2614 2682V2975"/>
<path transform="matrix(.12,0,0,-.12,14,547)" stroke-width="5" stroke-linecap="round" stroke-linejoin="round" fill="none" stroke="#808080" d="M3347 2636V2930"/>
<path transform="matrix(.12,0,0,-.12,14,547)" stroke-width="5" stroke-linecap="round" stroke-linejoin="round" fill="none" stroke="#808080" d="M3316.5 2605C3333.897 2605 3348 2619.103 3348 2636.5"/>
<path transform="matrix(.12,0,0,-.12,14,547)" stroke-width="5" stroke-linecap="round" stroke-linejoin="round" fill="none" stroke="#808080" d="M3028 2636.5C3028 2619.103 3042.103 2605 3059.5 2605"/>
<path transform="matrix(.12,0,0,-.12,14,547)" stroke-width="5" stroke-linecap="round" stroke-linejoin="round" fill="none" stroke="#808080" d="M3316 2605H3059"/>
<path transform="matrix(.12,0,0,-.12,14,547)" stroke-width="5" stroke-linecap="round" stroke-linejoin="round" fill="none" stroke="#808080" d="M3347 2636V2930 2636"/>
<path transform="matrix(.12,0,0,-.12,14,547)" stroke-width="5" stroke-linecap="round" stroke-linejoin="round" fill="none" stroke="#808080" d="M4184 2094V1858H5011V2094H4184"/>
<path transform="matrix(.12,0,0,-.12,14,547)" stroke-width="5" stroke-linecap="round" stroke-linejoin="round" fill="none" stroke="#808080" d="M4535 2495 4537 2475"/>
<path transform="matrix(.12,0,0,-.12,14,547)" stroke-width="5" stroke-linecap="round" stroke-linejoin="round" fill="none" stroke="#808080" d="M4663.751 2226.0626C4675.176 2226.6986 4685.799 2232.138 4692.993 2241.036 4700.188 2249.9339 4703.2829 2261.46 4701.5129 2272.7652"/>
<path transform="matrix(.12,0,0,-.12,14,547)" stroke-width="5" stroke-linecap="round" stroke-linejoin="round" fill="none" stroke="#808080" d="M4663.1955 2236.047C4671.7995 2236.5262 4679.799 2240.6224 4685.2175 2247.3233 4690.6354 2254.0242 4692.966 2262.7047 4691.633 2271.218"/>
<path transform="matrix(.12,0,0,-.12,14,547)" stroke-width="5" stroke-linecap="round" stroke-linejoin="round" fill="none" stroke="#808080" d="M4598 2457 4517 2452"/>
<path transform="matrix(.12,0,0,-.12,14,547)" stroke-width="5" stroke-linecap="round" stroke-linejoin="round" fill="none" stroke="#808080" d="M4661.6228 2482.958C4593.1564 2506.468 4518.213 2502.2928 4452.7814 2471.323"/>
<path transform="matrix(.12,0,0,-.12,14,547)" stroke-width="5" stroke-linecap="round" stroke-linejoin="round" fill="none" stroke="#808080" d="M4604 2478 4509 2473"/>
<path transform="matrix(.12,0,0,-.12,14,547)" stroke-width="5" stroke-linecap="round" stroke-linejoin="round" fill="none" stroke="#808080" d="M4671.6906 2512.2777C4595.575 2538.4139 4512.26 2533.7723 4439.519 2499.3428"/>
<path transform="matrix(.12,0,0,-.12,14,547)" stroke-width="5" stroke-linecap="round" stroke-linejoin="round" fill="none" stroke="#808080" d="M4704 2287 4744 2296 4704 2429"/>
<path transform="matrix(.12,0,0,-.12,14,547)" stroke-width="5" stroke-linecap="round" stroke-linejoin="round" fill="none" stroke="#808080" d="M4703.908 2428.881C4699.832 2442.3616 4685.599 2449.9849 4672.1188 2445.9085"/>
<path transform="matrix(.12,0,0,-.12,14,547)" stroke-width="5" stroke-linecap="round" stroke-linejoin="round" fill="none" stroke="#808080" d="M4670 2445 4672 2446"/>
<path transform="matrix(.12,0,0,-.12,14,547)" stroke-width="5" stroke-linecap="round" stroke-linejoin="round" fill="none" stroke="#808080" d="M4661 2483 4671 2512"/>
<path transform="matrix(.12,0,0,-.12,14,547)" stroke-width="5" stroke-linecap="round" stroke-linejoin="round" fill="none" stroke="#808080" d="M4571 2498 4572 2477"/>
<path transform="matrix(.12,0,0,-.12,14,547)" stroke-width="5" stroke-linecap="round" stroke-linejoin="round" fill="none" stroke="#808080" d="M4667.586 2430.612C4661.147 2460.1187 4634.2365 2480.5836 4604.082 2478.905"/>
<path transform="matrix(.12,0,0,-.12,14,547)" stroke-width="5" stroke-linecap="round" stroke-linejoin="round" fill="none" stroke="#808080" d="M4661.586 2408.612C4655.147 2438.1187 4628.2365 2458.5836 4598.082 2456.905"/>
<path transform="matrix(.12,0,0,-.12,14,547)" stroke-width="5" stroke-linecap="round" stroke-linejoin="round" fill="none" stroke="#808080" d="M4704 2287 4670 2445"/>
<path transform="matrix(.12,0,0,-.12,14,547)" stroke-width="5" stroke-linecap="round" stroke-linejoin="round" fill="none" stroke="#808080" d="M4702 2272 4667 2430"/>
<path transform="matrix(.12,0,0,-.12,14,547)" stroke-width="5" stroke-linecap="round" stroke-linejoin="round" fill="none" stroke="#808080" d="M4692 2270 4661 2408"/>
<path transform="matrix(.12,0,0,-.12,14,547)" stroke-width="5" stroke-linecap="round" stroke-linejoin="round" fill="none" stroke="#808080" d="M4452 2471 4439 2499"/>
<path transform="matrix(.12,0,0,-.12,14,547)" stroke-width="5" stroke-linecap="round" stroke-linejoin="round" fill="none" stroke="#808080" d="M4415 2413 4390 2276"/>
<path transform="matrix(.12,0,0,-.12,14,547)" stroke-width="5" stroke-linecap="round" stroke-linejoin="round" fill="none" stroke="#808080" d="M4445.124 2433.5772C4431.2746 2436.131 4417.9768 2426.974 4415.423 2413.1243"/>
<path transform="matrix(.12,0,0,-.12,14,547)" stroke-width="5" stroke-linecap="round" stroke-linejoin="round" fill="none" stroke="#808080" d="M4448 2433H4445"/>
<path transform="matrix(.12,0,0,-.12,14,547)" stroke-width="5" stroke-linecap="round" stroke-linejoin="round" fill="none" stroke="#808080" d="M4431 2272 4390 2276"/>
<path transform="matrix(.12,0,0,-.12,14,547)" stroke-width="5" stroke-linecap="round" stroke-linejoin="round" fill="none" stroke="#808080" d="M4663 2225 4478 2215"/>
<path transform="matrix(.12,0,0,-.12,14,547)" stroke-width="5" stroke-linecap="round" stroke-linejoin="round" fill="none" stroke="#808080" d="M4663 2235 4478 2225"/>
<path transform="matrix(.12,0,0,-.12,14,547)" stroke-width="5" stroke-linecap="round" stroke-linejoin="round" fill="none" stroke="#808080" d="M4510.082 2473.905C4479.9279 2472.2264 4455.4548 2448.9014 4452.33 2418.8626"/>
<path transform="matrix(.12,0,0,-.12,14,547)" stroke-width="5" stroke-linecap="round" stroke-linejoin="round" fill="none" stroke="#808080" d="M4518.082 2452.905C4487.9279 2451.2264 4463.4548 2427.9014 4460.33 2397.8626"/>
<path transform="matrix(.12,0,0,-.12,14,547)" stroke-width="5" stroke-linecap="round" stroke-linejoin="round" fill="none" stroke="#808080" d="M4435 2258 4452 2418"/>
<path transform="matrix(.12,0,0,-.12,14,547)" stroke-width="5" stroke-linecap="round" stroke-linejoin="round" fill="none" stroke="#808080" d="M4445 2257 4460 2397"/>
<path transform="matrix(.12,0,0,-.12,14,547)" stroke-width="5" stroke-linecap="round" stroke-linejoin="round" fill="none" stroke="#808080" d="M4431 2272 4448 2433"/>
<path transform="matrix(.12,0,0,-.12,14,547)" stroke-width="5" stroke-linecap="round" stroke-linejoin="round" fill="none" stroke="#808080" d="M4446.0295 2257.8419C4445.6506 2249.2332 4448.9309 2240.8663 4455.0588 2234.8087 4461.187 2228.751 4469.592 2225.568 4478.1955 2226.047"/>
<path transform="matrix(.12,0,0,-.12,14,547)" stroke-width="5" stroke-linecap="round" stroke-linejoin="round" fill="none" stroke="#808080" d="M4436.039 2258.2818C4435.5358 2246.8509 4439.891 2235.7403 4448.029 2227.6966 4456.1667 2219.6529 4467.3269 2215.4268 4478.751 2216.0626"/>
<path transform="matrix(.12,0,0,-.12,14,547)" stroke-width="5" stroke-linecap="round" stroke-linejoin="round" fill="none" stroke="#808080" d="M3640 3039V2685H5011V3039H3640"/>
<path transform="matrix(.12,0,0,-.12,14,547)" stroke-width="5" stroke-linecap="round" stroke-linejoin="round" fill="none" stroke="#808080" d="M3670 3009V2714H4981V3009H3670"/>
</g>
</g>
</svg>
