<svg xmlns="http://www.w3.org/2000/svg" xmlns:xlink="http://www.w3.org/1999/xlink" xmlns:inkscape="http://www.inkscape.org/namespaces/inkscape" version="1.1" viewBox="192.2 59.56 457.08 475.92">
<defs>
<clipPath id="clip_1">
<path transform="matrix(.12,0,0,-.12,14,547)" d="M1485 96H5294V4062H1485V96"/>
</clipPath>
<clipPath id="clip_2">
<path transform="matrix(.12,0,0,-.12,14,547)" d="M1485 96H5294V4062H1485V96"/>
</clipPath>
<clipPath id="clip_3">
<path transform="matrix(.12,0,0,-.12,14,547)" d="M1485 96H5294V4062H1485V96"/>
</clipPath>
</defs>
<g clip-path="url(#clip_1)">
<g inkscape:groupmode="layer" inkscape:label="0">
<path transform="matrix(.12,0,0,-.12,14,547)" stroke-width="6" stroke-linecap="round" stroke-linejoin="round" fill="none" stroke="#767676" d="M2212 3722H1782"/>
<path transform="matrix(.12,0,0,-.12,14,547)" stroke-width="6" stroke-linecap="round" stroke-linejoin="round" fill="none" stroke="#767676" d="M2212 769H1782"/>
<path transform="matrix(.12,0,0,-.12,14,547)" stroke-width="6" stroke-linecap="round" stroke-linejoin="round" fill="none" stroke="#767676" d="M1782 3722V2306"/>
<path transform="matrix(.12,0,0,-.12,14,547)" stroke-width="6" stroke-linecap="round" stroke-linejoin="round" fill="none" stroke="#767676" d="M1782 769V2185"/>
<path transform="matrix(.12,0,0,-.12,14,547)" d="M1821 3673 1831 3682 1733 3762ZM1831 3682 1733 3762 1742 3771Z" fill="#767676"/>
<path transform="matrix(.12,0,0,-.12,14,547)" stroke-linecap="round" stroke-miterlimit="10" stroke-linejoin="miter" fill="none" stroke="#767676" d="M1821 3673 1831 3682 1733 3762ZM1831 3682 1733 3762 1742 3771Z"/>
<path transform="matrix(.12,0,0,-.12,14,547)" d="M1742 818 1733 809 1831 730ZM1733 809 1831 730 1821 720Z" fill="#767676"/>
<path transform="matrix(.12,0,0,-.12,14,547)" stroke-linecap="round" stroke-miterlimit="10" stroke-linejoin="miter" fill="none" stroke="#767676" d="M1742 818 1733 809 1831 730ZM1733 809 1831 730 1821 720Z"/>
</g>
</g>
<g clip-path="url(#clip_2)">
<g inkscape:groupmode="layer" inkscape:label="0">
<text xml:space="preserve" transform="matrix(.12 0 -0 .12 14 547)" font-size="164.993" font-family="Arial"><tspan y="-2188" x="1599 1690.7361 1782.4722 1874.2083">5000</tspan></text>
</g>
</g>
<g clip-path="url(#clip_3)">
<path transform="matrix(.12,0,0,-.12,14,547)" stroke-width="6" stroke-linecap="round" stroke-linejoin="round" fill="none" stroke="#767676" d="M5084 3668V3910"/>
<path transform="matrix(.12,0,0,-.12,14,547)" stroke-width="6" stroke-linecap="round" stroke-linejoin="round" fill="none" stroke="#767676" d="M2131 3669V3910"/>
<path transform="matrix(.12,0,0,-.12,14,547)" stroke-width="6" stroke-linecap="round" stroke-linejoin="round" fill="none" stroke="#767676" d="M5084 3910H3784"/>
<path transform="matrix(.12,0,0,-.12,14,547)" stroke-width="6" stroke-linecap="round" stroke-linejoin="round" fill="none" stroke="#767676" d="M2131 3910H3432"/>
<path transform="matrix(.12,0,0,-.12,14,547)" d="M5035 3871 5045 3861 5124 3959ZM5045 3861 5124 3959 5133 3950Z" fill="#767676"/>
<path transform="matrix(.12,0,0,-.12,14,547)" stroke-linecap="round" stroke-miterlimit="10" stroke-linejoin="miter" fill="none" stroke="#767676" d="M5035 3871 5045 3861 5124 3959ZM5045 3861 5124 3959 5133 3950Z"/>
<path transform="matrix(.12,0,0,-.12,14,547)" d="M2180 3950 2171 3959 2092 3861ZM2171 3959 2092 3861 2082 3871Z" fill="#767676"/>
<path transform="matrix(.12,0,0,-.12,14,547)" stroke-linecap="round" stroke-miterlimit="10" stroke-linejoin="miter" fill="none" stroke="#767676" d="M2180 3950 2171 3959 2092 3861ZM2171 3959 2092 3861 2082 3871Z"/>
<text xml:space="preserve" transform="matrix(.12 0 -0 .12 14 547)" font-size="164.993" font-family="Arial"><tspan y="-3852" x="3425 3516.736 3608.4722 3700.2083">5000</tspan></text>
<path transform="matrix(.12,0,0,-.12,14,547)" stroke-width="7" stroke-linecap="round" stroke-linejoin="round" fill="none" stroke="#000000" d="M2131 3722H5084V3642H2131V3722"/>
<path transform="matrix(.12,0,0,-.12,14,547)" stroke-width="7" stroke-linecap="round" stroke-linejoin="round" fill="none" stroke="#000000" d="M5084 3642V850H5004V3642H5084"/>
<path transform="matrix(.12,0,0,-.12,14,547)" stroke-width="7" stroke-linecap="round" stroke-linejoin="round" fill="none" stroke="#000000" d="M2131 3642V850H2212V3642H2131"/>
<g inkscape:groupmode="layer" inkscape:label="KITCHEN AND BATH">
<path transform="matrix(.12,0,0,-.12,14,547)" stroke-width="3" stroke-linecap="round" stroke-linejoin="round" fill="none" stroke="#808080" d="M3070 3353 3360 3113"/>
<path transform="matrix(.12,0,0,-.12,14,547)" stroke-width="3" stroke-linecap="round" stroke-linejoin="round" fill="none" stroke="#808080" d="M3375 3101V3101"/>
<path transform="matrix(.12,0,0,-.12,14,547)" stroke-width="3" stroke-linecap="round" stroke-linejoin="round" fill="none" stroke="#808080" d="M3355 3116 3292 3135"/>
<path transform="matrix(.12,0,0,-.12,14,547)" stroke-width="3" stroke-linecap="round" stroke-linejoin="round" fill="none" stroke="#808080" d="M3282.078 3135.603C3285.7257 3134.9119 3289.461 3134.8143 3293.1397 3135.3135"/>
<path transform="matrix(.12,0,0,-.12,14,547)" stroke-width="3" stroke-linecap="round" stroke-linejoin="round" fill="none" stroke="#808080" d="M3270.8988 3133.0404C3274.5035 3133.5296 3278.083 3134.1903 3281.625 3135.0203"/>
<path transform="matrix(.12,0,0,-.12,14,547)" stroke-width="3" stroke-linecap="round" stroke-linejoin="round" fill="none" stroke="#808080" d="M3270.9456 3133.2774C3258.1138 3130.6265 3245.3177 3127.8057 3232.5604 3124.8162"/>
<path transform="matrix(.12,0,0,-.12,14,547)" stroke-width="3" stroke-linecap="round" stroke-linejoin="round" fill="none" stroke="#808080" d="M3232.2857 3125.0479C3213.2066 3121.8558 3194.19 3118.302 3175.2457 3114.3883"/>
<path transform="matrix(.12,0,0,-.12,14,547)" stroke-width="3" stroke-linecap="round" stroke-linejoin="round" fill="none" stroke="#808080" d="M3113 3236 3105 3180 3106 3103 3175 3114"/>
<path transform="matrix(.12,0,0,-.12,14,547)" stroke-width="3" stroke-linecap="round" stroke-linejoin="round" fill="none" stroke="#808080" d="M3108.0718 3288.571C3105.579 3271.134 3107.4505 3253.351 3113.5179 3236.815"/>
<path transform="matrix(.12,0,0,-.12,14,547)" stroke-width="3" stroke-linecap="round" stroke-linejoin="round" fill="none" stroke="#808080" d="M3070.5557 3353.202C3079.2303 3329.56 3091.873 3307.5706 3107.9403 3288.179"/>
<path transform="matrix(.12,0,0,-.12,14,547)" stroke-width="3" stroke-linecap="round" stroke-linejoin="round" fill="none" stroke="#808080" d="M3070 3353H2504"/>
<path transform="matrix(.12,0,0,-.12,14,547)" stroke-width="3" stroke-linecap="round" stroke-linejoin="round" fill="none" stroke="#808080" d="M2504.5 3353C2498.1488 3353 2493 3347.8514 2493 3341.5"/>
<path transform="matrix(.12,0,0,-.12,14,547)" stroke-width="3" stroke-linecap="round" stroke-linejoin="round" fill="none" stroke="#808080" d="M2493 3341V2480"/>
<path transform="matrix(.12,0,0,-.12,14,547)" stroke-width="3" stroke-linecap="round" stroke-linejoin="round" fill="none" stroke="#808080" d="M2493 2480.5C2493 2474.1488 2498.1488 2469 2504.5 2469"/>
<path transform="matrix(.12,0,0,-.12,14,547)" stroke-width="3" stroke-linecap="round" stroke-linejoin="round" fill="none" stroke="#808080" d="M2504 2468H3348"/>
<path transform="matrix(.12,0,0,-.12,14,547)" stroke-width="3" stroke-linecap="round" stroke-linejoin="round" fill="none" stroke="#808080" d="M3375 2497V3101"/>
<path transform="matrix(.12,0,0,-.12,14,547)" stroke-width="3" stroke-linecap="round" stroke-linejoin="round" fill="none" stroke="#808080" d="M3375 2461H2477V3642H3375V2461"/>
<path transform="matrix(.12,0,0,-.12,14,547)" stroke-width="3" stroke-linecap="round" stroke-linejoin="round" fill="none" stroke="#808080" d="M2477 3611H3375"/>
<path transform="matrix(.12,0,0,-.12,14,547)" stroke-width="3" stroke-linecap="round" stroke-linejoin="round" fill="none" stroke="#808080" d="M2629.43 3379.481C2624.0196 3377.8065 2618.642 3376.0264 2613.301 3374.1424"/>
<path transform="matrix(.12,0,0,-.12,14,547)" stroke-width="3" stroke-linecap="round" stroke-linejoin="round" fill="none" stroke="#808080" d="M2645.301 3386.1424C2639.9598 3384.2586 2634.6558 3382.2708 2629.3919 3380.1802"/>
<path transform="matrix(.12,0,0,-.12,14,547)" stroke-width="3" stroke-linecap="round" stroke-linejoin="round" fill="none" stroke="#808080" d="M2658.3919 3391.1802C2654.0877 3389.4708 2649.8106 3387.693 2645.563 3385.8475"/>
<path transform="matrix(.12,0,0,-.12,14,547)" stroke-width="3" stroke-linecap="round" stroke-linejoin="round" fill="none" stroke="#808080" d="M2670.563 3396.8475C2666.3023 3394.9964 2662.0716 3393.0775 2657.8724 3391.0914"/>
<path transform="matrix(.12,0,0,-.12,14,547)" stroke-width="3" stroke-linecap="round" stroke-linejoin="round" fill="none" stroke="#808080" d="M2978.8333 3567.673C2975.612 3574.1109 2969.2503 3578.3873 2962.0728 3578.9398"/>
<path transform="matrix(.12,0,0,-.12,14,547)" stroke-width="3" stroke-linecap="round" stroke-linejoin="round" fill="none" stroke="#808080" d="M2961.966 3578.1448C2964.2598 3578.6019 2966.2088 3580.1029 2967.2369 3582.2037 2968.2647 3584.3045 2968.2537 3586.7645 2967.2073 3588.856"/>
<path transform="matrix(.12,0,0,-.12,14,547)" stroke-width="3" stroke-linecap="round" stroke-linejoin="round" fill="none" stroke="#808080" d="M2967.5 3589C2971.0113 3589 2974.514 3589.3458 2977.9576 3590.032"/>
<path transform="matrix(.12,0,0,-.12,14,547)" stroke-width="3" stroke-linecap="round" stroke-linejoin="round" fill="none" stroke="#808080" d="M2978.4874 3590.0338C2983.1265 3589.3455 2987.81 3589 2992.5 3589"/>
<path transform="matrix(.12,0,0,-.12,14,547)" stroke-width="3" stroke-linecap="round" stroke-linejoin="round" fill="none" stroke="#808080" d="M2991.7965 3589.7337C2999.142 3587.6629 3006.6124 3586.0628 3014.1619 3584.9429"/>
<path transform="matrix(.12,0,0,-.12,14,547)" stroke-width="3" stroke-linecap="round" stroke-linejoin="round" fill="none" stroke="#808080" d="M3034.4359 3580.6168C3027.8475 3582.474 3021.1346 3583.8577 3014.3487 3584.7569"/>
<path transform="matrix(.12,0,0,-.12,14,547)" stroke-width="3" stroke-linecap="round" stroke-linejoin="round" fill="none" stroke="#808080" d="M3087.4998 3577.5042C3069.9293 3579.8323 3052.224 3581 3034.5 3581"/>
<path transform="matrix(.12,0,0,-.12,14,547)" stroke-width="3" stroke-linecap="round" stroke-linejoin="round" fill="none" stroke="#808080" d="M3153.5 3581C3131.5589 3581 3109.633 3579.8343 3087.8155 3577.508"/>
<path transform="matrix(.12,0,0,-.12,14,547)" stroke-width="3" stroke-linecap="round" stroke-linejoin="round" fill="none" stroke="#808080" d="M3175.3663 3583.2386C3167.9473 3582.4476 3160.559 3581.3909 3153.2156 3580.071"/>
<path transform="matrix(.12,0,0,-.12,14,547)" stroke-width="3" stroke-linecap="round" stroke-linejoin="round" fill="none" stroke="#808080" d="M3175.463 3584.088C3179.4449 3584.2642 3183.4105 3584.7066 3187.3336 3585.4117"/>
<path transform="matrix(.12,0,0,-.12,14,547)" stroke-width="3" stroke-linecap="round" stroke-linejoin="round" fill="none" stroke="#808080" d="M3187.1463 3584.6019C3194.4454 3583.9888 3201.7762 3583.8438 3209.094 3584.1683"/>
<path transform="matrix(.12,0,0,-.12,14,547)" stroke-width="3" stroke-linecap="round" stroke-linejoin="round" fill="none" stroke="#808080" d="M3246.645 3582.1915C3234.0194 3583.2518 3221.359 3583.8465 3208.6893 3583.9739"/>
<path transform="matrix(.12,0,0,-.12,14,547)" stroke-width="3" stroke-linecap="round" stroke-linejoin="round" fill="none" stroke="#808080" d="M3285.3839 3582.9554C3272.6363 3583.0836 3259.8875 3582.9359 3247.1463 3582.5118"/>
<path transform="matrix(.12,0,0,-.12,14,547)" stroke-width="3" stroke-linecap="round" stroke-linejoin="round" fill="none" stroke="#808080" d="M3313.3846 3584.732C3303.944 3584.4178 3294.515 3583.8277 3285.109 3582.9622"/>
<path transform="matrix(.12,0,0,-.12,14,547)" stroke-width="3" stroke-linecap="round" stroke-linejoin="round" fill="none" stroke="#808080" d="M3326.6138 3588.8675C3321.9605 3588.4395 3317.4608 3586.9813 3313.4407 3584.5989"/>
<path transform="matrix(.12,0,0,-.12,14,547)" stroke-width="3" stroke-linecap="round" stroke-linejoin="round" fill="none" stroke="#808080" d="M3327.1876 3589.0494C3330.764 3588.7803 3334.3365 3589.6168 3337.4219 3591.445"/>
<path transform="matrix(.12,0,0,-.12,14,547)" stroke-width="3" stroke-linecap="round" stroke-linejoin="round" fill="none" stroke="#808080" d="M3337.1185 3592.0357C3338.4908 3591.487 3339.9388 3591.1517 3341.4127 3591.0408"/>
<path transform="matrix(.12,0,0,-.12,14,547)" stroke-width="3" stroke-linecap="round" stroke-linejoin="round" fill="none" stroke="#808080" d="M3341.1444 3590.6629C3341.385 3589.9859 3341.905 3589.445 3342.5723 3589.1785"/>
<path transform="matrix(.12,0,0,-.12,14,547)" stroke-width="3" stroke-linecap="round" stroke-linejoin="round" fill="none" stroke="#808080" d="M3342.809 3589.9678C3342.278 3590.0797 3341.728 3589.896 3341.3709 3589.4874 3341.0135 3589.0787 3340.9049 3588.509 3341.0867 3587.9976"/>
<path transform="matrix(.12,0,0,-.12,14,547)" stroke-width="3" stroke-linecap="round" stroke-linejoin="round" fill="none" stroke="#808080" d="M3337.9849 3586.0538C3339.1705 3585.804 3340.3646 3586.4405 3340.818 3587.564"/>
<path transform="matrix(.12,0,0,-.12,14,547)" stroke-width="3" stroke-linecap="round" stroke-linejoin="round" fill="none" stroke="#808080" d="M3338.3089 3578.9429C3339.2183 3581.1949 3339.2308 3583.7093 3338.3436 3585.97"/>
<path transform="matrix(.12,0,0,-.12,14,547)" stroke-width="3" stroke-linecap="round" stroke-linejoin="round" fill="none" stroke="#808080" d="M3338.1964 3579.2596C3337.719 3575.9215 3338.1158 3572.5167 3339.3475 3569.3775"/>
<path transform="matrix(.12,0,0,-.12,14,547)" stroke-width="3" stroke-linecap="round" stroke-linejoin="round" fill="none" stroke="#808080" d="M3339.2364 3569.0167C3338.531 3565.7293 3337.94 3562.4185 3337.4644 3559.09"/>
<path transform="matrix(.12,0,0,-.12,14,547)" stroke-width="3" stroke-linecap="round" stroke-linejoin="round" fill="none" stroke="#808080" d="M3336.3865 3550.856C3337.0216 3553.8155 3337.5418 3556.7987 3337.946 3559.7984"/>
<path transform="matrix(.12,0,0,-.12,14,547)" stroke-width="3" stroke-linecap="round" stroke-linejoin="round" fill="none" stroke="#808080" d="M3335 3550 3331 3510"/>
<path transform="matrix(.12,0,0,-.12,14,547)" stroke-width="3" stroke-linecap="round" stroke-linejoin="round" fill="none" stroke="#808080" d="M3331.3087 3474.9759C3331.9927 3486.605 3332.1693 3498.258 3331.8377 3509.9027"/>
<path transform="matrix(.12,0,0,-.12,14,547)" stroke-width="3" stroke-linecap="round" stroke-linejoin="round" fill="none" stroke="#808080" d="M3331 3475 3332 3455 3335 3392"/>
<path transform="matrix(.12,0,0,-.12,14,547)" stroke-width="3" stroke-linecap="round" stroke-linejoin="round" fill="none" stroke="#808080" d="M3338.6456 3371.084C3338.208 3378.2308 3337.3656 3385.347 3336.1226 3392.3985"/>
<path transform="matrix(.12,0,0,-.12,14,547)" stroke-width="3" stroke-linecap="round" stroke-linejoin="round" fill="none" stroke="#808080" d="M3338.485 3370.8045C3337.9696 3369.086 3337.863 3367.2706 3338.1746 3365.5035"/>
<path transform="matrix(.12,0,0,-.12,14,547)" stroke-width="3" stroke-linecap="round" stroke-linejoin="round" fill="none" stroke="#808080" d="M3337 3364V3364"/>
<path transform="matrix(.12,0,0,-.12,14,547)" stroke-width="3" stroke-linecap="round" stroke-linejoin="round" fill="none" stroke="#808080" d="M3336.8865 3364.9498C3334.2667 3365.712 3331.59 3366.265 3328.8826 3366.603"/>
<path transform="matrix(.12,0,0,-.12,14,547)" stroke-width="3" stroke-linecap="round" stroke-linejoin="round" fill="none" stroke="#808080" d="M3329.3577 3366.9378C3326.753 3368.2813 3324.0245 3369.3699 3321.2105 3370.1888"/>
<path transform="matrix(.12,0,0,-.12,14,547)" stroke-width="3" stroke-linecap="round" stroke-linejoin="round" fill="none" stroke="#808080" d="M3314.352 3371.9486C3316.3299 3370.9283 3318.428 3370.1614 3320.5972 3369.6658"/>
<path transform="matrix(.12,0,0,-.12,14,547)" stroke-width="3" stroke-linecap="round" stroke-linejoin="round" fill="none" stroke="#808080" d="M3301.2325 3374.1734C3305.7947 3373.1309 3310.4339 3372.4603 3315.1048 3372.1685"/>
<path transform="matrix(.12,0,0,-.12,14,547)" stroke-width="3" stroke-linecap="round" stroke-linejoin="round" fill="none" stroke="#808080" d="M3300 3374 3261 3375H3187L3130 3373 3105 3371"/>
<path transform="matrix(.12,0,0,-.12,14,547)" stroke-width="3" stroke-linecap="round" stroke-linejoin="round" fill="none" stroke="#808080" d="M3105.7515 3372.047C3096.7222 3371.614 3087.7005 3371.0333 3078.69 3370.3052"/>
<path transform="matrix(.12,0,0,-.12,14,547)" stroke-width="3" stroke-linecap="round" stroke-linejoin="round" fill="none" stroke="#808080" d="M3078.648 3369.2528C3067.586 3371.5147 3056.285 3372.3856 3045.007 3371.8443"/>
<path transform="matrix(.12,0,0,-.12,14,547)" stroke-width="3" stroke-linecap="round" stroke-linejoin="round" fill="none" stroke="#808080" d="M3018.1695 3373.754C3027.0574 3371.9364 3036.176 3371.5284 3045.191 3372.5447"/>
<path transform="matrix(.12,0,0,-.12,14,547)" stroke-width="3" stroke-linecap="round" stroke-linejoin="round" fill="none" stroke="#808080" d="M3004.3983 3371.4439C3008.866 3371.9476 3013.2752 3372.8775 3017.5657 3374.221"/>
<path transform="matrix(.12,0,0,-.12,14,547)" stroke-width="3" stroke-linecap="round" stroke-linejoin="round" fill="none" stroke="#808080" d="M3005.167 3371.147C2999.023 3370.12 2992.9569 3368.671 2987.012 3366.8096"/>
<path transform="matrix(.12,0,0,-.12,14,547)" stroke-width="3" stroke-linecap="round" stroke-linejoin="round" fill="none" stroke="#808080" d="M2986.1478 3366.5955C2981.1439 3366.2386 2976.1595 3365.6456 2971.2115 3364.8187"/>
<path transform="matrix(.12,0,0,-.12,14,547)" stroke-width="3" stroke-linecap="round" stroke-linejoin="round" fill="none" stroke="#808080" d="M2971 3365V3365"/>
<path transform="matrix(.12,0,0,-.12,14,547)" stroke-width="3" stroke-linecap="round" stroke-linejoin="round" fill="none" stroke="#808080" d="M2970 3365 2975 3383 2987 3432"/>
<path transform="matrix(.12,0,0,-.12,14,547)" stroke-width="3" stroke-linecap="round" stroke-linejoin="round" fill="none" stroke="#808080" d="M2989.181 3443.0867C2988.2474 3439.355 2987.8638 3435.5067 2988.0428 3431.664"/>
<path transform="matrix(.12,0,0,-.12,14,547)" stroke-width="3" stroke-linecap="round" stroke-linejoin="round" fill="none" stroke="#808080" d="M2984.421 3479.3953C2984.9835 3467.3072 2986.1092 3455.2518 2987.794 3443.2684"/>
<path transform="matrix(.12,0,0,-.12,14,547)" stroke-width="3" stroke-linecap="round" stroke-linejoin="round" fill="none" stroke="#808080" d="M2982.8265 3493.3936C2983.4639 3488.8597 2984.267 3484.3507 2985.2347 3479.8756"/>
<path transform="matrix(.12,0,0,-.12,14,547)" stroke-width="3" stroke-linecap="round" stroke-linejoin="round" fill="none" stroke="#808080" d="M2982.5826 3493.0596C2981.3009 3500.5697 2979.8546 3508.0509 2978.2445 3515.4974"/>
<path transform="matrix(.12,0,0,-.12,14,547)" stroke-width="3" stroke-linecap="round" stroke-linejoin="round" fill="none" stroke="#808080" d="M2979 3515.5C2979 3522.2933 2978.4256 3529.0743 2977.2828 3535.7708"/>
<path transform="matrix(.12,0,0,-.12,14,547)" stroke-width="3" stroke-linecap="round" stroke-linejoin="round" fill="none" stroke="#808080" d="M2977.2818 3535.9512C2978.4266 3546.4285 2979 3556.9603 2979 3567.5"/>
<path transform="matrix(.12,0,0,-.12,14,547)" stroke-width="3" stroke-linecap="round" stroke-linejoin="round" fill="none" stroke="#808080" d="M3048.43 3379.481C3043.0196 3377.8065 3037.642 3376.0264 3032.301 3374.1424"/>
<path transform="matrix(.12,0,0,-.12,14,547)" stroke-width="3" stroke-linecap="round" stroke-linejoin="round" fill="none" stroke="#808080" d="M3064.301 3386.1424C3058.9598 3384.2586 3053.6558 3382.2708 3048.3919 3380.1802"/>
<path transform="matrix(.12,0,0,-.12,14,547)" stroke-width="3" stroke-linecap="round" stroke-linejoin="round" fill="none" stroke="#808080" d="M3076.3919 3391.1802C3072.0877 3389.4708 3067.8106 3387.693 3063.563 3385.8475"/>
<path transform="matrix(.12,0,0,-.12,14,547)" stroke-width="3" stroke-linecap="round" stroke-linejoin="round" fill="none" stroke="#808080" d="M3089.563 3396.8475C3085.3023 3394.9964 3081.0716 3393.0775 3076.8724 3391.0914"/>
<path transform="matrix(.12,0,0,-.12,14,547)" stroke-width="3" stroke-linecap="round" stroke-linejoin="round" fill="none" stroke="#808080" d="M2559.8333 3567.673C2556.612 3574.1109 2550.2503 3578.3873 2543.0728 3578.9398"/>
<path transform="matrix(.12,0,0,-.12,14,547)" stroke-width="3" stroke-linecap="round" stroke-linejoin="round" fill="none" stroke="#808080" d="M2542.966 3578.1448C2545.2598 3578.6019 2547.2088 3580.1029 2548.2369 3582.2037 2549.2647 3584.3045 2549.2537 3586.7645 2548.2073 3588.856"/>
<path transform="matrix(.12,0,0,-.12,14,547)" stroke-width="3" stroke-linecap="round" stroke-linejoin="round" fill="none" stroke="#808080" d="M2548.5 3589C2552.0113 3589 2555.514 3589.3458 2558.9576 3590.032"/>
<path transform="matrix(.12,0,0,-.12,14,547)" stroke-width="3" stroke-linecap="round" stroke-linejoin="round" fill="none" stroke="#808080" d="M2559.4874 3590.0338C2564.1265 3589.3455 2568.81 3589 2573.5 3589"/>
<path transform="matrix(.12,0,0,-.12,14,547)" stroke-width="3" stroke-linecap="round" stroke-linejoin="round" fill="none" stroke="#808080" d="M2573.7965 3589.7337C2581.142 3587.6629 2588.6124 3586.0628 2596.1619 3584.9429"/>
<path transform="matrix(.12,0,0,-.12,14,547)" stroke-width="3" stroke-linecap="round" stroke-linejoin="round" fill="none" stroke="#808080" d="M2615.4359 3580.6168C2608.8475 3582.474 2602.1346 3583.8577 2595.3487 3584.7569"/>
<path transform="matrix(.12,0,0,-.12,14,547)" stroke-width="3" stroke-linecap="round" stroke-linejoin="round" fill="none" stroke="#808080" d="M2668.4998 3577.5042C2650.9293 3579.8323 2633.224 3581 2615.5 3581"/>
<path transform="matrix(.12,0,0,-.12,14,547)" stroke-width="3" stroke-linecap="round" stroke-linejoin="round" fill="none" stroke="#808080" d="M2734.5 3581C2712.5589 3581 2690.633 3579.8343 2668.8155 3577.508"/>
<path transform="matrix(.12,0,0,-.12,14,547)" stroke-width="3" stroke-linecap="round" stroke-linejoin="round" fill="none" stroke="#808080" d="M2756.3663 3583.2386C2748.9473 3582.4476 2741.559 3581.3909 2734.2156 3580.071"/>
<path transform="matrix(.12,0,0,-.12,14,547)" stroke-width="3" stroke-linecap="round" stroke-linejoin="round" fill="none" stroke="#808080" d="M2756.463 3584.088C2760.4449 3584.2642 2764.4105 3584.7066 2768.3336 3585.4117"/>
<path transform="matrix(.12,0,0,-.12,14,547)" stroke-width="3" stroke-linecap="round" stroke-linejoin="round" fill="none" stroke="#808080" d="M2768.1463 3584.6019C2775.4454 3583.9888 2782.7762 3583.8438 2790.094 3584.1683"/>
<path transform="matrix(.12,0,0,-.12,14,547)" stroke-width="3" stroke-linecap="round" stroke-linejoin="round" fill="none" stroke="#808080" d="M2828.645 3582.1915C2816.0194 3583.2518 2803.359 3583.8465 2790.6893 3583.9739"/>
<path transform="matrix(.12,0,0,-.12,14,547)" stroke-width="3" stroke-linecap="round" stroke-linejoin="round" fill="none" stroke="#808080" d="M2866.3839 3582.9554C2853.6363 3583.0836 2840.8875 3582.9359 2828.1463 3582.5118"/>
<path transform="matrix(.12,0,0,-.12,14,547)" stroke-width="3" stroke-linecap="round" stroke-linejoin="round" fill="none" stroke="#808080" d="M2894.3846 3584.732C2884.944 3584.4178 2875.515 3583.8277 2866.109 3582.9622"/>
<path transform="matrix(.12,0,0,-.12,14,547)" stroke-width="3" stroke-linecap="round" stroke-linejoin="round" fill="none" stroke="#808080" d="M2908.6138 3588.8675C2903.9605 3588.4395 2899.4608 3586.9813 2895.4407 3584.5989"/>
<path transform="matrix(.12,0,0,-.12,14,547)" stroke-width="3" stroke-linecap="round" stroke-linejoin="round" fill="none" stroke="#808080" d="M2908.1876 3589.0494C2911.764 3588.7803 2915.3365 3589.6168 2918.4219 3591.445"/>
<path transform="matrix(.12,0,0,-.12,14,547)" stroke-width="3" stroke-linecap="round" stroke-linejoin="round" fill="none" stroke="#808080" d="M2918.1185 3592.0357C2919.4908 3591.487 2920.9388 3591.1517 2922.4127 3591.0408"/>
<path transform="matrix(.12,0,0,-.12,14,547)" stroke-width="3" stroke-linecap="round" stroke-linejoin="round" fill="none" stroke="#808080" d="M2922.1444 3590.6629C2922.385 3589.9859 2922.905 3589.445 2923.5723 3589.1785"/>
<path transform="matrix(.12,0,0,-.12,14,547)" stroke-width="3" stroke-linecap="round" stroke-linejoin="round" fill="none" stroke="#808080" d="M2923.809 3589.9678C2923.278 3590.0797 2922.728 3589.896 2922.3709 3589.4874 2922.0135 3589.0787 2921.9049 3588.509 2922.0867 3587.9976"/>
<path transform="matrix(.12,0,0,-.12,14,547)" stroke-width="3" stroke-linecap="round" stroke-linejoin="round" fill="none" stroke="#808080" d="M2918.9849 3586.0538C2920.1705 3585.804 2921.3646 3586.4405 2921.818 3587.564"/>
<path transform="matrix(.12,0,0,-.12,14,547)" stroke-width="3" stroke-linecap="round" stroke-linejoin="round" fill="none" stroke="#808080" d="M2919.3089 3578.9429C2920.2183 3581.1949 2920.2308 3583.7093 2919.3436 3585.97"/>
<path transform="matrix(.12,0,0,-.12,14,547)" stroke-width="3" stroke-linecap="round" stroke-linejoin="round" fill="none" stroke="#808080" d="M2919.1964 3579.2596C2918.719 3575.9215 2919.1158 3572.5167 2920.3475 3569.3775"/>
<path transform="matrix(.12,0,0,-.12,14,547)" stroke-width="3" stroke-linecap="round" stroke-linejoin="round" fill="none" stroke="#808080" d="M2920.2364 3569.0167C2919.531 3565.7293 2918.94 3562.4185 2918.4644 3559.09"/>
<path transform="matrix(.12,0,0,-.12,14,547)" stroke-width="3" stroke-linecap="round" stroke-linejoin="round" fill="none" stroke="#808080" d="M2917.3865 3550.856C2918.0216 3553.8155 2918.5418 3556.7987 2918.946 3559.7984"/>
<path transform="matrix(.12,0,0,-.12,14,547)" stroke-width="3" stroke-linecap="round" stroke-linejoin="round" fill="none" stroke="#808080" d="M2916 3550 2913 3510"/>
<path transform="matrix(.12,0,0,-.12,14,547)" stroke-width="3" stroke-linecap="round" stroke-linejoin="round" fill="none" stroke="#808080" d="M2912.3087 3474.9759C2912.9927 3486.605 2913.1693 3498.258 2912.8377 3509.9027"/>
<path transform="matrix(.12,0,0,-.12,14,547)" stroke-width="3" stroke-linecap="round" stroke-linejoin="round" fill="none" stroke="#808080" d="M2912 3475 2913 3455 2916 3392"/>
<path transform="matrix(.12,0,0,-.12,14,547)" stroke-width="3" stroke-linecap="round" stroke-linejoin="round" fill="none" stroke="#808080" d="M2919.6456 3371.084C2919.208 3378.2308 2918.3656 3385.347 2917.1226 3392.3985"/>
<path transform="matrix(.12,0,0,-.12,14,547)" stroke-width="3" stroke-linecap="round" stroke-linejoin="round" fill="none" stroke="#808080" d="M2919.485 3370.8045C2918.9696 3369.086 2918.863 3367.2706 2919.1746 3365.5035"/>
<path transform="matrix(.12,0,0,-.12,14,547)" stroke-width="3" stroke-linecap="round" stroke-linejoin="round" fill="none" stroke="#808080" d="M2919 3364V3364"/>
<path transform="matrix(.12,0,0,-.12,14,547)" stroke-width="3" stroke-linecap="round" stroke-linejoin="round" fill="none" stroke="#808080" d="M2917.8865 3364.9498C2915.2667 3365.712 2912.59 3366.265 2909.8826 3366.603"/>
<path transform="matrix(.12,0,0,-.12,14,547)" stroke-width="3" stroke-linecap="round" stroke-linejoin="round" fill="none" stroke="#808080" d="M2910.3577 3366.9378C2907.753 3368.2813 2905.0245 3369.3699 2902.2105 3370.1888"/>
<path transform="matrix(.12,0,0,-.12,14,547)" stroke-width="3" stroke-linecap="round" stroke-linejoin="round" fill="none" stroke="#808080" d="M2896.352 3371.9486C2898.3299 3370.9283 2900.428 3370.1614 2902.5972 3369.6658"/>
<path transform="matrix(.12,0,0,-.12,14,547)" stroke-width="3" stroke-linecap="round" stroke-linejoin="round" fill="none" stroke="#808080" d="M2882.2325 3374.1734C2886.7947 3373.1309 2891.4339 3372.4603 2896.1048 3372.1685"/>
<path transform="matrix(.12,0,0,-.12,14,547)" stroke-width="3" stroke-linecap="round" stroke-linejoin="round" fill="none" stroke="#808080" d="M2882 3374 2842 3375H2768L2711 3373 2686 3371"/>
<path transform="matrix(.12,0,0,-.12,14,547)" stroke-width="3" stroke-linecap="round" stroke-linejoin="round" fill="none" stroke="#808080" d="M2686.7515 3372.047C2677.7222 3371.614 2668.7005 3371.0333 2659.69 3370.3052"/>
<path transform="matrix(.12,0,0,-.12,14,547)" stroke-width="3" stroke-linecap="round" stroke-linejoin="round" fill="none" stroke="#808080" d="M2659.648 3369.2528C2648.586 3371.5147 2637.285 3372.3856 2626.007 3371.8443"/>
<path transform="matrix(.12,0,0,-.12,14,547)" stroke-width="3" stroke-linecap="round" stroke-linejoin="round" fill="none" stroke="#808080" d="M2599.1695 3373.754C2608.0574 3371.9364 2617.176 3371.5284 2626.191 3372.5447"/>
<path transform="matrix(.12,0,0,-.12,14,547)" stroke-width="3" stroke-linecap="round" stroke-linejoin="round" fill="none" stroke="#808080" d="M2585.3983 3371.4439C2589.866 3371.9476 2594.2752 3372.8775 2598.5657 3374.221"/>
<path transform="matrix(.12,0,0,-.12,14,547)" stroke-width="3" stroke-linecap="round" stroke-linejoin="round" fill="none" stroke="#808080" d="M2586.167 3371.147C2580.023 3370.12 2573.9569 3368.671 2568.012 3366.8096"/>
<path transform="matrix(.12,0,0,-.12,14,547)" stroke-width="3" stroke-linecap="round" stroke-linejoin="round" fill="none" stroke="#808080" d="M2568.1478 3366.5955C2563.1439 3366.2386 2558.1595 3365.6456 2553.2115 3364.8187"/>
<path transform="matrix(.12,0,0,-.12,14,547)" stroke-width="3" stroke-linecap="round" stroke-linejoin="round" fill="none" stroke="#808080" d="M2568 3432 2556 3383 2552 3365"/>
<path transform="matrix(.12,0,0,-.12,14,547)" stroke-width="3" stroke-linecap="round" stroke-linejoin="round" fill="none" stroke="#808080" d="M2570.181 3443.0867C2569.2474 3439.355 2568.8638 3435.5067 2569.0428 3431.664"/>
<path transform="matrix(.12,0,0,-.12,14,547)" stroke-width="3" stroke-linecap="round" stroke-linejoin="round" fill="none" stroke="#808080" d="M2566.421 3479.3953C2566.9835 3467.3072 2568.1092 3455.2518 2569.794 3443.2684"/>
<path transform="matrix(.12,0,0,-.12,14,547)" stroke-width="3" stroke-linecap="round" stroke-linejoin="round" fill="none" stroke="#808080" d="M2563.8265 3493.3936C2564.4639 3488.8597 2565.267 3484.3507 2566.2347 3479.8756"/>
<path transform="matrix(.12,0,0,-.12,14,547)" stroke-width="3" stroke-linecap="round" stroke-linejoin="round" fill="none" stroke="#808080" d="M2563.5826 3493.0596C2562.3009 3500.5697 2560.8546 3508.0509 2559.2445 3515.4974"/>
<path transform="matrix(.12,0,0,-.12,14,547)" stroke-width="3" stroke-linecap="round" stroke-linejoin="round" fill="none" stroke="#808080" d="M2560 3515.5C2560 3522.2933 2559.4256 3529.0743 2558.2828 3535.7708"/>
<path transform="matrix(.12,0,0,-.12,14,547)" stroke-width="3" stroke-linecap="round" stroke-linejoin="round" fill="none" stroke="#808080" d="M2558.2818 3535.9512C2559.4266 3546.4285 2560 3556.9603 2560 3567.5"/>
<path transform="matrix(.12,0,0,-.12,14,547)" stroke-width="3" stroke-linecap="round" stroke-linejoin="round" fill="none" stroke="#808080" d="M2890 3373 2867 3388"/>
<path transform="matrix(.12,0,0,-.12,14,547)" stroke-width="3" stroke-linecap="round" stroke-linejoin="round" fill="none" stroke="#808080" d="M2851.3616 3398.2659C2856.4854 3395.0474 2861.7642 3392.083 2867.1793 3389.3834"/>
<path transform="matrix(.12,0,0,-.12,14,547)" stroke-width="3" stroke-linecap="round" stroke-linejoin="round" fill="none" stroke="#808080" d="M2851 3397 2822 3411"/>
<path transform="matrix(.12,0,0,-.12,14,547)" stroke-width="3" stroke-linecap="round" stroke-linejoin="round" fill="none" stroke="#808080" d="M2805.1124 3418.5977C2810.9124 3415.975 2816.795 3413.5384 2822.7503 3411.2908"/>
<path transform="matrix(.12,0,0,-.12,14,547)" stroke-width="3" stroke-linecap="round" stroke-linejoin="round" fill="none" stroke="#808080" d="M2795.3187 3420.2222C2798.4403 3419.044 2801.7164 3418.325 2805.0445 3418.0875"/>
<path transform="matrix(.12,0,0,-.12,14,547)" stroke-width="3" stroke-linecap="round" stroke-linejoin="round" fill="none" stroke="#808080" d="M2774.0767 3421.407C2781.1907 3420.8995 2788.3309 3420.8665 2795.4495 3421.3087"/>
<path transform="matrix(.12,0,0,-.12,14,547)" stroke-width="3" stroke-linecap="round" stroke-linejoin="round" fill="none" stroke="#808080" d="M2493 3204.5C2493 3198.1488 2498.1488 3193 2504.5 3193"/>
<path transform="matrix(.12,0,0,-.12,14,547)" stroke-width="3" stroke-linecap="round" stroke-linejoin="round" fill="none" stroke="#808080" d="M2504 3192H3106"/>
<path transform="matrix(.12,0,0,-.12,14,547)" stroke-width="3" stroke-linecap="round" stroke-linejoin="round" fill="none" stroke="#808080" d="M2601.398 3517.4058C2601.911 3512.204 2602.9168 3507.063 2604.4024 3502.0516"/>
<path transform="matrix(.12,0,0,-.12,14,547)" stroke-width="3" stroke-linecap="round" stroke-linejoin="round" fill="none" stroke="#808080" d="M2595.4024 3532.0516C2596.889 3527.0377 2598.8487 3522.1766 2601.2552 3517.5338"/>
<path transform="matrix(.12,0,0,-.12,14,547)" stroke-width="3" stroke-linecap="round" stroke-linejoin="round" fill="none" stroke="#808080" d="M2580.2552 3552.5338C2584.1724 3544.9769 2589.2354 3538.0716 2595.2645 3532.063"/>
<path transform="matrix(.12,0,0,-.12,14,547)" stroke-width="3" stroke-linecap="round" stroke-linejoin="round" fill="none" stroke="#808080" d="M2560.2645 3567.063C2566.2938 3561.0548 2573.2164 3556.0157 2580.7867 3552.1246"/>
<path transform="matrix(.12,0,0,-.12,14,547)" stroke-width="3" stroke-linecap="round" stroke-linejoin="round" fill="none" stroke="#808080" d="M2577.7799 3521.3145C2576.5982 3516.8048 2576 3512.1619 2576 3507.5"/>
<path transform="matrix(.12,0,0,-.12,14,547)" stroke-width="3" stroke-linecap="round" stroke-linejoin="round" fill="none" stroke="#808080" d="M2576 3531.5C2576 3527.8316 2576.6026 3524.1878 2577.7838 3520.7147"/>
<path transform="matrix(.12,0,0,-.12,14,547)" stroke-width="3" stroke-linecap="round" stroke-linejoin="round" fill="none" stroke="#808080" d="M2574.4693 3537.3826C2575.1595 3535.3533 2575.903 3533.3426 2576.6995 3531.3526"/>
<path transform="matrix(.12,0,0,-.12,14,547)" stroke-width="3" stroke-linecap="round" stroke-linejoin="round" fill="none" stroke="#808080" d="M2571.4083 3543.2432C2572.0938 3541.5303 2572.8323 3539.839 2573.6224 3538.1719"/>
<path transform="matrix(.12,0,0,-.12,14,547)" stroke-width="3" stroke-linecap="round" stroke-linejoin="round" fill="none" stroke="#808080" d="M2567.0347 3550.0103C2568.299 3547.3424 2569.9322 3544.8653 2571.8863 3542.652"/>
<path transform="matrix(.12,0,0,-.12,14,547)" stroke-width="3" stroke-linecap="round" stroke-linejoin="round" fill="none" stroke="#808080" d="M2558.394 3557.0916C2560.929 3554.2203 2563.765 3551.6297 2566.853 3549.364"/>
<path transform="matrix(.12,0,0,-.12,14,547)" stroke-width="3" stroke-linecap="round" stroke-linejoin="round" fill="none" stroke="#808080" d="M2868.2022 3584.1583C2875.0587 3583.653 2881.9508 3584.3607 2888.5616 3586.248"/>
<path transform="matrix(.12,0,0,-.12,14,547)" stroke-width="3" stroke-linecap="round" stroke-linejoin="round" fill="none" stroke="#808080" d="M2849.5616 3575.248C2856.1727 3577.1358 2862.3992 3580.174 2867.9554 3584.2235"/>
<path transform="matrix(.12,0,0,-.12,14,547)" stroke-width="3" stroke-linecap="round" stroke-linejoin="round" fill="none" stroke="#808080" d="M2836.9554 3562.2235C2841.8436 3565.786 2846.15 3570.0853 2849.7205 3574.9678"/>
<path transform="matrix(.12,0,0,-.12,14,547)" stroke-width="3" stroke-linecap="round" stroke-linejoin="round" fill="none" stroke="#808080" d="M2828.7205 3545.9678C2832.291 3550.8504 2835.0828 3556.257 2836.996 3561.9954"/>
<path transform="matrix(.12,0,0,-.12,14,547)" stroke-width="3" stroke-linecap="round" stroke-linejoin="round" fill="none" stroke="#808080" d="M3244.8123 3576.0762C3249.6197 3577.9078 3254.3214 3580.0059 3258.8953 3582.3609"/>
<path transform="matrix(.12,0,0,-.12,14,547)" stroke-width="3" stroke-linecap="round" stroke-linejoin="round" fill="none" stroke="#808080" d="M3237.3267 3571.0465C3239.952 3572.3978 3242.4393 3574.0018 3244.7537 3575.8353"/>
<path transform="matrix(.12,0,0,-.12,14,547)" stroke-width="3" stroke-linecap="round" stroke-linejoin="round" fill="none" stroke="#808080" d="M3221.2523 3557.0406C3226.9827 3561.58 3232.4949 3566.389 3237.7706 3571.4503"/>
<path transform="matrix(.12,0,0,-.12,14,547)" stroke-width="3" stroke-linecap="round" stroke-linejoin="round" fill="none" stroke="#808080" d="M3209.2315 3545.8885C3213.2113 3549.7066 3216.9486 3553.7694 3220.4217 3558.0533"/>
<path transform="matrix(.12,0,0,-.12,14,547)" stroke-width="3" stroke-linecap="round" stroke-linejoin="round" fill="none" stroke="#808080" d="M3206.4146 3539.9215C3207.574 3541.351 3208.5968 3542.8863 3209.47 3544.5067"/>
<path transform="matrix(.12,0,0,-.12,14,547)" stroke-width="3" stroke-linecap="round" stroke-linejoin="round" fill="none" stroke="#808080" d="M3201.8197 3530.289C3203.5572 3533.5135 3205.144 3536.8167 3206.5755 3540.1883"/>
<path transform="matrix(.12,0,0,-.12,14,547)" stroke-width="3" stroke-linecap="round" stroke-linejoin="round" fill="none" stroke="#808080" d="M3286.2022 3584.1583C3293.0587 3583.653 3299.9508 3584.3607 3306.5616 3586.248"/>
<path transform="matrix(.12,0,0,-.12,14,547)" stroke-width="3" stroke-linecap="round" stroke-linejoin="round" fill="none" stroke="#808080" d="M3268.5616 3575.248C3275.1727 3577.1358 3281.3992 3580.174 3286.9554 3584.2235"/>
<path transform="matrix(.12,0,0,-.12,14,547)" stroke-width="3" stroke-linecap="round" stroke-linejoin="round" fill="none" stroke="#808080" d="M3254.9554 3562.2235C3259.8436 3565.786 3264.15 3570.0853 3267.7205 3574.9678"/>
<path transform="matrix(.12,0,0,-.12,14,547)" stroke-width="3" stroke-linecap="round" stroke-linejoin="round" fill="none" stroke="#808080" d="M3246.7205 3545.9678C3250.291 3550.8504 3253.0828 3556.257 3254.996 3561.9954"/>
<path transform="matrix(.12,0,0,-.12,14,547)" stroke-width="3" stroke-linecap="round" stroke-linejoin="round" fill="none" stroke="#808080" d="M2825.8123 3576.0762C2830.6197 3577.9078 2835.3214 3580.0059 2839.8953 3582.3609"/>
<path transform="matrix(.12,0,0,-.12,14,547)" stroke-width="3" stroke-linecap="round" stroke-linejoin="round" fill="none" stroke="#808080" d="M2818.3267 3571.0465C2820.952 3572.3978 2823.4393 3574.0018 2825.7537 3575.8353"/>
<path transform="matrix(.12,0,0,-.12,14,547)" stroke-width="3" stroke-linecap="round" stroke-linejoin="round" fill="none" stroke="#808080" d="M2802.2523 3557.0406C2807.9827 3561.58 2813.4949 3566.389 2818.7706 3571.4503"/>
<path transform="matrix(.12,0,0,-.12,14,547)" stroke-width="3" stroke-linecap="round" stroke-linejoin="round" fill="none" stroke="#808080" d="M2790.2315 3545.8885C2794.2113 3549.7066 2797.9486 3553.7694 2801.4217 3558.0533"/>
<path transform="matrix(.12,0,0,-.12,14,547)" stroke-width="3" stroke-linecap="round" stroke-linejoin="round" fill="none" stroke="#808080" d="M2787.4146 3539.9215C2788.574 3541.351 2789.5968 3542.8863 2790.47 3544.5067"/>
<path transform="matrix(.12,0,0,-.12,14,547)" stroke-width="3" stroke-linecap="round" stroke-linejoin="round" fill="none" stroke="#808080" d="M2782.8197 3530.289C2784.5572 3533.5135 2786.144 3536.8167 2787.5755 3540.1883"/>
<path transform="matrix(.12,0,0,-.12,14,547)" stroke-width="3" stroke-linecap="round" stroke-linejoin="round" fill="none" stroke="#808080" d="M3360 3113V2480"/>
<path transform="matrix(.12,0,0,-.12,14,547)" stroke-width="3" stroke-linecap="round" stroke-linejoin="round" fill="none" stroke="#808080" d="M3348.5 2469C3354.8514 2469 3360 2474.1488 3360 2480.5"/>
<path transform="matrix(.12,0,0,-.12,14,547)" stroke-width="5" stroke-linecap="round" stroke-linejoin="round" fill="none" stroke="#808080" d="M2405 3509.5C2405 3542.3609 2378.3609 3569 2345.5 3569 2312.6392 3569 2286 3542.3609 2286 3509.5 2286 3476.6392 2312.6392 3450 2345.5 3450 2378.3609 3450 2405 3476.6392 2405 3509.5"/>
<path transform="matrix(.12,0,0,-.12,14,547)" stroke-width="5" stroke-linecap="round" stroke-linejoin="round" fill="none" stroke="#808080" d="M2381 3509.5C2381 3529.1063 2365.1063 3545 2345.5 3545 2325.8939 3545 2310 3529.1063 2310 3509.5 2310 3489.8939 2325.8939 3474 2345.5 3474 2365.1063 3474 2381 3489.8939 2381 3509.5"/>
<path transform="matrix(.12,0,0,-.12,14,547)" stroke-width="5" stroke-linecap="round" stroke-linejoin="round" fill="none" stroke="#808080" d="M2345 3582V3436"/>
<path transform="matrix(.12,0,0,-.12,14,547)" stroke-width="5" stroke-linecap="round" stroke-linejoin="round" fill="none" stroke="#808080" d="M2272 3509H2417"/>
<path transform="matrix(.12,0,0,-.12,14,547)" stroke-width="5" stroke-linecap="round" stroke-linejoin="round" fill="none" stroke="#808080" d="M2477 3376V3642H2212V3376H2477"/>
<path transform="matrix(.12,0,0,-.12,14,547)" stroke-width="5" stroke-linecap="round" stroke-linejoin="round" fill="none" stroke="#808080" d="M3568 3509.5C3568 3542.3609 3541.3609 3569 3508.5 3569 3475.6392 3569 3449 3542.3609 3449 3509.5 3449 3476.6392 3475.6392 3450 3508.5 3450 3541.3609 3450 3568 3476.6392 3568 3509.5"/>
<path transform="matrix(.12,0,0,-.12,14,547)" stroke-width="5" stroke-linecap="round" stroke-linejoin="round" fill="none" stroke="#808080" d="M3544 3509.5C3544 3529.1063 3528.1063 3545 3508.5 3545 3488.8939 3545 3473 3529.1063 3473 3509.5 3473 3489.8939 3488.8939 3474 3508.5 3474 3528.1063 3474 3544 3489.8939 3544 3509.5"/>
<path transform="matrix(.12,0,0,-.12,14,547)" stroke-width="5" stroke-linecap="round" stroke-linejoin="round" fill="none" stroke="#808080" d="M3508 3582V3436"/>
<path transform="matrix(.12,0,0,-.12,14,547)" stroke-width="5" stroke-linecap="round" stroke-linejoin="round" fill="none" stroke="#808080" d="M3580 3509H3435"/>
<path transform="matrix(.12,0,0,-.12,14,547)" stroke-width="5" stroke-linecap="round" stroke-linejoin="round" fill="none" stroke="#808080" d="M3375 3376V3642H3641V3376H3375"/>
<path transform="matrix(.12,0,0,-.12,14,547)" stroke-width="5" stroke-linecap="round" stroke-linejoin="round" fill="none" stroke="#808080" d="M5004 3642V3287H4118V3642H5004"/>
<path transform="matrix(.12,0,0,-.12,14,547)" stroke-width="5" stroke-linecap="round" stroke-linejoin="round" fill="none" stroke="#808080" d="M4974 3612V3317H4148V3612H4974"/>
<path transform="matrix(.12,0,0,-.12,14,547)" stroke-width="5" stroke-linecap="round" stroke-linejoin="round" fill="none" stroke="#808080" d="M4974 3464H4148"/>
<path transform="matrix(.12,0,0,-.12,14,547)" stroke-width="5" stroke-linecap="round" stroke-linejoin="round" fill="none" stroke="#808080" d="M4458 3584H4476V3348H4458V3584"/>
<path transform="matrix(.12,0,0,-.12,14,547)" stroke-width="5" stroke-linecap="round" stroke-linejoin="round" fill="none" stroke="#808080" d="M4686 3583H4703V3346H4686V3583"/>
<path transform="matrix(.12,0,0,-.12,14,547)" stroke-width="5" stroke-linecap="round" stroke-linejoin="round" fill="none" stroke="#808080" d="M4568 3584H4585V3348H4568V3584"/>
<path transform="matrix(.12,0,0,-.12,14,547)" stroke-width="5" stroke-linecap="round" stroke-linejoin="round" fill="none" stroke="#808080" d="M4627 3583H4645V3346H4627V3583"/>
<path transform="matrix(.12,0,0,-.12,14,547)" stroke-width="5" stroke-linecap="round" stroke-linejoin="round" fill="none" stroke="#808080" d="M4509 3584H4527V3348H4509V3584"/>
<path transform="matrix(.12,0,0,-.12,14,547)" stroke-width="5" stroke-linecap="round" stroke-linejoin="round" fill="none" stroke="#808080" d="M4746 3584H4763V3348H4746V3584"/>
<path transform="matrix(.12,0,0,-.12,14,547)" stroke-width="5" stroke-linecap="round" stroke-linejoin="round" fill="none" stroke="#808080" d="M4340 3583H4358V3346H4340V3583"/>
<path transform="matrix(.12,0,0,-.12,14,547)" stroke-width="5" stroke-linecap="round" stroke-linejoin="round" fill="none" stroke="#808080" d="M4222 3584H4240V3348H4222V3584"/>
<path transform="matrix(.12,0,0,-.12,14,547)" stroke-width="5" stroke-linecap="round" stroke-linejoin="round" fill="none" stroke="#808080" d="M4282 3583H4300V3346H4282V3583"/>
<path transform="matrix(.12,0,0,-.12,14,547)" stroke-width="5" stroke-linecap="round" stroke-linejoin="round" fill="none" stroke="#808080" d="M4164 3584H4182V3348H4164V3584"/>
<path transform="matrix(.12,0,0,-.12,14,547)" stroke-width="5" stroke-linecap="round" stroke-linejoin="round" fill="none" stroke="#808080" d="M4400 3584H4418V3348H4400V3584"/>
<path transform="matrix(.12,0,0,-.12,14,547)" stroke-width="5" stroke-linecap="round" stroke-linejoin="round" fill="none" stroke="#808080" d="M4864 3583H4881V3346H4864V3583"/>
<path transform="matrix(.12,0,0,-.12,14,547)" stroke-width="5" stroke-linecap="round" stroke-linejoin="round" fill="none" stroke="#808080" d="M4805 3583H4823V3346H4805V3583"/>
<path transform="matrix(.12,0,0,-.12,14,547)" stroke-width="5" stroke-linecap="round" stroke-linejoin="round" fill="none" stroke="#808080" d="M4924 3584H4941V3348H4924V3584"/>
<path transform="matrix(.12,0,0,-.12,14,547)" stroke-width="5" stroke-linecap="round" stroke-linejoin="round" fill="none" stroke="#808080" d="M4986 1389V2104H4968V1389H4986"/>
<path transform="matrix(.12,0,0,-.12,14,547)" stroke-width="5" stroke-linecap="round" stroke-linejoin="round" fill="none" stroke="#808080" d="M5004 1537V1956L4986 2015V1478L5004 1537"/>
<text fill="#808080" xml:space="preserve" transform="matrix(-.0017951964 .119986567 -.119986567 -.0017951964 14 547)" font-size="52.345106" font-family="Arial"><tspan y="-4897.1945" x="-1828.4666 -1796.4838">TV</tspan></text>
</g>
<g inkscape:groupmode="layer" inkscape:label="0">
<path transform="matrix(.12,0,0,-.12,14,547)" stroke-width="6" stroke-linecap="round" stroke-linejoin="round" fill="none" stroke="#808080" d="M5004 2278H4709V1215H5004V2278"/>
</g>
<g inkscape:groupmode="layer" inkscape:label="KITCHEN AND BATH">
<path transform="matrix(.12,0,0,-.12,14,547)" stroke-width="5" stroke-linecap="round" stroke-linejoin="round" fill="none" stroke="#808080" d="M3980 2066V2066"/>
<path transform="matrix(.12,0,0,-.12,14,547)" stroke-width="5" stroke-linecap="round" stroke-linejoin="round" fill="none" stroke="#808080" d="M3719.5 2161C3702.103 2161 3688 2146.897 3688 2129.5"/>
<path transform="matrix(.12,0,0,-.12,14,547)" stroke-width="5" stroke-linecap="round" stroke-linejoin="round" fill="none" stroke="#808080" d="M4044 2129.5C4044 2146.897 4029.897 2161 4012.5 2161"/>
<path transform="matrix(.12,0,0,-.12,14,547)" stroke-width="5" stroke-linecap="round" stroke-linejoin="round" fill="none" stroke="#808080" d="M4012 2160H3719"/>
<path transform="matrix(.12,0,0,-.12,14,547)" stroke-width="5" stroke-linecap="round" stroke-linejoin="round" fill="none" stroke="#808080" d="M4043 2129V2066"/>
<path transform="matrix(.12,0,0,-.12,14,547)" stroke-width="5" stroke-linecap="round" stroke-linejoin="round" fill="none" stroke="#808080" d="M3688 1365.5C3688 1348.103 3702.103 1334 3719.5 1334"/>
<path transform="matrix(.12,0,0,-.12,14,547)" stroke-width="5" stroke-linecap="round" stroke-linejoin="round" fill="none" stroke="#808080" d="M4058 1747H3764"/>
<path transform="matrix(.12,0,0,-.12,14,547)" stroke-width="5" stroke-linecap="round" stroke-linejoin="round" fill="none" stroke="#808080" d="M3764 2066V1427"/>
<path transform="matrix(.12,0,0,-.12,14,547)" stroke-width="5" stroke-linecap="round" stroke-linejoin="round" fill="none" stroke="#808080" d="M3688 1365V2129"/>
<path transform="matrix(.12,0,0,-.12,14,547)" stroke-width="5" stroke-linecap="round" stroke-linejoin="round" fill="none" stroke="#808080" d="M4090 1715.5C4090 1732.897 4075.897 1747 4058.5 1747"/>
<path transform="matrix(.12,0,0,-.12,14,547)" stroke-width="5" stroke-linecap="round" stroke-linejoin="round" fill="none" stroke="#808080" d="M4058.5 1428C4075.897 1428 4090 1442.103 4090 1459.5"/>
<path transform="matrix(.12,0,0,-.12,14,547)" stroke-width="5" stroke-linecap="round" stroke-linejoin="round" fill="none" stroke="#808080" d="M4089 1715V1459"/>
<path transform="matrix(.12,0,0,-.12,14,547)" stroke-width="5" stroke-linecap="round" stroke-linejoin="round" fill="none" stroke="#808080" d="M4012.5 1334C4029.897 1334 4044 1348.103 4044 1365.5"/>
<path transform="matrix(.12,0,0,-.12,14,547)" stroke-width="5" stroke-linecap="round" stroke-linejoin="round" fill="none" stroke="#808080" d="M4043 1365V1427"/>
<path transform="matrix(.12,0,0,-.12,14,547)" stroke-width="5" stroke-linecap="round" stroke-linejoin="round" fill="none" stroke="#808080" d="M4058 1747H3764 4058"/>
<path transform="matrix(.12,0,0,-.12,14,547)" stroke-width="5" stroke-linecap="round" stroke-linejoin="round" fill="none" stroke="#808080" d="M4058 1427H3764"/>
<path transform="matrix(.12,0,0,-.12,14,547)" stroke-width="5" stroke-linecap="round" stroke-linejoin="round" fill="none" stroke="#808080" d="M4012 1333H3719"/>
<path transform="matrix(.12,0,0,-.12,14,547)" stroke-width="5" stroke-linecap="round" stroke-linejoin="round" fill="none" stroke="#808080" d="M4058 2066H3764"/>
<path transform="matrix(.12,0,0,-.12,14,547)" stroke-width="5" stroke-linecap="round" stroke-linejoin="round" fill="none" stroke="#808080" d="M4090 2035.5C4090 2052.897 4075.897 2067 4058.5 2067"/>
<path transform="matrix(.12,0,0,-.12,14,547)" stroke-width="5" stroke-linecap="round" stroke-linejoin="round" fill="none" stroke="#808080" d="M4058.5 1747C4075.897 1747 4090 1761.103 4090 1778.5"/>
<path transform="matrix(.12,0,0,-.12,14,547)" stroke-width="5" stroke-linecap="round" stroke-linejoin="round" fill="none" stroke="#808080" d="M4089 2035V1778"/>
<path transform="matrix(.12,0,0,-.12,14,547)" stroke-width="5" stroke-linecap="round" stroke-linejoin="round" fill="none" stroke="#808080" d="M4058 2066H3764 4058"/>
<path transform="matrix(.12,0,0,-.12,14,547)" stroke-width="5" stroke-linecap="round" stroke-linejoin="round" fill="none" stroke="#808080" d="M2448 1913H2212V850H2448V1913"/>
<path transform="matrix(.12,0,0,-.12,14,547)" stroke-width="5" stroke-linecap="round" stroke-linejoin="round" fill="none" stroke="#808080" d="M2793 1346 2772 1347"/>
<path transform="matrix(.12,0,0,-.12,14,547)" stroke-width="5" stroke-linecap="round" stroke-linejoin="round" fill="none" stroke="#808080" d="M2570.7652 1512.5125C2559.46 1514.2826 2547.9339 1511.1879 2539.036 1503.9933 2530.138 1496.7987 2524.6986 1486.1759 2524.0626 1474.7509"/>
<path transform="matrix(.12,0,0,-.12,14,547)" stroke-width="5" stroke-linecap="round" stroke-linejoin="round" fill="none" stroke="#808080" d="M2569.218 1502.6328C2560.7047 1503.966 2552.0242 1501.6353 2545.3233 1496.2172 2538.6224 1490.7991 2534.5262 1482.7992 2534.047 1474.1952"/>
<path transform="matrix(.12,0,0,-.12,14,547)" stroke-width="5" stroke-linecap="round" stroke-linejoin="round" fill="none" stroke="#808080" d="M2754 1409 2750 1328"/>
<path transform="matrix(.12,0,0,-.12,14,547)" stroke-width="5" stroke-linecap="round" stroke-linejoin="round" fill="none" stroke="#808080" d="M2769.323 1262.7814C2800.2928 1328.2128 2804.468 1403.156 2780.958 1471.6227"/>
<path transform="matrix(.12,0,0,-.12,14,547)" stroke-width="5" stroke-linecap="round" stroke-linejoin="round" fill="none" stroke="#808080" d="M2776 1414 2771 1320"/>
<path transform="matrix(.12,0,0,-.12,14,547)" stroke-width="5" stroke-linecap="round" stroke-linejoin="round" fill="none" stroke="#808080" d="M2797.3428 1249.0912C2831.7723 1322.0679 2836.4139 1405.6533 2810.2777 1482.0151"/>
<path transform="matrix(.12,0,0,-.12,14,547)" stroke-width="5" stroke-linecap="round" stroke-linejoin="round" fill="none" stroke="#808080" d="M2585 1515 2594 1555 2726 1515"/>
<path transform="matrix(.12,0,0,-.12,14,547)" stroke-width="5" stroke-linecap="round" stroke-linejoin="round" fill="none" stroke="#808080" d="M2743.9085 1483.1188C2747.9849 1496.5991 2740.3616 1510.8318 2726.881 1514.9083"/>
<path transform="matrix(.12,0,0,-.12,14,547)" stroke-width="5" stroke-linecap="round" stroke-linejoin="round" fill="none" stroke="#808080" d="M2743 1480V1483"/>
<path transform="matrix(.12,0,0,-.12,14,547)" stroke-width="5" stroke-linecap="round" stroke-linejoin="round" fill="none" stroke="#808080" d="M2780 1472 2810 1482"/>
<path transform="matrix(.12,0,0,-.12,14,547)" stroke-width="5" stroke-linecap="round" stroke-linejoin="round" fill="none" stroke="#808080" d="M2795 1382 2774 1383"/>
<path transform="matrix(.12,0,0,-.12,14,547)" stroke-width="5" stroke-linecap="round" stroke-linejoin="round" fill="none" stroke="#808080" d="M2776.905 1415.0819C2778.5836 1445.2362 2758.1187 1472.147 2728.612 1478.5859"/>
<path transform="matrix(.12,0,0,-.12,14,547)" stroke-width="5" stroke-linecap="round" stroke-linejoin="round" fill="none" stroke="#808080" d="M2754.905 1409.0819C2756.5836 1439.2362 2736.1187 1466.147 2706.612 1472.5859"/>
<path transform="matrix(.12,0,0,-.12,14,547)" stroke-width="5" stroke-linecap="round" stroke-linejoin="round" fill="none" stroke="#808080" d="M2585 1515 2743 1480"/>
<path transform="matrix(.12,0,0,-.12,14,547)" stroke-width="5" stroke-linecap="round" stroke-linejoin="round" fill="none" stroke="#808080" d="M2570 1512 2728 1478"/>
<path transform="matrix(.12,0,0,-.12,14,547)" stroke-width="5" stroke-linecap="round" stroke-linejoin="round" fill="none" stroke="#808080" d="M2568 1502 2706 1472"/>
<path transform="matrix(.12,0,0,-.12,14,547)" stroke-width="5" stroke-linecap="round" stroke-linejoin="round" fill="none" stroke="#808080" d="M2769 1263 2797 1249"/>
<path transform="matrix(.12,0,0,-.12,14,547)" stroke-width="5" stroke-linecap="round" stroke-linejoin="round" fill="none" stroke="#808080" d="M2710 1226 2574 1201"/>
<path transform="matrix(.12,0,0,-.12,14,547)" stroke-width="5" stroke-linecap="round" stroke-linejoin="round" fill="none" stroke="#808080" d="M2711.1243 1226.4229C2724.974 1228.9767 2734.131 1242.2745 2731.5772 1256.1243"/>
<path transform="matrix(.12,0,0,-.12,14,547)" stroke-width="5" stroke-linecap="round" stroke-linejoin="round" fill="none" stroke="#808080" d="M2730 1258 2731 1256"/>
<path transform="matrix(.12,0,0,-.12,14,547)" stroke-width="5" stroke-linecap="round" stroke-linejoin="round" fill="none" stroke="#808080" d="M2570 1241 2574 1201"/>
<path transform="matrix(.12,0,0,-.12,14,547)" stroke-width="5" stroke-linecap="round" stroke-linejoin="round" fill="none" stroke="#808080" d="M2523 1474 2513 1289"/>
<path transform="matrix(.12,0,0,-.12,14,547)" stroke-width="5" stroke-linecap="round" stroke-linejoin="round" fill="none" stroke="#808080" d="M2533 1473 2523 1288"/>
<path transform="matrix(.12,0,0,-.12,14,547)" stroke-width="5" stroke-linecap="round" stroke-linejoin="round" fill="none" stroke="#808080" d="M2715.8626 1262.33C2745.9014 1265.4545 2769.2264 1289.9277 2770.905 1320.0819"/>
<path transform="matrix(.12,0,0,-.12,14,547)" stroke-width="5" stroke-linecap="round" stroke-linejoin="round" fill="none" stroke="#808080" d="M2694.8626 1271.33C2724.9014 1274.4545 2748.2264 1298.9277 2749.905 1329.0819"/>
<path transform="matrix(.12,0,0,-.12,14,547)" stroke-width="5" stroke-linecap="round" stroke-linejoin="round" fill="none" stroke="#808080" d="M2555 1246 2716 1262"/>
<path transform="matrix(.12,0,0,-.12,14,547)" stroke-width="5" stroke-linecap="round" stroke-linejoin="round" fill="none" stroke="#808080" d="M2554 1256 2695 1270"/>
<path transform="matrix(.12,0,0,-.12,14,547)" stroke-width="5" stroke-linecap="round" stroke-linejoin="round" fill="none" stroke="#808080" d="M2570 1241 2730 1258"/>
<path transform="matrix(.12,0,0,-.12,14,547)" stroke-width="5" stroke-linecap="round" stroke-linejoin="round" fill="none" stroke="#808080" d="M2523.047 1289.1952C2522.568 1280.5917 2525.751 1272.187 2531.8087 1266.0587 2537.8663 1259.9304 2546.2332 1256.6505 2554.8419 1257.0296"/>
<path transform="matrix(.12,0,0,-.12,14,547)" stroke-width="5" stroke-linecap="round" stroke-linejoin="round" fill="none" stroke="#808080" d="M2513.0626 1289.7509C2512.4268 1278.3265 2516.6529 1267.1663 2524.6966 1259.0288 2532.7403 1250.8912 2543.8509 1246.5359 2555.2818 1247.0392"/>
</g>
<g inkscape:groupmode="layer" inkscape:label="0">
<path transform="matrix(.12,0,0,-.12,14,547)" stroke-width="7" stroke-linecap="round" stroke-linejoin="round" fill="none" stroke="#000000" d="M4751 769H5084V850H4751V769"/>
<path transform="matrix(.12,0,0,-.12,14,547)" stroke-width="6" stroke-linecap="round" stroke-linejoin="round" fill="none" stroke="#000000" d="M4751 839V780H4731V839H4751"/>
<path transform="matrix(.12,0,0,-.12,14,547)" stroke-width="6" stroke-linecap="round" stroke-linejoin="round" fill="none" stroke="#000000" d="M4731 780V299H4712V780H4731"/>
</g>
<g inkscape:groupmode="layer" inkscape:label="KITCHEN AND BATH">
<path transform="matrix(.12,0,0,-.12,14,547)" stroke-width="3" stroke-linecap="round" stroke-linejoin="round" fill="none" stroke="#000000" d="M4279 783 4282 744"/>
<path transform="matrix(.12,0,0,-.12,14,547)" stroke-width="3" stroke-linecap="round" stroke-linejoin="round" fill="none" stroke="#000000" d="M4284 726 4289 696 4291 690"/>
<path transform="matrix(.12,0,0,-.12,14,547)" stroke-width="3" stroke-linecap="round" stroke-linejoin="round" fill="none" stroke="#000000" d="M4295 672 4300 653 4306 637"/>
<path transform="matrix(.12,0,0,-.12,14,547)" stroke-width="3" stroke-linecap="round" stroke-linejoin="round" fill="none" stroke="#000000" d="M4312 619 4315 611 4327 585"/>
<path transform="matrix(.12,0,0,-.12,14,547)" stroke-width="3" stroke-linecap="round" stroke-linejoin="round" fill="none" stroke="#000000" d="M4334 569 4353 536"/>
<path transform="matrix(.12,0,0,-.12,14,547)" stroke-width="3" stroke-linecap="round" stroke-linejoin="round" fill="none" stroke="#000000" d="M4363 521 4379 496 4384 491"/>
<path transform="matrix(.12,0,0,-.12,14,547)" stroke-width="3" stroke-linecap="round" stroke-linejoin="round" fill="none" stroke="#000000" d="M4396 477 4407 462 4420 449"/>
<path transform="matrix(.12,0,0,-.12,14,547)" stroke-width="3" stroke-linecap="round" stroke-linejoin="round" fill="none" stroke="#000000" d="M4433 436 4438 431 4461 411"/>
<path transform="matrix(.12,0,0,-.12,14,547)" stroke-width="3" stroke-linecap="round" stroke-linejoin="round" fill="none" stroke="#000000" d="M4475 400 4505 378"/>
<path transform="matrix(.12,0,0,-.12,14,547)" stroke-width="3" stroke-linecap="round" stroke-linejoin="round" fill="none" stroke="#000000" d="M4521 369 4545 354 4553 350"/>
<path transform="matrix(.12,0,0,-.12,14,547)" stroke-width="3" stroke-linecap="round" stroke-linejoin="round" fill="none" stroke="#000000" d="M4569 342 4585 335 4603 328"/>
<path transform="matrix(.12,0,0,-.12,14,547)" stroke-width="3" stroke-linecap="round" stroke-linejoin="round" fill="none" stroke="#000000" d="M4621 321 4626 319 4656 311"/>
<path transform="matrix(.12,0,0,-.12,14,547)" stroke-width="3" stroke-linecap="round" stroke-linejoin="round" fill="none" stroke="#000000" d="M4674 306 4712 299"/>
</g>
<g inkscape:groupmode="layer" inkscape:label="0">
<path transform="matrix(.12,0,0,-.12,14,547)" stroke-width="6" stroke-linecap="round" stroke-linejoin="round" fill="none" stroke="#000000" d="M3806 839V780H3826V839H3806"/>
<path transform="matrix(.12,0,0,-.12,14,547)" stroke-width="6" stroke-linecap="round" stroke-linejoin="round" fill="none" stroke="#000000" d="M3826 780V299H3845V780H3826"/>
</g>
<g inkscape:groupmode="layer" inkscape:label="KITCHEN AND BATH">
<path transform="matrix(.12,0,0,-.12,14,547)" stroke-width="3" stroke-linecap="round" stroke-linejoin="round" fill="none" stroke="#000000" d="M3845 299 3884 306"/>
<path transform="matrix(.12,0,0,-.12,14,547)" stroke-width="3" stroke-linecap="round" stroke-linejoin="round" fill="none" stroke="#000000" d="M3901 311 3931 319 3937 321"/>
<path transform="matrix(.12,0,0,-.12,14,547)" stroke-width="3" stroke-linecap="round" stroke-linejoin="round" fill="none" stroke="#000000" d="M3954 328 3972 335 3988 342"/>
<path transform="matrix(.12,0,0,-.12,14,547)" stroke-width="3" stroke-linecap="round" stroke-linejoin="round" fill="none" stroke="#000000" d="M4005 350 4012 354 4037 369"/>
<path transform="matrix(.12,0,0,-.12,14,547)" stroke-width="3" stroke-linecap="round" stroke-linejoin="round" fill="none" stroke="#000000" d="M4052 378 4082 400"/>
<path transform="matrix(.12,0,0,-.12,14,547)" stroke-width="3" stroke-linecap="round" stroke-linejoin="round" fill="none" stroke="#000000" d="M4097 412 4119 431 4124 436"/>
<path transform="matrix(.12,0,0,-.12,14,547)" stroke-width="3" stroke-linecap="round" stroke-linejoin="round" fill="none" stroke="#000000" d="M4137 449 4150 462 4162 477"/>
<path transform="matrix(.12,0,0,-.12,14,547)" stroke-width="3" stroke-linecap="round" stroke-linejoin="round" fill="none" stroke="#000000" d="M4173 491 4178 496 4195 521"/>
<path transform="matrix(.12,0,0,-.12,14,547)" stroke-width="3" stroke-linecap="round" stroke-linejoin="round" fill="none" stroke="#000000" d="M4205 537 4223 569"/>
<path transform="matrix(.12,0,0,-.12,14,547)" stroke-width="3" stroke-linecap="round" stroke-linejoin="round" fill="none" stroke="#000000" d="M4231 585 4242 611 4245 619"/>
<path transform="matrix(.12,0,0,-.12,14,547)" stroke-width="3" stroke-linecap="round" stroke-linejoin="round" fill="none" stroke="#000000" d="M4251 637 4257 653 4262 672"/>
<path transform="matrix(.12,0,0,-.12,14,547)" stroke-width="3" stroke-linecap="round" stroke-linejoin="round" fill="none" stroke="#000000" d="M4266 690 4268 696 4273 726"/>
<path transform="matrix(.12,0,0,-.12,14,547)" stroke-width="3" stroke-linecap="round" stroke-linejoin="round" fill="none" stroke="#000000" d="M4276 745 4279 783"/>
</g>
<g inkscape:groupmode="layer" inkscape:label="0">
<path transform="matrix(.12,0,0,-.12,14,547)" d="M4279 545 4462 228H4095Z"/>
<path transform="matrix(.12,0,0,-.12,14,547)" stroke-linecap="round" stroke-miterlimit="10" stroke-linejoin="miter" fill="none" stroke="#000000" d="M4279 545 4462 228H4095Z"/>
<path transform="matrix(.12,0,0,-.12,14,547)" stroke-width="6" stroke-linecap="round" stroke-linejoin="round" fill="none" stroke="#000000" d="M4279 545 4462 228H4095L4279 545"/>
<path transform="matrix(.12,0,0,-.12,14,547)" stroke-width="7" stroke-linecap="round" stroke-linejoin="round" fill="none" stroke="#000000" d="M3806 769H3473V850H3806V769"/>
<path transform="matrix(.12,0,0,-.12,14,547)" stroke-width="7" stroke-linecap="round" stroke-linejoin="round" fill="none" stroke="#767676" d="M3009 783H2596V836H3009V783"/>
<path transform="matrix(.12,0,0,-.12,14,547)" stroke-width="7" stroke-linecap="round" stroke-linejoin="round" fill="none" stroke="#000000" d="M2596 769H2131V850H2596V769"/>
<path transform="matrix(.12,0,0,-.12,14,547)" stroke-width="6" stroke-linecap="round" stroke-linejoin="round" fill="none" stroke="#767676" d="M2596 769V636"/>
<path transform="matrix(.12,0,0,-.12,14,547)" stroke-width="6" stroke-linecap="round" stroke-linejoin="round" fill="none" stroke="#767676" d="M2131 769V636"/>
<path transform="matrix(.12,0,0,-.12,14,547)" stroke-width="6" stroke-linecap="round" stroke-linejoin="round" fill="none" stroke="#767676" d="M2596 636H2493"/>
<path transform="matrix(.12,0,0,-.12,14,547)" stroke-width="6" stroke-linecap="round" stroke-linejoin="round" fill="none" stroke="#767676" d="M2131 636H2233"/>
<path transform="matrix(.12,0,0,-.12,14,547)" d="M2547 597 2556 587 2635 685ZM2556 587 2635 685 2645 676Z" fill="#767676"/>
<path transform="matrix(.12,0,0,-.12,14,547)" stroke-linecap="round" stroke-miterlimit="10" stroke-linejoin="miter" fill="none" stroke="#767676" d="M2547 597 2556 587 2635 685ZM2556 587 2635 685 2645 676Z"/>
<path transform="matrix(.12,0,0,-.12,14,547)" d="M2180 676 2171 685 2092 587ZM2171 685 2092 587 2082 597Z" fill="#767676"/>
<path transform="matrix(.12,0,0,-.12,14,547)" stroke-linecap="round" stroke-miterlimit="10" stroke-linejoin="miter" fill="none" stroke="#767676" d="M2180 676 2171 685 2092 587ZM2171 685 2092 587 2082 597Z"/>
<text xml:space="preserve" transform="matrix(.12 0 -0 .12 14 547)" font-size="164.993" font-family="Arial"><tspan y="-578" x="2226 2317.736 2409.4722">786</tspan></text>
<path transform="matrix(.12,0,0,-.12,14,547)" stroke-width="6" stroke-linecap="round" stroke-linejoin="round" fill="none" stroke="#767676" d="M3806 769V636"/>
<path transform="matrix(.12,0,0,-.12,14,547)" stroke-width="6" stroke-linecap="round" stroke-linejoin="round" fill="none" stroke="#767676" d="M3473 769V636"/>
<path transform="matrix(.12,0,0,-.12,14,547)" stroke-width="6" stroke-linecap="round" stroke-linejoin="round" fill="none" stroke="#767676" d="M3806 636H3770"/>
<path transform="matrix(.12,0,0,-.12,14,547)" stroke-width="6" stroke-linecap="round" stroke-linejoin="round" fill="none" stroke="#767676" d="M3473 636H3509"/>
<path transform="matrix(.12,0,0,-.12,14,547)" d="M3757 597 3767 587 3846 685ZM3767 587 3846 685 3855 676Z" fill="#767676"/>
<path transform="matrix(.12,0,0,-.12,14,547)" stroke-linecap="round" stroke-miterlimit="10" stroke-linejoin="miter" fill="none" stroke="#767676" d="M3757 597 3767 587 3846 685ZM3767 587 3846 685 3855 676Z"/>
<path transform="matrix(.12,0,0,-.12,14,547)" d="M3522 676 3513 685 3433 587ZM3513 685 3433 587 3424 597Z" fill="#767676"/>
<path transform="matrix(.12,0,0,-.12,14,547)" stroke-linecap="round" stroke-miterlimit="10" stroke-linejoin="miter" fill="none" stroke="#767676" d="M3522 676 3513 685 3433 587ZM3513 685 3433 587 3424 597Z"/>
<text xml:space="preserve" transform="matrix(.12 0 -0 .12 14 547)" font-size="164.993" font-family="Arial"><tspan y="-578" x="3503 3594.736 3686.4722">564</tspan></text>
<path transform="matrix(.12,0,0,-.12,14,547)" stroke-width="6" stroke-linecap="round" stroke-linejoin="round" fill="none" stroke="#767676" d="M4751 769V636"/>
<path transform="matrix(.12,0,0,-.12,14,547)" stroke-width="6" stroke-linecap="round" stroke-linejoin="round" fill="none" stroke="#767676" d="M5084 769V636"/>
<path transform="matrix(.12,0,0,-.12,14,547)" stroke-width="6" stroke-linecap="round" stroke-linejoin="round" fill="none" stroke="#767676" d="M4751 636H4787"/>
<path transform="matrix(.12,0,0,-.12,14,547)" stroke-width="6" stroke-linecap="round" stroke-linejoin="round" fill="none" stroke="#767676" d="M5084 636H5048"/>
<path transform="matrix(.12,0,0,-.12,14,547)" d="M4800 676 4791 685 4711 587ZM4791 685 4711 587 4702 597Z" fill="#767676"/>
<path transform="matrix(.12,0,0,-.12,14,547)" stroke-linecap="round" stroke-miterlimit="10" stroke-linejoin="miter" fill="none" stroke="#767676" d="M4800 676 4791 685 4711 587ZM4791 685 4711 587 4702 597Z"/>
<path transform="matrix(.12,0,0,-.12,14,547)" d="M5035 597 5045 587 5124 685ZM5045 587 5124 685 5133 676Z" fill="#767676"/>
<path transform="matrix(.12,0,0,-.12,14,547)" stroke-linecap="round" stroke-miterlimit="10" stroke-linejoin="miter" fill="none" stroke="#767676" d="M5035 597 5045 587 5124 685ZM5045 587 5124 685 5133 676Z"/>
<text xml:space="preserve" transform="matrix(.12 0 -0 .12 14 547)" font-size="164.993" font-family="Arial"><tspan y="-578" x="4780 4871.7365 4963.4729">564</tspan></text>
<path transform="matrix(.12,0,0,-.12,14,547)" stroke-width="7" stroke-linecap="round" stroke-linejoin="round" fill="none" stroke="#000000" d="M3473 769H3009V850H3473V769"/>
<path transform="matrix(.12,0,0,-.12,14,547)" stroke-width="6" stroke-linecap="round" stroke-linejoin="round" fill="none" stroke="#767676" d="M3473 769V636"/>
<path transform="matrix(.12,0,0,-.12,14,547)" stroke-width="6" stroke-linecap="round" stroke-linejoin="round" fill="none" stroke="#767676" d="M3009 769V636"/>
<path transform="matrix(.12,0,0,-.12,14,547)" stroke-width="6" stroke-linecap="round" stroke-linejoin="round" fill="none" stroke="#767676" d="M3473 636H3371"/>
<path transform="matrix(.12,0,0,-.12,14,547)" stroke-width="6" stroke-linecap="round" stroke-linejoin="round" fill="none" stroke="#767676" d="M3009 636H3111"/>
<path transform="matrix(.12,0,0,-.12,14,547)" d="M3424 597 3433 587 3513 685ZM3433 587 3513 685 3522 676Z" fill="#767676"/>
<path transform="matrix(.12,0,0,-.12,14,547)" stroke-linecap="round" stroke-miterlimit="10" stroke-linejoin="miter" fill="none" stroke="#767676" d="M3424 597 3433 587 3513 685ZM3433 587 3513 685 3522 676Z"/>
<path transform="matrix(.12,0,0,-.12,14,547)" d="M3058 676 3049 685 2969 587ZM3049 685 2969 587 2960 597Z" fill="#767676"/>
<path transform="matrix(.12,0,0,-.12,14,547)" stroke-linecap="round" stroke-miterlimit="10" stroke-linejoin="miter" fill="none" stroke="#767676" d="M3058 676 3049 685 2969 587ZM3049 685 2969 587 2960 597Z"/>
<text xml:space="preserve" transform="matrix(.12 0 -0 .12 14 547)" font-size="164.993" font-family="Arial"><tspan y="-578" x="3103 3194.736 3286.4722">786</tspan></text>
</g>
</g>
</svg>
