<svg xmlns="http://www.w3.org/2000/svg" xmlns:xlink="http://www.w3.org/1999/xlink" xmlns:inkscape="http://www.inkscape.org/namespaces/inkscape" version="1.1" viewBox="153.92 88.96 533.64 417.12">
<defs>
<clipPath id="clip_1">
<path transform="matrix(.12,0,0,-.12,14,547)" d="M1166 341H5613V3817H1166V341"/>
</clipPath>
<clipPath id="clip_2">
<path transform="matrix(.12,0,0,-.12,14,547)" d="M1166 341H5613V3817H1166V341"/>
</clipPath>
<clipPath id="clip_3">
<path transform="matrix(.12,0,0,-.12,14,547)" d="M1166 341H5613V3817H1166V341"/>
</clipPath>
</defs>
<g clip-path="url(#clip_1)">
<g inkscape:groupmode="layer" inkscape:label="0">
<path transform="matrix(.12,0,0,-.12,14,547)" stroke-width="6" stroke-linecap="round" stroke-linejoin="round" fill="none" stroke="#767676" d="M1876 3450H1446"/>
<path transform="matrix(.12,0,0,-.12,14,547)" stroke-width="6" stroke-linecap="round" stroke-linejoin="round" fill="none" stroke="#767676" d="M1876 1000H1446"/>
<path transform="matrix(.12,0,0,-.12,14,547)" stroke-width="6" stroke-linecap="round" stroke-linejoin="round" fill="none" stroke="#767676" d="M1446 3450V2285"/>
<path transform="matrix(.12,0,0,-.12,14,547)" stroke-width="6" stroke-linecap="round" stroke-linejoin="round" fill="none" stroke="#767676" d="M1446 1000V2165"/>
<path transform="matrix(.12,0,0,-.12,14,547)" d="M1485 3401 1495 3411 1397 3490ZM1495 3411 1397 3490 1406 3499Z" fill="#767676"/>
<path transform="matrix(.12,0,0,-.12,14,547)" stroke-linecap="round" stroke-miterlimit="10" stroke-linejoin="miter" fill="none" stroke="#767676" d="M1485 3401 1495 3411 1397 3490ZM1495 3411 1397 3490 1406 3499Z"/>
<path transform="matrix(.12,0,0,-.12,14,547)" d="M1406 1049 1397 1039 1495 960ZM1397 1039 1495 960 1485 951Z" fill="#767676"/>
<path transform="matrix(.12,0,0,-.12,14,547)" stroke-linecap="round" stroke-miterlimit="10" stroke-linejoin="miter" fill="none" stroke="#767676" d="M1406 1049 1397 1039 1495 960ZM1397 1039 1495 960 1485 951Z"/>
</g>
</g>
<g clip-path="url(#clip_2)">
<g inkscape:groupmode="layer" inkscape:label="0">
<text xml:space="preserve" transform="matrix(.12 0 -0 .12 14 547)" font-size="164.986" font-family="Arial"><tspan y="-2167" x="1265 1356.7322 1448.4644 1540.1965">4150</tspan></text>
</g>
</g>
<g clip-path="url(#clip_3)">
<path transform="matrix(.12,0,0,-.12,14,547)" stroke-width="6" stroke-linecap="round" stroke-linejoin="round" fill="none" stroke="#767676" d="M5338 3397V3639"/>
<path transform="matrix(.12,0,0,-.12,14,547)" stroke-width="6" stroke-linecap="round" stroke-linejoin="round" fill="none" stroke="#767676" d="M1795 3397V3639"/>
<path transform="matrix(.12,0,0,-.12,14,547)" stroke-width="6" stroke-linecap="round" stroke-linejoin="round" fill="none" stroke="#767676" d="M5338 3639H3743"/>
<path transform="matrix(.12,0,0,-.12,14,547)" stroke-width="6" stroke-linecap="round" stroke-linejoin="round" fill="none" stroke="#767676" d="M1795 3639H3390"/>
<path transform="matrix(.12,0,0,-.12,14,547)" d="M5289 3599 5299 3590 5378 3688ZM5299 3590 5378 3688 5387 3678Z" fill="#767676"/>
<path transform="matrix(.12,0,0,-.12,14,547)" stroke-linecap="round" stroke-miterlimit="10" stroke-linejoin="miter" fill="none" stroke="#767676" d="M5289 3599 5299 3590 5378 3688ZM5299 3590 5378 3688 5387 3678Z"/>
<path transform="matrix(.12,0,0,-.12,14,547)" d="M1844 3678 1835 3688 1756 3590ZM1835 3688 1756 3590 1746 3599Z" fill="#767676"/>
<path transform="matrix(.12,0,0,-.12,14,547)" stroke-linecap="round" stroke-miterlimit="10" stroke-linejoin="miter" fill="none" stroke="#767676" d="M1844 3678 1835 3688 1756 3590ZM1835 3688 1756 3590 1746 3599Z"/>
<text xml:space="preserve" transform="matrix(.12 0 -0 .12 14 547)" font-size="164.986" font-family="Arial"><tspan y="-3581" x="3384 3475.7322 3567.4644 3659.1966">6000</tspan></text>
<path transform="matrix(.12,0,0,-.12,14,547)" stroke-width="7" stroke-linecap="round" stroke-linejoin="round" fill="none" stroke="#000000" d="M5338 3370V1168H5258V3370H5338"/>
<path transform="matrix(.12,0,0,-.12,14,547)" stroke-width="7" stroke-linecap="round" stroke-linejoin="round" fill="none" stroke="#000000" d="M1795 3370V1080H1876V3370H1795"/>
<path transform="matrix(.12,0,0,-.12,14,547)" stroke-width="7" stroke-linecap="round" stroke-linejoin="round" fill="none" stroke="#000000" d="M5338 3450H1795V3370H5338V3450"/>
<path transform="matrix(.12,0,0,-.12,14,547)" stroke-width="7" stroke-linecap="round" stroke-linejoin="round" fill="none" stroke="#000000" d="M4254 1000H4587V1080H4254V1000"/>
<path transform="matrix(.12,0,0,-.12,14,547)" stroke-width="6" stroke-linecap="round" stroke-linejoin="round" fill="none" stroke="#000000" d="M4254 1069V1010H4235V1069H4254"/>
<path transform="matrix(.12,0,0,-.12,14,547)" stroke-width="6" stroke-linecap="round" stroke-linejoin="round" fill="none" stroke="#000000" d="M4235 1010V529H4215V1010H4235"/>
<g inkscape:groupmode="layer" inkscape:label="KITCHEN AND BATH">
<path transform="matrix(.12,0,0,-.12,14,547)" stroke-width="3" stroke-linecap="round" stroke-linejoin="round" fill="none" stroke="#000000" d="M3782 1013 3785 974"/>
<path transform="matrix(.12,0,0,-.12,14,547)" stroke-width="3" stroke-linecap="round" stroke-linejoin="round" fill="none" stroke="#000000" d="M3787 956 3792 926 3794 920"/>
<path transform="matrix(.12,0,0,-.12,14,547)" stroke-width="3" stroke-linecap="round" stroke-linejoin="round" fill="none" stroke="#000000" d="M3799 902 3803 883 3809 867"/>
<path transform="matrix(.12,0,0,-.12,14,547)" stroke-width="3" stroke-linecap="round" stroke-linejoin="round" fill="none" stroke="#000000" d="M3815 849 3818 842 3830 815"/>
<path transform="matrix(.12,0,0,-.12,14,547)" stroke-width="3" stroke-linecap="round" stroke-linejoin="round" fill="none" stroke="#000000" d="M3838 799 3856 767"/>
<path transform="matrix(.12,0,0,-.12,14,547)" stroke-width="3" stroke-linecap="round" stroke-linejoin="round" fill="none" stroke="#000000" d="M3866 751 3883 727 3887 721"/>
<path transform="matrix(.12,0,0,-.12,14,547)" stroke-width="3" stroke-linecap="round" stroke-linejoin="round" fill="none" stroke="#000000" d="M3899 707 3911 693 3924 679"/>
<path transform="matrix(.12,0,0,-.12,14,547)" stroke-width="3" stroke-linecap="round" stroke-linejoin="round" fill="none" stroke="#000000" d="M3936 666 3941 661 3964 642"/>
<path transform="matrix(.12,0,0,-.12,14,547)" stroke-width="3" stroke-linecap="round" stroke-linejoin="round" fill="none" stroke="#000000" d="M3978 630 4008 608"/>
<path transform="matrix(.12,0,0,-.12,14,547)" stroke-width="3" stroke-linecap="round" stroke-linejoin="round" fill="none" stroke="#000000" d="M4024 599 4048 584 4056 580"/>
<path transform="matrix(.12,0,0,-.12,14,547)" stroke-width="3" stroke-linecap="round" stroke-linejoin="round" fill="none" stroke="#000000" d="M4073 572 4088 565 4107 558"/>
<path transform="matrix(.12,0,0,-.12,14,547)" stroke-width="3" stroke-linecap="round" stroke-linejoin="round" fill="none" stroke="#000000" d="M4124 551 4129 549 4159 541"/>
<path transform="matrix(.12,0,0,-.12,14,547)" stroke-width="3" stroke-linecap="round" stroke-linejoin="round" fill="none" stroke="#000000" d="M4177 536 4215 529"/>
</g>
<g inkscape:groupmode="layer" inkscape:label="0">
<path transform="matrix(.12,0,0,-.12,14,547)" stroke-width="6" stroke-linecap="round" stroke-linejoin="round" fill="none" stroke="#000000" d="M3309 1069V1010H3329V1069H3309"/>
<path transform="matrix(.12,0,0,-.12,14,547)" stroke-width="6" stroke-linecap="round" stroke-linejoin="round" fill="none" stroke="#000000" d="M3329 1010V529H3349V1010H3329"/>
</g>
<g inkscape:groupmode="layer" inkscape:label="KITCHEN AND BATH">
<path transform="matrix(.12,0,0,-.12,14,547)" stroke-width="3" stroke-linecap="round" stroke-linejoin="round" fill="none" stroke="#000000" d="M3349 529 3387 536"/>
<path transform="matrix(.12,0,0,-.12,14,547)" stroke-width="3" stroke-linecap="round" stroke-linejoin="round" fill="none" stroke="#000000" d="M3405 541 3434 549 3440 552"/>
<path transform="matrix(.12,0,0,-.12,14,547)" stroke-width="3" stroke-linecap="round" stroke-linejoin="round" fill="none" stroke="#000000" d="M3457 558 3476 565 3491 573"/>
<path transform="matrix(.12,0,0,-.12,14,547)" stroke-width="3" stroke-linecap="round" stroke-linejoin="round" fill="none" stroke="#000000" d="M3508 581 3515 584 3540 599"/>
<path transform="matrix(.12,0,0,-.12,14,547)" stroke-width="3" stroke-linecap="round" stroke-linejoin="round" fill="none" stroke="#000000" d="M3556 608 3586 630"/>
<path transform="matrix(.12,0,0,-.12,14,547)" stroke-width="3" stroke-linecap="round" stroke-linejoin="round" fill="none" stroke="#000000" d="M3600 642 3622 661 3627 666"/>
<path transform="matrix(.12,0,0,-.12,14,547)" stroke-width="3" stroke-linecap="round" stroke-linejoin="round" fill="none" stroke="#000000" d="M3640 679 3653 693 3665 707"/>
<path transform="matrix(.12,0,0,-.12,14,547)" stroke-width="3" stroke-linecap="round" stroke-linejoin="round" fill="none" stroke="#000000" d="M3677 721 3681 727 3698 751"/>
<path transform="matrix(.12,0,0,-.12,14,547)" stroke-width="3" stroke-linecap="round" stroke-linejoin="round" fill="none" stroke="#000000" d="M3708 767 3726 799"/>
<path transform="matrix(.12,0,0,-.12,14,547)" stroke-width="3" stroke-linecap="round" stroke-linejoin="round" fill="none" stroke="#000000" d="M3734 816 3746 842 3748 849"/>
<path transform="matrix(.12,0,0,-.12,14,547)" stroke-width="3" stroke-linecap="round" stroke-linejoin="round" fill="none" stroke="#000000" d="M3755 867 3760 883 3765 902"/>
<path transform="matrix(.12,0,0,-.12,14,547)" stroke-width="3" stroke-linecap="round" stroke-linejoin="round" fill="none" stroke="#000000" d="M3770 920 3771 926 3776 956"/>
<path transform="matrix(.12,0,0,-.12,14,547)" stroke-width="3" stroke-linecap="round" stroke-linejoin="round" fill="none" stroke="#000000" d="M3779 975 3782 1013"/>
</g>
<g inkscape:groupmode="layer" inkscape:label="0">
<path transform="matrix(.12,0,0,-.12,14,547)" d="M3782 775 3965 458H3599Z"/>
<path transform="matrix(.12,0,0,-.12,14,547)" stroke-linecap="round" stroke-miterlimit="10" stroke-linejoin="miter" fill="none" stroke="#000000" d="M3782 775 3965 458H3599Z"/>
<path transform="matrix(.12,0,0,-.12,14,547)" stroke-width="6" stroke-linecap="round" stroke-linejoin="round" fill="none" stroke="#000000" d="M3782 775 3965 458H3599L3782 775"/>
<path transform="matrix(.12,0,0,-.12,14,547)" stroke-width="7" stroke-linecap="round" stroke-linejoin="round" fill="none" stroke="#000000" d="M3309 1000H2976V1080H3309V1000"/>
<path transform="matrix(.12,0,0,-.12,14,547)" stroke-width="7" stroke-linecap="round" stroke-linejoin="round" fill="none" stroke="#767676" d="M2592 1013H2179V1066H2592V1013"/>
<path transform="matrix(.12,0,0,-.12,14,547)" stroke-width="7" stroke-linecap="round" stroke-linejoin="round" fill="none" stroke="#000000" d="M2179 1000H1795V1080H2179V1000"/>
<path transform="matrix(.12,0,0,-.12,14,547)" stroke-width="6" stroke-linecap="round" stroke-linejoin="round" fill="none" stroke="#767676" d="M2179 1000V866"/>
<path transform="matrix(.12,0,0,-.12,14,547)" stroke-width="6" stroke-linecap="round" stroke-linejoin="round" fill="none" stroke="#767676" d="M1795 1000V866"/>
<path transform="matrix(.12,0,0,-.12,14,547)" stroke-width="6" stroke-linecap="round" stroke-linejoin="round" fill="none" stroke="#767676" d="M2179 866H2118"/>
<path transform="matrix(.12,0,0,-.12,14,547)" stroke-width="6" stroke-linecap="round" stroke-linejoin="round" fill="none" stroke="#767676" d="M1795 866H1857"/>
<path transform="matrix(.12,0,0,-.12,14,547)" d="M2130 827 2140 817 2219 915ZM2140 817 2219 915 2228 906Z" fill="#767676"/>
<path transform="matrix(.12,0,0,-.12,14,547)" stroke-linecap="round" stroke-miterlimit="10" stroke-linejoin="miter" fill="none" stroke="#767676" d="M2130 827 2140 817 2219 915ZM2140 817 2219 915 2228 906Z"/>
<path transform="matrix(.12,0,0,-.12,14,547)" d="M1844 906 1835 915 1756 817ZM1835 915 1756 817 1746 827Z" fill="#767676"/>
<path transform="matrix(.12,0,0,-.12,14,547)" stroke-linecap="round" stroke-miterlimit="10" stroke-linejoin="miter" fill="none" stroke="#767676" d="M1844 906 1835 915 1756 817ZM1835 915 1756 817 1746 827Z"/>
<text xml:space="preserve" transform="matrix(.12 0 -0 .12 14 547)" font-size="164.986" font-family="Arial"><tspan y="-808" x="1850 1941.7322 2033.4644">650</tspan></text>
<path transform="matrix(.12,0,0,-.12,14,547)" stroke-width="6" stroke-linecap="round" stroke-linejoin="round" fill="none" stroke="#767676" d="M3309 1000V866"/>
<path transform="matrix(.12,0,0,-.12,14,547)" stroke-width="6" stroke-linecap="round" stroke-linejoin="round" fill="none" stroke="#767676" d="M2976 1000V866"/>
<path transform="matrix(.12,0,0,-.12,14,547)" stroke-width="6" stroke-linecap="round" stroke-linejoin="round" fill="none" stroke="#767676" d="M3309 866H3273"/>
<path transform="matrix(.12,0,0,-.12,14,547)" stroke-width="6" stroke-linecap="round" stroke-linejoin="round" fill="none" stroke="#767676" d="M2976 866H3013"/>
<path transform="matrix(.12,0,0,-.12,14,547)" d="M3260 827 3270 817 3349 915ZM3270 817 3349 915 3358 906Z" fill="#767676"/>
<path transform="matrix(.12,0,0,-.12,14,547)" stroke-linecap="round" stroke-miterlimit="10" stroke-linejoin="miter" fill="none" stroke="#767676" d="M3260 827 3270 817 3349 915ZM3270 817 3349 915 3358 906Z"/>
<path transform="matrix(.12,0,0,-.12,14,547)" d="M3025 906 3016 915 2937 817ZM3016 915 2937 817 2927 827Z" fill="#767676"/>
<path transform="matrix(.12,0,0,-.12,14,547)" stroke-linecap="round" stroke-miterlimit="10" stroke-linejoin="miter" fill="none" stroke="#767676" d="M3025 906 3016 915 2937 817ZM3016 915 2937 817 2927 827Z"/>
<text xml:space="preserve" transform="matrix(.12 0 -0 .12 14 547)" font-size="164.986" font-family="Arial"><tspan y="-808" x="3006 3097.7322 3189.4644">564</tspan></text>
<path transform="matrix(.12,0,0,-.12,14,547)" stroke-width="6" stroke-linecap="round" stroke-linejoin="round" fill="none" stroke="#767676" d="M4254 1000V867"/>
<path transform="matrix(.12,0,0,-.12,14,547)" stroke-width="6" stroke-linecap="round" stroke-linejoin="round" fill="none" stroke="#767676" d="M4587 1000V867"/>
<path transform="matrix(.12,0,0,-.12,14,547)" stroke-width="6" stroke-linecap="round" stroke-linejoin="round" fill="none" stroke="#767676" d="M4254 867H4290"/>
<path transform="matrix(.12,0,0,-.12,14,547)" stroke-width="6" stroke-linecap="round" stroke-linejoin="round" fill="none" stroke="#767676" d="M4587 867H4551"/>
<path transform="matrix(.12,0,0,-.12,14,547)" d="M4303 906 4294 915 4215 818ZM4294 915 4215 818 4205 827Z" fill="#767676"/>
<path transform="matrix(.12,0,0,-.12,14,547)" stroke-linecap="round" stroke-miterlimit="10" stroke-linejoin="miter" fill="none" stroke="#767676" d="M4303 906 4294 915 4215 818ZM4294 915 4215 818 4205 827Z"/>
<path transform="matrix(.12,0,0,-.12,14,547)" d="M4538 827 4548 818 4627 915ZM4548 818 4627 915 4636 906Z" fill="#767676"/>
<path transform="matrix(.12,0,0,-.12,14,547)" stroke-linecap="round" stroke-miterlimit="10" stroke-linejoin="miter" fill="none" stroke="#767676" d="M4538 827 4548 818 4627 915ZM4548 818 4627 915 4636 906Z"/>
<text xml:space="preserve" transform="matrix(.12 0 -0 .12 14 547)" font-size="164.986" font-family="Arial"><tspan y="-808" x="4284 4375.7326 4467.465">564</tspan></text>
<path transform="matrix(.12,0,0,-.12,14,547)" stroke-width="7" stroke-linecap="round" stroke-linejoin="round" fill="none" stroke="#000000" d="M2976 1000H2592V1080H2976V1000"/>
<path transform="matrix(.12,0,0,-.12,14,547)" stroke-width="6" stroke-linecap="round" stroke-linejoin="round" fill="none" stroke="#767676" d="M2976 1000V866"/>
<path transform="matrix(.12,0,0,-.12,14,547)" stroke-width="6" stroke-linecap="round" stroke-linejoin="round" fill="none" stroke="#767676" d="M2592 1000V866"/>
<path transform="matrix(.12,0,0,-.12,14,547)" stroke-width="6" stroke-linecap="round" stroke-linejoin="round" fill="none" stroke="#767676" d="M2976 866H2915"/>
<path transform="matrix(.12,0,0,-.12,14,547)" stroke-width="6" stroke-linecap="round" stroke-linejoin="round" fill="none" stroke="#767676" d="M2592 866H2654"/>
<path transform="matrix(.12,0,0,-.12,14,547)" d="M2927 827 2937 817 3016 915ZM2937 817 3016 915 3025 906Z" fill="#767676"/>
<path transform="matrix(.12,0,0,-.12,14,547)" stroke-linecap="round" stroke-miterlimit="10" stroke-linejoin="miter" fill="none" stroke="#767676" d="M2927 827 2937 817 3016 915ZM2937 817 3016 915 3025 906Z"/>
<path transform="matrix(.12,0,0,-.12,14,547)" d="M2641 906 2632 915 2553 817ZM2632 915 2553 817 2544 827Z" fill="#767676"/>
<path transform="matrix(.12,0,0,-.12,14,547)" stroke-linecap="round" stroke-miterlimit="10" stroke-linejoin="miter" fill="none" stroke="#767676" d="M2641 906 2632 915 2553 817ZM2632 915 2553 817 2544 827Z"/>
<text xml:space="preserve" transform="matrix(.12 0 -0 .12 14 547)" font-size="164.986" font-family="Arial"><tspan y="-808" x="2648 2739.7322 2831.4644">650</tspan></text>
<path transform="matrix(.12,0,0,-.12,14,547)" stroke-width="7" stroke-linecap="round" stroke-linejoin="round" fill="none" stroke="#000000" d="M4587 1000H5338V1080H4587V1000"/>
<path transform="matrix(.12,0,0,-.12,14,547)" stroke-width="6" stroke-linecap="round" stroke-linejoin="round" fill="none" stroke="#767676" d="M4587 1000V866"/>
<path transform="matrix(.12,0,0,-.12,14,547)" stroke-width="6" stroke-linecap="round" stroke-linejoin="round" fill="none" stroke="#767676" d="M5338 1000V866"/>
<path transform="matrix(.12,0,0,-.12,14,547)" stroke-width="6" stroke-linecap="round" stroke-linejoin="round" fill="none" stroke="#767676" d="M4587 866H4792"/>
<path transform="matrix(.12,0,0,-.12,14,547)" stroke-width="6" stroke-linecap="round" stroke-linejoin="round" fill="none" stroke="#767676" d="M5338 866H5133"/>
<path transform="matrix(.12,0,0,-.12,14,547)" d="M4636 906 4627 915 4548 817ZM4627 915 4548 817 4538 827Z" fill="#767676"/>
<path transform="matrix(.12,0,0,-.12,14,547)" stroke-linecap="round" stroke-miterlimit="10" stroke-linejoin="miter" fill="none" stroke="#767676" d="M4636 906 4627 915 4548 817ZM4627 915 4548 817 4538 827Z"/>
<path transform="matrix(.12,0,0,-.12,14,547)" d="M5289 827 5299 817 5378 915ZM5299 817 5378 915 5387 906Z" fill="#767676"/>
<path transform="matrix(.12,0,0,-.12,14,547)" stroke-linecap="round" stroke-miterlimit="10" stroke-linejoin="miter" fill="none" stroke="#767676" d="M5289 827 5299 817 5378 915ZM5299 817 5378 915 5387 906Z"/>
<text xml:space="preserve" transform="matrix(.12 0 -0 .12 14 547)" font-size="164.986" font-family="Arial"><tspan y="-807" x="4775 4866.7326 4958.465 5050.1975">1272</tspan></text>
</g>
<g inkscape:groupmode="layer" inkscape:label="KITCHEN AND BATH">
<path transform="matrix(.12,0,0,-.12,14,547)" stroke-width="5" stroke-linecap="round" stroke-linejoin="round" fill="none" stroke="#808080" d="M5240 1620V2334H5222V1620H5240"/>
<path transform="matrix(.12,0,0,-.12,14,547)" stroke-width="5" stroke-linecap="round" stroke-linejoin="round" fill="none" stroke="#808080" d="M5258 1767V2186L5240 2245V1708L5258 1767"/>
<text fill="#808080" xml:space="preserve" transform="matrix(-.0017951964 .119986567 -.119986567 -.0017951964 14 547)" font-size="52.3431" font-family="Arial"><tspan y="-5147.7258" x="-2062.2408">T</tspan><tspan y="-5147.725" x="-2030.259">V</tspan></text>
</g>
<g inkscape:groupmode="layer" inkscape:label="0">
<path transform="matrix(.12,0,0,-.12,14,547)" stroke-width="6" stroke-linecap="round" stroke-linejoin="round" fill="none" stroke="#808080" d="M5258 2508H4963V1445H5258V2508"/>
</g>
<g inkscape:groupmode="layer" inkscape:label="KITCHEN AND BATH">
<path transform="matrix(.12,0,0,-.12,14,547)" stroke-width="5" stroke-linecap="round" stroke-linejoin="round" fill="none" stroke="#808080" d="M4234 2296V2296"/>
<path transform="matrix(.12,0,0,-.12,14,547)" stroke-width="5" stroke-linecap="round" stroke-linejoin="round" fill="none" stroke="#808080" d="M3973.5 2391C3956.103 2391 3942 2376.897 3942 2359.5"/>
<path transform="matrix(.12,0,0,-.12,14,547)" stroke-width="5" stroke-linecap="round" stroke-linejoin="round" fill="none" stroke="#808080" d="M4298 2359.5C4298 2376.897 4283.897 2391 4266.5 2391"/>
<path transform="matrix(.12,0,0,-.12,14,547)" stroke-width="5" stroke-linecap="round" stroke-linejoin="round" fill="none" stroke="#808080" d="M4266 2390H3973"/>
<path transform="matrix(.12,0,0,-.12,14,547)" stroke-width="5" stroke-linecap="round" stroke-linejoin="round" fill="none" stroke="#808080" d="M4297 2359V2296"/>
<path transform="matrix(.12,0,0,-.12,14,547)" stroke-width="5" stroke-linecap="round" stroke-linejoin="round" fill="none" stroke="#808080" d="M3942 1595.5C3942 1578.103 3956.103 1564 3973.5 1564"/>
<path transform="matrix(.12,0,0,-.12,14,547)" stroke-width="5" stroke-linecap="round" stroke-linejoin="round" fill="none" stroke="#808080" d="M4312 1977H4018"/>
<path transform="matrix(.12,0,0,-.12,14,547)" stroke-width="5" stroke-linecap="round" stroke-linejoin="round" fill="none" stroke="#808080" d="M4018 2296V1657"/>
<path transform="matrix(.12,0,0,-.12,14,547)" stroke-width="5" stroke-linecap="round" stroke-linejoin="round" fill="none" stroke="#808080" d="M3942 1595V2359"/>
<path transform="matrix(.12,0,0,-.12,14,547)" stroke-width="5" stroke-linecap="round" stroke-linejoin="round" fill="none" stroke="#808080" d="M4344 1946.5C4344 1963.897 4329.897 1978 4312.5 1978"/>
<path transform="matrix(.12,0,0,-.12,14,547)" stroke-width="5" stroke-linecap="round" stroke-linejoin="round" fill="none" stroke="#808080" d="M4312.5 1658C4329.897 1658 4344 1672.103 4344 1689.5"/>
<path transform="matrix(.12,0,0,-.12,14,547)" stroke-width="5" stroke-linecap="round" stroke-linejoin="round" fill="none" stroke="#808080" d="M4343 1946V1689"/>
<path transform="matrix(.12,0,0,-.12,14,547)" stroke-width="5" stroke-linecap="round" stroke-linejoin="round" fill="none" stroke="#808080" d="M4266.5 1564C4283.897 1564 4298 1578.103 4298 1595.5"/>
<path transform="matrix(.12,0,0,-.12,14,547)" stroke-width="5" stroke-linecap="round" stroke-linejoin="round" fill="none" stroke="#808080" d="M4297 1595V1657"/>
<path transform="matrix(.12,0,0,-.12,14,547)" stroke-width="5" stroke-linecap="round" stroke-linejoin="round" fill="none" stroke="#808080" d="M4312 1977H4018 4312"/>
<path transform="matrix(.12,0,0,-.12,14,547)" stroke-width="5" stroke-linecap="round" stroke-linejoin="round" fill="none" stroke="#808080" d="M4312 1657H4018"/>
<path transform="matrix(.12,0,0,-.12,14,547)" stroke-width="5" stroke-linecap="round" stroke-linejoin="round" fill="none" stroke="#808080" d="M4266 1563H3973"/>
<path transform="matrix(.12,0,0,-.12,14,547)" stroke-width="5" stroke-linecap="round" stroke-linejoin="round" fill="none" stroke="#808080" d="M4312 2296H4018"/>
<path transform="matrix(.12,0,0,-.12,14,547)" stroke-width="5" stroke-linecap="round" stroke-linejoin="round" fill="none" stroke="#808080" d="M4344 2265.5C4344 2282.897 4329.897 2297 4312.5 2297"/>
<path transform="matrix(.12,0,0,-.12,14,547)" stroke-width="5" stroke-linecap="round" stroke-linejoin="round" fill="none" stroke="#808080" d="M4312.5 1977C4329.897 1977 4344 1991.103 4344 2008.5"/>
<path transform="matrix(.12,0,0,-.12,14,547)" stroke-width="5" stroke-linecap="round" stroke-linejoin="round" fill="none" stroke="#808080" d="M4343 2265V2008"/>
<path transform="matrix(.12,0,0,-.12,14,547)" stroke-width="5" stroke-linecap="round" stroke-linejoin="round" fill="none" stroke="#808080" d="M4312 2296H4018 4312"/>
<path transform="matrix(.12,0,0,-.12,14,547)" stroke-width="5" stroke-linecap="round" stroke-linejoin="round" fill="none" stroke="#808080" d="M5258 3370V3016H4372V3370H5258"/>
<path transform="matrix(.12,0,0,-.12,14,547)" stroke-width="5" stroke-linecap="round" stroke-linejoin="round" fill="none" stroke="#808080" d="M5228 3341V3045H4402V3341H5228"/>
<path transform="matrix(.12,0,0,-.12,14,547)" stroke-width="5" stroke-linecap="round" stroke-linejoin="round" fill="none" stroke="#808080" d="M5228 3193H4402"/>
<path transform="matrix(.12,0,0,-.12,14,547)" stroke-width="5" stroke-linecap="round" stroke-linejoin="round" fill="none" stroke="#808080" d="M4712 3313H4730V3077H4712V3313"/>
<path transform="matrix(.12,0,0,-.12,14,547)" stroke-width="5" stroke-linecap="round" stroke-linejoin="round" fill="none" stroke="#808080" d="M4940 3311H4957V3075H4940V3311"/>
<path transform="matrix(.12,0,0,-.12,14,547)" stroke-width="5" stroke-linecap="round" stroke-linejoin="round" fill="none" stroke="#808080" d="M4822 3313H4839V3077H4822V3313"/>
<path transform="matrix(.12,0,0,-.12,14,547)" stroke-width="5" stroke-linecap="round" stroke-linejoin="round" fill="none" stroke="#808080" d="M4881 3311H4899V3075H4881V3311"/>
<path transform="matrix(.12,0,0,-.12,14,547)" stroke-width="5" stroke-linecap="round" stroke-linejoin="round" fill="none" stroke="#808080" d="M4763 3313H4781V3077H4763V3313"/>
<path transform="matrix(.12,0,0,-.12,14,547)" stroke-width="5" stroke-linecap="round" stroke-linejoin="round" fill="none" stroke="#808080" d="M5000 3313H5017V3077H5000V3313"/>
<path transform="matrix(.12,0,0,-.12,14,547)" stroke-width="5" stroke-linecap="round" stroke-linejoin="round" fill="none" stroke="#808080" d="M4594 3311H4612V3075H4594V3311"/>
<path transform="matrix(.12,0,0,-.12,14,547)" stroke-width="5" stroke-linecap="round" stroke-linejoin="round" fill="none" stroke="#808080" d="M4476 3313H4494V3077H4476V3313"/>
<path transform="matrix(.12,0,0,-.12,14,547)" stroke-width="5" stroke-linecap="round" stroke-linejoin="round" fill="none" stroke="#808080" d="M4536 3311H4554V3075H4536V3311"/>
<path transform="matrix(.12,0,0,-.12,14,547)" stroke-width="5" stroke-linecap="round" stroke-linejoin="round" fill="none" stroke="#808080" d="M4418 3313H4436V3077H4418V3313"/>
<path transform="matrix(.12,0,0,-.12,14,547)" stroke-width="5" stroke-linecap="round" stroke-linejoin="round" fill="none" stroke="#808080" d="M4654 3313H4672V3077H4654V3313"/>
<path transform="matrix(.12,0,0,-.12,14,547)" stroke-width="5" stroke-linecap="round" stroke-linejoin="round" fill="none" stroke="#808080" d="M5118 3311H5135V3075H5118V3311"/>
<path transform="matrix(.12,0,0,-.12,14,547)" stroke-width="5" stroke-linecap="round" stroke-linejoin="round" fill="none" stroke="#808080" d="M5059 3311H5077V3075H5059V3311"/>
<path transform="matrix(.12,0,0,-.12,14,547)" stroke-width="5" stroke-linecap="round" stroke-linejoin="round" fill="none" stroke="#808080" d="M5178 3313H5195V3077H5178V3313"/>
<path transform="matrix(.12,0,0,-.12,14,547)" stroke-width="3" stroke-linecap="round" stroke-linejoin="round" fill="none" stroke="#808080" d="M2734 3082 3024 2842"/>
<path transform="matrix(.12,0,0,-.12,14,547)" stroke-width="3" stroke-linecap="round" stroke-linejoin="round" fill="none" stroke="#808080" d="M3039 2829V2829"/>
<path transform="matrix(.12,0,0,-.12,14,547)" stroke-width="3" stroke-linecap="round" stroke-linejoin="round" fill="none" stroke="#808080" d="M3019 2844 2956 2863"/>
<path transform="matrix(.12,0,0,-.12,14,547)" stroke-width="3" stroke-linecap="round" stroke-linejoin="round" fill="none" stroke="#808080" d="M2946.078 2863.603C2949.7257 2862.9119 2953.461 2862.8143 2957.1397 2863.3135"/>
<path transform="matrix(.12,0,0,-.12,14,547)" stroke-width="3" stroke-linecap="round" stroke-linejoin="round" fill="none" stroke="#808080" d="M2934.8988 2862.0404C2938.5035 2862.5296 2942.083 2863.1903 2945.625 2864.0203"/>
<path transform="matrix(.12,0,0,-.12,14,547)" stroke-width="3" stroke-linecap="round" stroke-linejoin="round" fill="none" stroke="#808080" d="M2934.9456 2861.2774C2922.1138 2858.6265 2909.3177 2855.8057 2896.5604 2852.8162"/>
<path transform="matrix(.12,0,0,-.12,14,547)" stroke-width="3" stroke-linecap="round" stroke-linejoin="round" fill="none" stroke="#808080" d="M2896.2857 2854.0479C2877.2066 2850.8558 2858.19 2847.302 2839.2457 2843.3883"/>
<path transform="matrix(.12,0,0,-.12,14,547)" stroke-width="3" stroke-linecap="round" stroke-linejoin="round" fill="none" stroke="#808080" d="M2777 2965 2769 2909 2770 2832 2839 2842"/>
<path transform="matrix(.12,0,0,-.12,14,547)" stroke-width="3" stroke-linecap="round" stroke-linejoin="round" fill="none" stroke="#808080" d="M2772.0718 3017.571C2769.579 3000.134 2771.4505 2982.351 2777.5179 2965.815"/>
<path transform="matrix(.12,0,0,-.12,14,547)" stroke-width="3" stroke-linecap="round" stroke-linejoin="round" fill="none" stroke="#808080" d="M2734.5557 3082.202C2743.2303 3058.56 2755.873 3036.5706 2771.9403 3017.179"/>
<path transform="matrix(.12,0,0,-.12,14,547)" stroke-width="3" stroke-linecap="round" stroke-linejoin="round" fill="none" stroke="#808080" d="M2734 3082H2168"/>
<path transform="matrix(.12,0,0,-.12,14,547)" stroke-width="3" stroke-linecap="round" stroke-linejoin="round" fill="none" stroke="#808080" d="M2168.5 3082C2162.1488 3082 2157 3076.8514 2157 3070.5"/>
<path transform="matrix(.12,0,0,-.12,14,547)" stroke-width="3" stroke-linecap="round" stroke-linejoin="round" fill="none" stroke="#808080" d="M2157 3070V2208"/>
<path transform="matrix(.12,0,0,-.12,14,547)" stroke-width="3" stroke-linecap="round" stroke-linejoin="round" fill="none" stroke="#808080" d="M2157 2208.5C2157 2202.1488 2162.1488 2197 2168.5 2197"/>
<path transform="matrix(.12,0,0,-.12,14,547)" stroke-width="3" stroke-linecap="round" stroke-linejoin="round" fill="none" stroke="#808080" d="M2168 2196H3012"/>
<path transform="matrix(.12,0,0,-.12,14,547)" stroke-width="3" stroke-linecap="round" stroke-linejoin="round" fill="none" stroke="#808080" d="M3039 2226V2829"/>
<path transform="matrix(.12,0,0,-.12,14,547)" stroke-width="3" stroke-linecap="round" stroke-linejoin="round" fill="none" stroke="#808080" d="M3039 2189H2141V3370H3039V2189"/>
<path transform="matrix(.12,0,0,-.12,14,547)" stroke-width="3" stroke-linecap="round" stroke-linejoin="round" fill="none" stroke="#808080" d="M2141 3339H3039"/>
<path transform="matrix(.12,0,0,-.12,14,547)" stroke-width="3" stroke-linecap="round" stroke-linejoin="round" fill="none" stroke="#808080" d="M2293.43 3108.481C2288.0196 3106.8065 2282.642 3105.0264 2277.301 3103.1424"/>
<path transform="matrix(.12,0,0,-.12,14,547)" stroke-width="3" stroke-linecap="round" stroke-linejoin="round" fill="none" stroke="#808080" d="M2309.301 3114.1424C2303.9598 3112.2586 2298.6558 3110.2708 2293.3919 3108.1802"/>
<path transform="matrix(.12,0,0,-.12,14,547)" stroke-width="3" stroke-linecap="round" stroke-linejoin="round" fill="none" stroke="#808080" d="M2322.3919 3119.1802C2318.0877 3117.4708 2313.8106 3115.693 2309.563 3113.8475"/>
<path transform="matrix(.12,0,0,-.12,14,547)" stroke-width="3" stroke-linecap="round" stroke-linejoin="round" fill="none" stroke="#808080" d="M2334.563 3124.8475C2330.3023 3122.9964 2326.0716 3121.0775 2321.8724 3119.0914"/>
<path transform="matrix(.12,0,0,-.12,14,547)" stroke-width="3" stroke-linecap="round" stroke-linejoin="round" fill="none" stroke="#808080" d="M2642.8333 3295.673C2639.612 3302.1109 2633.2503 3306.3873 2626.0728 3306.9398"/>
<path transform="matrix(.12,0,0,-.12,14,547)" stroke-width="3" stroke-linecap="round" stroke-linejoin="round" fill="none" stroke="#808080" d="M2625.966 3307.1448C2628.2598 3307.6019 2630.2088 3309.1029 2631.2369 3311.2037 2632.2647 3313.3045 2632.2537 3315.7645 2631.2073 3317.856"/>
<path transform="matrix(.12,0,0,-.12,14,547)" stroke-width="3" stroke-linecap="round" stroke-linejoin="round" fill="none" stroke="#808080" d="M2631.5 3318C2635.0113 3318 2638.514 3318.3458 2641.9576 3319.032"/>
<path transform="matrix(.12,0,0,-.12,14,547)" stroke-width="3" stroke-linecap="round" stroke-linejoin="round" fill="none" stroke="#808080" d="M2641.4874 3319.0338C2646.1265 3318.3455 2650.81 3318 2655.5 3318"/>
<path transform="matrix(.12,0,0,-.12,14,547)" stroke-width="3" stroke-linecap="round" stroke-linejoin="round" fill="none" stroke="#808080" d="M2655.7965 3318.7337C2663.142 3316.6629 2670.6124 3315.0628 2678.1619 3313.9429"/>
<path transform="matrix(.12,0,0,-.12,14,547)" stroke-width="3" stroke-linecap="round" stroke-linejoin="round" fill="none" stroke="#808080" d="M2698.4359 3309.6168C2691.8475 3311.474 2685.1346 3312.8577 2678.3487 3313.7569"/>
<path transform="matrix(.12,0,0,-.12,14,547)" stroke-width="3" stroke-linecap="round" stroke-linejoin="round" fill="none" stroke="#808080" d="M2751.4998 3305.5042C2733.9293 3307.8323 2716.224 3309 2698.5 3309"/>
<path transform="matrix(.12,0,0,-.12,14,547)" stroke-width="3" stroke-linecap="round" stroke-linejoin="round" fill="none" stroke="#808080" d="M2816.5 3309C2794.5589 3309 2772.633 3307.8343 2750.8155 3305.508"/>
<path transform="matrix(.12,0,0,-.12,14,547)" stroke-width="3" stroke-linecap="round" stroke-linejoin="round" fill="none" stroke="#808080" d="M2839.3663 3312.2386C2831.9473 3311.4476 2824.559 3310.3909 2817.2156 3309.071"/>
<path transform="matrix(.12,0,0,-.12,14,547)" stroke-width="3" stroke-linecap="round" stroke-linejoin="round" fill="none" stroke="#808080" d="M2839.463 3312.088C2843.4449 3312.2642 2847.4105 3312.7066 2851.3336 3313.4117"/>
<path transform="matrix(.12,0,0,-.12,14,547)" stroke-width="3" stroke-linecap="round" stroke-linejoin="round" fill="none" stroke="#808080" d="M2851.1463 3312.6019C2858.4454 3311.9888 2865.7762 3311.8438 2873.094 3312.1683"/>
<path transform="matrix(.12,0,0,-.12,14,547)" stroke-width="3" stroke-linecap="round" stroke-linejoin="round" fill="none" stroke="#808080" d="M2910.645 3311.1915C2898.0194 3312.2518 2885.359 3312.8465 2872.6893 3312.9739"/>
<path transform="matrix(.12,0,0,-.12,14,547)" stroke-width="3" stroke-linecap="round" stroke-linejoin="round" fill="none" stroke="#808080" d="M2949.3839 3311.9554C2936.6363 3312.0836 2923.8875 3311.9359 2911.1463 3311.5118"/>
<path transform="matrix(.12,0,0,-.12,14,547)" stroke-width="3" stroke-linecap="round" stroke-linejoin="round" fill="none" stroke="#808080" d="M2977.3846 3313.732C2967.944 3313.4178 2958.515 3312.8277 2949.109 3311.9622"/>
<path transform="matrix(.12,0,0,-.12,14,547)" stroke-width="3" stroke-linecap="round" stroke-linejoin="round" fill="none" stroke="#808080" d="M2990.6138 3317.8675C2985.9605 3317.4395 2981.4608 3315.9813 2977.4407 3313.5989"/>
<path transform="matrix(.12,0,0,-.12,14,547)" stroke-width="3" stroke-linecap="round" stroke-linejoin="round" fill="none" stroke="#808080" d="M2991.1876 3317.0494C2994.764 3316.7803 2998.3365 3317.6168 3001.4219 3319.445"/>
<path transform="matrix(.12,0,0,-.12,14,547)" stroke-width="3" stroke-linecap="round" stroke-linejoin="round" fill="none" stroke="#808080" d="M3001.1185 3320.0357C3002.4908 3319.487 3003.9388 3319.1517 3005.4127 3319.0408"/>
<path transform="matrix(.12,0,0,-.12,14,547)" stroke-width="3" stroke-linecap="round" stroke-linejoin="round" fill="none" stroke="#808080" d="M3005.1444 3318.6629C3005.385 3317.9859 3005.905 3317.445 3006.5723 3317.1785"/>
<path transform="matrix(.12,0,0,-.12,14,547)" stroke-width="3" stroke-linecap="round" stroke-linejoin="round" fill="none" stroke="#808080" d="M3006.809 3317.9678C3006.278 3318.0797 3005.728 3317.896 3005.3709 3317.4874 3005.0135 3317.0787 3004.9049 3316.509 3005.0867 3315.9976"/>
<path transform="matrix(.12,0,0,-.12,14,547)" stroke-width="3" stroke-linecap="round" stroke-linejoin="round" fill="none" stroke="#808080" d="M3001.9849 3314.0538C3003.1705 3313.804 3004.3646 3314.4405 3004.818 3315.564"/>
<path transform="matrix(.12,0,0,-.12,14,547)" stroke-width="3" stroke-linecap="round" stroke-linejoin="round" fill="none" stroke="#808080" d="M3002.3089 3307.9429C3003.2183 3310.1949 3003.2308 3312.7093 3002.3436 3314.97"/>
<path transform="matrix(.12,0,0,-.12,14,547)" stroke-width="3" stroke-linecap="round" stroke-linejoin="round" fill="none" stroke="#808080" d="M3002.1964 3307.2596C3001.719 3303.9215 3002.1158 3300.5167 3003.3475 3297.3775"/>
<path transform="matrix(.12,0,0,-.12,14,547)" stroke-width="3" stroke-linecap="round" stroke-linejoin="round" fill="none" stroke="#808080" d="M3003.2364 3298.0167C3002.531 3294.7293 3001.94 3291.4185 3001.4644 3288.09"/>
<path transform="matrix(.12,0,0,-.12,14,547)" stroke-width="3" stroke-linecap="round" stroke-linejoin="round" fill="none" stroke="#808080" d="M3000.3865 3278.856C3001.0216 3281.8155 3001.5418 3284.7987 3001.946 3287.7984"/>
<path transform="matrix(.12,0,0,-.12,14,547)" stroke-width="3" stroke-linecap="round" stroke-linejoin="round" fill="none" stroke="#808080" d="M2999 3279 2995 3238"/>
<path transform="matrix(.12,0,0,-.12,14,547)" stroke-width="3" stroke-linecap="round" stroke-linejoin="round" fill="none" stroke="#808080" d="M2995.3087 3203.9759C2995.9927 3215.605 2996.1693 3227.258 2995.8377 3238.9027"/>
<path transform="matrix(.12,0,0,-.12,14,547)" stroke-width="3" stroke-linecap="round" stroke-linejoin="round" fill="none" stroke="#808080" d="M2995 3203 2996 3183 2999 3120"/>
<path transform="matrix(.12,0,0,-.12,14,547)" stroke-width="3" stroke-linecap="round" stroke-linejoin="round" fill="none" stroke="#808080" d="M3001.6456 3099.084C3001.208 3106.2308 3000.3656 3113.347 2999.1226 3120.3985"/>
<path transform="matrix(.12,0,0,-.12,14,547)" stroke-width="3" stroke-linecap="round" stroke-linejoin="round" fill="none" stroke="#808080" d="M3002.485 3098.8045C3001.9696 3097.086 3001.863 3095.2706 3002.1746 3093.5035"/>
<path transform="matrix(.12,0,0,-.12,14,547)" stroke-width="3" stroke-linecap="round" stroke-linejoin="round" fill="none" stroke="#808080" d="M3001 3093V3093"/>
<path transform="matrix(.12,0,0,-.12,14,547)" stroke-width="3" stroke-linecap="round" stroke-linejoin="round" fill="none" stroke="#808080" d="M3000.8865 3092.9498C2998.2667 3093.712 2995.59 3094.265 2992.8826 3094.603"/>
<path transform="matrix(.12,0,0,-.12,14,547)" stroke-width="3" stroke-linecap="round" stroke-linejoin="round" fill="none" stroke="#808080" d="M2993.3577 3094.9378C2990.753 3096.2813 2988.0245 3097.3699 2985.2105 3098.1888"/>
<path transform="matrix(.12,0,0,-.12,14,547)" stroke-width="3" stroke-linecap="round" stroke-linejoin="round" fill="none" stroke="#808080" d="M2978.352 3100.9486C2980.3299 3099.9283 2982.428 3099.1614 2984.5972 3098.6658"/>
<path transform="matrix(.12,0,0,-.12,14,547)" stroke-width="3" stroke-linecap="round" stroke-linejoin="round" fill="none" stroke="#808080" d="M2964.2325 3102.1734C2968.7947 3101.1309 2973.4339 3100.4603 2978.1048 3100.1685"/>
<path transform="matrix(.12,0,0,-.12,14,547)" stroke-width="3" stroke-linecap="round" stroke-linejoin="round" fill="none" stroke="#808080" d="M2964 3102 2925 3103H2851L2794 3101 2769 3100"/>
<path transform="matrix(.12,0,0,-.12,14,547)" stroke-width="3" stroke-linecap="round" stroke-linejoin="round" fill="none" stroke="#808080" d="M2769.7515 3100.047C2760.7222 3099.614 2751.7005 3099.0333 2742.69 3098.3052"/>
<path transform="matrix(.12,0,0,-.12,14,547)" stroke-width="3" stroke-linecap="round" stroke-linejoin="round" fill="none" stroke="#808080" d="M2742.648 3098.2528C2731.586 3100.5147 2720.285 3101.3856 2709.007 3100.8443"/>
<path transform="matrix(.12,0,0,-.12,14,547)" stroke-width="3" stroke-linecap="round" stroke-linejoin="round" fill="none" stroke="#808080" d="M2682.1695 3101.754C2691.0574 3099.9364 2700.176 3099.5284 2709.191 3100.5447"/>
<path transform="matrix(.12,0,0,-.12,14,547)" stroke-width="3" stroke-linecap="round" stroke-linejoin="round" fill="none" stroke="#808080" d="M2668.3983 3099.4439C2672.866 3099.9476 2677.2752 3100.8775 2681.5657 3102.221"/>
<path transform="matrix(.12,0,0,-.12,14,547)" stroke-width="3" stroke-linecap="round" stroke-linejoin="round" fill="none" stroke="#808080" d="M2668.167 3099.147C2662.023 3098.12 2655.9569 3096.671 2650.012 3094.8096"/>
<path transform="matrix(.12,0,0,-.12,14,547)" stroke-width="3" stroke-linecap="round" stroke-linejoin="round" fill="none" stroke="#808080" d="M2650.1478 3094.5955C2645.1439 3094.2386 2640.1595 3093.6456 2635.2115 3092.8187"/>
<path transform="matrix(.12,0,0,-.12,14,547)" stroke-width="3" stroke-linecap="round" stroke-linejoin="round" fill="none" stroke="#808080" d="M2634 3093V3093"/>
<path transform="matrix(.12,0,0,-.12,14,547)" stroke-width="3" stroke-linecap="round" stroke-linejoin="round" fill="none" stroke="#808080" d="M2634 3094 2639 3111 2651 3160"/>
<path transform="matrix(.12,0,0,-.12,14,547)" stroke-width="3" stroke-linecap="round" stroke-linejoin="round" fill="none" stroke="#808080" d="M2653.181 3172.0867C2652.2474 3168.355 2651.8638 3164.5067 2652.0428 3160.664"/>
<path transform="matrix(.12,0,0,-.12,14,547)" stroke-width="3" stroke-linecap="round" stroke-linejoin="round" fill="none" stroke="#808080" d="M2648.421 3208.3953C2648.9835 3196.3072 2650.1092 3184.2518 2651.794 3172.2684"/>
<path transform="matrix(.12,0,0,-.12,14,547)" stroke-width="3" stroke-linecap="round" stroke-linejoin="round" fill="none" stroke="#808080" d="M2646.8265 3221.3936C2647.4639 3216.8597 2648.267 3212.3507 2649.2347 3207.8756"/>
<path transform="matrix(.12,0,0,-.12,14,547)" stroke-width="3" stroke-linecap="round" stroke-linejoin="round" fill="none" stroke="#808080" d="M2646.5826 3222.0596C2645.3009 3229.5697 2643.8546 3237.0509 2642.2445 3244.4974"/>
<path transform="matrix(.12,0,0,-.12,14,547)" stroke-width="3" stroke-linecap="round" stroke-linejoin="round" fill="none" stroke="#808080" d="M2643 3244.5C2643 3251.2933 2642.4256 3258.0743 2641.2828 3264.7708"/>
<path transform="matrix(.12,0,0,-.12,14,547)" stroke-width="3" stroke-linecap="round" stroke-linejoin="round" fill="none" stroke="#808080" d="M2641.2818 3263.9512C2642.4266 3274.4285 2643 3284.9603 2643 3295.5"/>
<path transform="matrix(.12,0,0,-.12,14,547)" stroke-width="3" stroke-linecap="round" stroke-linejoin="round" fill="none" stroke="#808080" d="M2712.43 3108.481C2707.0196 3106.8065 2701.642 3105.0264 2696.301 3103.1424"/>
<path transform="matrix(.12,0,0,-.12,14,547)" stroke-width="3" stroke-linecap="round" stroke-linejoin="round" fill="none" stroke="#808080" d="M2728.301 3114.1424C2722.9598 3112.2586 2717.6558 3110.2708 2712.3919 3108.1802"/>
<path transform="matrix(.12,0,0,-.12,14,547)" stroke-width="3" stroke-linecap="round" stroke-linejoin="round" fill="none" stroke="#808080" d="M2740.3919 3119.1802C2736.0877 3117.4708 2731.8106 3115.693 2727.563 3113.8475"/>
<path transform="matrix(.12,0,0,-.12,14,547)" stroke-width="3" stroke-linecap="round" stroke-linejoin="round" fill="none" stroke="#808080" d="M2753.563 3124.8475C2749.3023 3122.9964 2745.0716 3121.0775 2740.8724 3119.0914"/>
<path transform="matrix(.12,0,0,-.12,14,547)" stroke-width="3" stroke-linecap="round" stroke-linejoin="round" fill="none" stroke="#808080" d="M2223.8333 3295.673C2220.612 3302.1109 2214.2503 3306.3873 2207.0728 3306.9398"/>
<path transform="matrix(.12,0,0,-.12,14,547)" stroke-width="3" stroke-linecap="round" stroke-linejoin="round" fill="none" stroke="#808080" d="M2206.966 3307.1448C2209.2598 3307.6019 2211.2088 3309.1029 2212.2369 3311.2037 2213.2647 3313.3045 2213.2537 3315.7645 2212.2073 3317.856"/>
<path transform="matrix(.12,0,0,-.12,14,547)" stroke-width="3" stroke-linecap="round" stroke-linejoin="round" fill="none" stroke="#808080" d="M2212.5 3318C2216.0113 3318 2219.514 3318.3458 2222.9576 3319.032"/>
<path transform="matrix(.12,0,0,-.12,14,547)" stroke-width="3" stroke-linecap="round" stroke-linejoin="round" fill="none" stroke="#808080" d="M2223.4874 3319.0338C2228.1265 3318.3455 2232.81 3318 2237.5 3318"/>
<path transform="matrix(.12,0,0,-.12,14,547)" stroke-width="3" stroke-linecap="round" stroke-linejoin="round" fill="none" stroke="#808080" d="M2236.7965 3318.7337C2244.142 3316.6629 2251.6124 3315.0628 2259.1619 3313.9429"/>
<path transform="matrix(.12,0,0,-.12,14,547)" stroke-width="3" stroke-linecap="round" stroke-linejoin="round" fill="none" stroke="#808080" d="M2279.4359 3309.6168C2272.8475 3311.474 2266.1346 3312.8577 2259.3487 3313.7569"/>
<path transform="matrix(.12,0,0,-.12,14,547)" stroke-width="3" stroke-linecap="round" stroke-linejoin="round" fill="none" stroke="#808080" d="M2332.4998 3305.5042C2314.9293 3307.8323 2297.224 3309 2279.5 3309"/>
<path transform="matrix(.12,0,0,-.12,14,547)" stroke-width="3" stroke-linecap="round" stroke-linejoin="round" fill="none" stroke="#808080" d="M2398.5 3309C2376.5589 3309 2354.633 3307.8343 2332.8155 3305.508"/>
<path transform="matrix(.12,0,0,-.12,14,547)" stroke-width="3" stroke-linecap="round" stroke-linejoin="round" fill="none" stroke="#808080" d="M2420.3663 3312.2386C2412.9473 3311.4476 2405.559 3310.3909 2398.2156 3309.071"/>
<path transform="matrix(.12,0,0,-.12,14,547)" stroke-width="3" stroke-linecap="round" stroke-linejoin="round" fill="none" stroke="#808080" d="M2420.463 3312.088C2424.4449 3312.2642 2428.4105 3312.7066 2432.3336 3313.4117"/>
<path transform="matrix(.12,0,0,-.12,14,547)" stroke-width="3" stroke-linecap="round" stroke-linejoin="round" fill="none" stroke="#808080" d="M2432.1463 3312.6019C2439.4454 3311.9888 2446.7762 3311.8438 2454.094 3312.1683"/>
<path transform="matrix(.12,0,0,-.12,14,547)" stroke-width="3" stroke-linecap="round" stroke-linejoin="round" fill="none" stroke="#808080" d="M2491.645 3311.1915C2479.0194 3312.2518 2466.359 3312.8465 2453.6893 3312.9739"/>
<path transform="matrix(.12,0,0,-.12,14,547)" stroke-width="3" stroke-linecap="round" stroke-linejoin="round" fill="none" stroke="#808080" d="M2530.3839 3311.9554C2517.6363 3312.0836 2504.8875 3311.9359 2492.1463 3311.5118"/>
<path transform="matrix(.12,0,0,-.12,14,547)" stroke-width="3" stroke-linecap="round" stroke-linejoin="round" fill="none" stroke="#808080" d="M2558.3846 3313.732C2548.944 3313.4178 2539.515 3312.8277 2530.109 3311.9622"/>
<path transform="matrix(.12,0,0,-.12,14,547)" stroke-width="3" stroke-linecap="round" stroke-linejoin="round" fill="none" stroke="#808080" d="M2571.6138 3317.8675C2566.9605 3317.4395 2562.4608 3315.9813 2558.4407 3313.5989"/>
<path transform="matrix(.12,0,0,-.12,14,547)" stroke-width="3" stroke-linecap="round" stroke-linejoin="round" fill="none" stroke="#808080" d="M2572.1876 3317.0494C2575.764 3316.7803 2579.3365 3317.6168 2582.4219 3319.445"/>
<path transform="matrix(.12,0,0,-.12,14,547)" stroke-width="3" stroke-linecap="round" stroke-linejoin="round" fill="none" stroke="#808080" d="M2582.1185 3320.0357C2583.4908 3319.487 2584.9388 3319.1517 2586.4127 3319.0408"/>
<path transform="matrix(.12,0,0,-.12,14,547)" stroke-width="3" stroke-linecap="round" stroke-linejoin="round" fill="none" stroke="#808080" d="M2586.1444 3318.6629C2586.385 3317.9859 2586.905 3317.445 2587.5723 3317.1785"/>
<path transform="matrix(.12,0,0,-.12,14,547)" stroke-width="3" stroke-linecap="round" stroke-linejoin="round" fill="none" stroke="#808080" d="M2587.809 3317.9678C2587.278 3318.0797 2586.728 3317.896 2586.3709 3317.4874 2586.0135 3317.0787 2585.9049 3316.509 2586.0867 3315.9976"/>
<path transform="matrix(.12,0,0,-.12,14,547)" stroke-width="3" stroke-linecap="round" stroke-linejoin="round" fill="none" stroke="#808080" d="M2582.9849 3314.0538C2584.1705 3313.804 2585.3646 3314.4405 2585.818 3315.564"/>
<path transform="matrix(.12,0,0,-.12,14,547)" stroke-width="3" stroke-linecap="round" stroke-linejoin="round" fill="none" stroke="#808080" d="M2583.3089 3307.9429C2584.2183 3310.1949 2584.2308 3312.7093 2583.3436 3314.97"/>
<path transform="matrix(.12,0,0,-.12,14,547)" stroke-width="3" stroke-linecap="round" stroke-linejoin="round" fill="none" stroke="#808080" d="M2583.1964 3307.2596C2582.719 3303.9215 2583.1158 3300.5167 2584.3475 3297.3775"/>
<path transform="matrix(.12,0,0,-.12,14,547)" stroke-width="3" stroke-linecap="round" stroke-linejoin="round" fill="none" stroke="#808080" d="M2584.2364 3298.0167C2583.531 3294.7293 2582.94 3291.4185 2582.4644 3288.09"/>
<path transform="matrix(.12,0,0,-.12,14,547)" stroke-width="3" stroke-linecap="round" stroke-linejoin="round" fill="none" stroke="#808080" d="M2581.3865 3278.856C2582.0216 3281.8155 2582.5418 3284.7987 2582.946 3287.7984"/>
<path transform="matrix(.12,0,0,-.12,14,547)" stroke-width="3" stroke-linecap="round" stroke-linejoin="round" fill="none" stroke="#808080" d="M2580 3279 2576 3238"/>
<path transform="matrix(.12,0,0,-.12,14,547)" stroke-width="3" stroke-linecap="round" stroke-linejoin="round" fill="none" stroke="#808080" d="M2576.3087 3203.9759C2576.9927 3215.605 2577.1693 3227.258 2576.8377 3238.9027"/>
<path transform="matrix(.12,0,0,-.12,14,547)" stroke-width="3" stroke-linecap="round" stroke-linejoin="round" fill="none" stroke="#808080" d="M2576 3203 2577 3183 2580 3120"/>
<path transform="matrix(.12,0,0,-.12,14,547)" stroke-width="3" stroke-linecap="round" stroke-linejoin="round" fill="none" stroke="#808080" d="M2583.6456 3099.084C2583.208 3106.2308 2582.3656 3113.347 2581.1226 3120.3985"/>
<path transform="matrix(.12,0,0,-.12,14,547)" stroke-width="3" stroke-linecap="round" stroke-linejoin="round" fill="none" stroke="#808080" d="M2583.485 3098.8045C2582.9696 3097.086 2582.863 3095.2706 2583.1746 3093.5035"/>
<path transform="matrix(.12,0,0,-.12,14,547)" stroke-width="3" stroke-linecap="round" stroke-linejoin="round" fill="none" stroke="#808080" d="M2582 3093V3093"/>
<path transform="matrix(.12,0,0,-.12,14,547)" stroke-width="3" stroke-linecap="round" stroke-linejoin="round" fill="none" stroke="#808080" d="M2581.8865 3092.9498C2579.2667 3093.712 2576.59 3094.265 2573.8826 3094.603"/>
<path transform="matrix(.12,0,0,-.12,14,547)" stroke-width="3" stroke-linecap="round" stroke-linejoin="round" fill="none" stroke="#808080" d="M2574.3577 3094.9378C2571.753 3096.2813 2569.0245 3097.3699 2566.2105 3098.1888"/>
<path transform="matrix(.12,0,0,-.12,14,547)" stroke-width="3" stroke-linecap="round" stroke-linejoin="round" fill="none" stroke="#808080" d="M2560.352 3100.9486C2562.3299 3099.9283 2564.428 3099.1614 2566.5972 3098.6658"/>
<path transform="matrix(.12,0,0,-.12,14,547)" stroke-width="3" stroke-linecap="round" stroke-linejoin="round" fill="none" stroke="#808080" d="M2546.2325 3102.1734C2550.7947 3101.1309 2555.4339 3100.4603 2560.1048 3100.1685"/>
<path transform="matrix(.12,0,0,-.12,14,547)" stroke-width="3" stroke-linecap="round" stroke-linejoin="round" fill="none" stroke="#808080" d="M2545 3102 2506 3103H2432L2375 3101 2350 3100"/>
<path transform="matrix(.12,0,0,-.12,14,547)" stroke-width="3" stroke-linecap="round" stroke-linejoin="round" fill="none" stroke="#808080" d="M2350.7515 3100.047C2341.7222 3099.614 2332.7005 3099.0333 2323.69 3098.3052"/>
<path transform="matrix(.12,0,0,-.12,14,547)" stroke-width="3" stroke-linecap="round" stroke-linejoin="round" fill="none" stroke="#808080" d="M2323.648 3098.2528C2312.586 3100.5147 2301.285 3101.3856 2290.007 3100.8443"/>
<path transform="matrix(.12,0,0,-.12,14,547)" stroke-width="3" stroke-linecap="round" stroke-linejoin="round" fill="none" stroke="#808080" d="M2263.1695 3101.754C2272.0574 3099.9364 2281.176 3099.5284 2290.191 3100.5447"/>
<path transform="matrix(.12,0,0,-.12,14,547)" stroke-width="3" stroke-linecap="round" stroke-linejoin="round" fill="none" stroke="#808080" d="M2249.3983 3099.4439C2253.866 3099.9476 2258.2752 3100.8775 2262.5657 3102.221"/>
<path transform="matrix(.12,0,0,-.12,14,547)" stroke-width="3" stroke-linecap="round" stroke-linejoin="round" fill="none" stroke="#808080" d="M2250.167 3099.147C2244.023 3098.12 2237.9569 3096.671 2232.012 3094.8096"/>
<path transform="matrix(.12,0,0,-.12,14,547)" stroke-width="3" stroke-linecap="round" stroke-linejoin="round" fill="none" stroke="#808080" d="M2231.1478 3094.5955C2226.1439 3094.2386 2221.1595 3093.6456 2216.2115 3092.8187"/>
<path transform="matrix(.12,0,0,-.12,14,547)" stroke-width="3" stroke-linecap="round" stroke-linejoin="round" fill="none" stroke="#808080" d="M2216 3093V3093"/>
<path transform="matrix(.12,0,0,-.12,14,547)" stroke-width="3" stroke-linecap="round" stroke-linejoin="round" fill="none" stroke="#808080" d="M2216 3094 2220 3111 2232 3160"/>
<path transform="matrix(.12,0,0,-.12,14,547)" stroke-width="3" stroke-linecap="round" stroke-linejoin="round" fill="none" stroke="#808080" d="M2234.181 3172.0867C2233.2474 3168.355 2232.8638 3164.5067 2233.0428 3160.664"/>
<path transform="matrix(.12,0,0,-.12,14,547)" stroke-width="3" stroke-linecap="round" stroke-linejoin="round" fill="none" stroke="#808080" d="M2230.421 3208.3953C2230.9835 3196.3072 2232.1092 3184.2518 2233.794 3172.2684"/>
<path transform="matrix(.12,0,0,-.12,14,547)" stroke-width="3" stroke-linecap="round" stroke-linejoin="round" fill="none" stroke="#808080" d="M2227.8265 3221.3936C2228.4639 3216.8597 2229.267 3212.3507 2230.2347 3207.8756"/>
<path transform="matrix(.12,0,0,-.12,14,547)" stroke-width="3" stroke-linecap="round" stroke-linejoin="round" fill="none" stroke="#808080" d="M2227.5826 3222.0596C2226.3009 3229.5697 2224.8546 3237.0509 2223.2445 3244.4974"/>
<path transform="matrix(.12,0,0,-.12,14,547)" stroke-width="3" stroke-linecap="round" stroke-linejoin="round" fill="none" stroke="#808080" d="M2224 3244.5C2224 3251.2933 2223.4256 3258.0743 2222.2828 3264.7708"/>
<path transform="matrix(.12,0,0,-.12,14,547)" stroke-width="3" stroke-linecap="round" stroke-linejoin="round" fill="none" stroke="#808080" d="M2222.2818 3263.9512C2223.4266 3274.4285 2224 3284.9603 2224 3295.5"/>
<path transform="matrix(.12,0,0,-.12,14,547)" stroke-width="3" stroke-linecap="round" stroke-linejoin="round" fill="none" stroke="#808080" d="M2554 3101 2531 3117"/>
<path transform="matrix(.12,0,0,-.12,14,547)" stroke-width="3" stroke-linecap="round" stroke-linejoin="round" fill="none" stroke="#808080" d="M2515.3616 3126.2659C2520.4854 3123.0474 2525.7642 3120.083 2531.1793 3117.3834"/>
<path transform="matrix(.12,0,0,-.12,14,547)" stroke-width="3" stroke-linecap="round" stroke-linejoin="round" fill="none" stroke="#808080" d="M2515 3126 2486 3139"/>
<path transform="matrix(.12,0,0,-.12,14,547)" stroke-width="3" stroke-linecap="round" stroke-linejoin="round" fill="none" stroke="#808080" d="M2469.1124 3146.5977C2474.9124 3143.975 2480.795 3141.5384 2486.7503 3139.2908"/>
<path transform="matrix(.12,0,0,-.12,14,547)" stroke-width="3" stroke-linecap="round" stroke-linejoin="round" fill="none" stroke="#808080" d="M2459.3187 3149.2222C2462.4403 3148.044 2465.7164 3147.325 2469.0445 3147.0875"/>
<path transform="matrix(.12,0,0,-.12,14,547)" stroke-width="3" stroke-linecap="round" stroke-linejoin="round" fill="none" stroke="#808080" d="M2438.0767 3149.407C2445.1907 3148.8995 2452.3309 3148.8665 2459.4495 3149.3087"/>
<path transform="matrix(.12,0,0,-.12,14,547)" stroke-width="3" stroke-linecap="round" stroke-linejoin="round" fill="none" stroke="#808080" d="M2157 2932.5C2157 2926.1488 2162.1488 2921 2168.5 2921"/>
<path transform="matrix(.12,0,0,-.12,14,547)" stroke-width="3" stroke-linecap="round" stroke-linejoin="round" fill="none" stroke="#808080" d="M2168 2921H2770"/>
<path transform="matrix(.12,0,0,-.12,14,547)" stroke-width="3" stroke-linecap="round" stroke-linejoin="round" fill="none" stroke="#808080" d="M2265.398 3245.4058C2265.911 3240.204 2266.9168 3235.063 2268.4024 3230.0516"/>
<path transform="matrix(.12,0,0,-.12,14,547)" stroke-width="3" stroke-linecap="round" stroke-linejoin="round" fill="none" stroke="#808080" d="M2259.4024 3260.0516C2260.889 3255.0377 2262.8487 3250.1766 2265.2552 3245.5338"/>
<path transform="matrix(.12,0,0,-.12,14,547)" stroke-width="3" stroke-linecap="round" stroke-linejoin="round" fill="none" stroke="#808080" d="M2244.2552 3280.5338C2248.1724 3272.9769 2253.2354 3266.0716 2259.2645 3260.063"/>
<path transform="matrix(.12,0,0,-.12,14,547)" stroke-width="3" stroke-linecap="round" stroke-linejoin="round" fill="none" stroke="#808080" d="M2224.2645 3296.063C2230.2938 3290.0548 2237.2164 3285.0157 2244.7867 3281.1246"/>
<path transform="matrix(.12,0,0,-.12,14,547)" stroke-width="3" stroke-linecap="round" stroke-linejoin="round" fill="none" stroke="#808080" d="M2241.7799 3249.3145C2240.5982 3244.8048 2240 3240.1619 2240 3235.5"/>
<path transform="matrix(.12,0,0,-.12,14,547)" stroke-width="3" stroke-linecap="round" stroke-linejoin="round" fill="none" stroke="#808080" d="M2240 3260.5C2240 3256.8316 2240.6026 3253.1878 2241.7838 3249.7147"/>
<path transform="matrix(.12,0,0,-.12,14,547)" stroke-width="3" stroke-linecap="round" stroke-linejoin="round" fill="none" stroke="#808080" d="M2238.4693 3266.3826C2239.1595 3264.3533 2239.903 3262.3426 2240.6995 3260.3526"/>
<path transform="matrix(.12,0,0,-.12,14,547)" stroke-width="3" stroke-linecap="round" stroke-linejoin="round" fill="none" stroke="#808080" d="M2235.4083 3271.2432C2236.0938 3269.5303 2236.8323 3267.839 2237.6224 3266.1719"/>
<path transform="matrix(.12,0,0,-.12,14,547)" stroke-width="3" stroke-linecap="round" stroke-linejoin="round" fill="none" stroke="#808080" d="M2231.0347 3278.0103C2232.299 3275.3424 2233.9322 3272.8653 2235.8863 3270.652"/>
<path transform="matrix(.12,0,0,-.12,14,547)" stroke-width="3" stroke-linecap="round" stroke-linejoin="round" fill="none" stroke="#808080" d="M2222.394 3286.0916C2224.929 3283.2203 2227.765 3280.6297 2230.853 3278.364"/>
<path transform="matrix(.12,0,0,-.12,14,547)" stroke-width="3" stroke-linecap="round" stroke-linejoin="round" fill="none" stroke="#808080" d="M2531.2022 3312.1583C2538.0587 3311.653 2544.9508 3312.3607 2551.5616 3314.248"/>
<path transform="matrix(.12,0,0,-.12,14,547)" stroke-width="3" stroke-linecap="round" stroke-linejoin="round" fill="none" stroke="#808080" d="M2513.5616 3303.248C2520.1727 3305.1358 2526.3992 3308.174 2531.9554 3312.2235"/>
<path transform="matrix(.12,0,0,-.12,14,547)" stroke-width="3" stroke-linecap="round" stroke-linejoin="round" fill="none" stroke="#808080" d="M2499.9554 3291.2235C2504.8436 3294.786 2509.15 3299.0853 2512.7205 3303.9678"/>
<path transform="matrix(.12,0,0,-.12,14,547)" stroke-width="3" stroke-linecap="round" stroke-linejoin="round" fill="none" stroke="#808080" d="M2491.7205 3274.9678C2495.291 3279.8504 2498.0828 3285.257 2499.996 3290.9954"/>
<path transform="matrix(.12,0,0,-.12,14,547)" stroke-width="3" stroke-linecap="round" stroke-linejoin="round" fill="none" stroke="#808080" d="M2908.8123 3305.0762C2913.6197 3306.9078 2918.3214 3309.0059 2922.8953 3311.3609"/>
<path transform="matrix(.12,0,0,-.12,14,547)" stroke-width="3" stroke-linecap="round" stroke-linejoin="round" fill="none" stroke="#808080" d="M2901.3267 3300.0465C2903.952 3301.3978 2906.4393 3303.0018 2908.7537 3304.8353"/>
<path transform="matrix(.12,0,0,-.12,14,547)" stroke-width="3" stroke-linecap="round" stroke-linejoin="round" fill="none" stroke="#808080" d="M2884.2523 3286.0406C2889.9827 3290.58 2895.4949 3295.389 2900.7706 3300.4503"/>
<path transform="matrix(.12,0,0,-.12,14,547)" stroke-width="3" stroke-linecap="round" stroke-linejoin="round" fill="none" stroke="#808080" d="M2873.2315 3273.8885C2877.2113 3277.7066 2880.9486 3281.7694 2884.4217 3286.0533"/>
<path transform="matrix(.12,0,0,-.12,14,547)" stroke-width="3" stroke-linecap="round" stroke-linejoin="round" fill="none" stroke="#808080" d="M2870.4146 3268.9215C2871.574 3270.351 2872.5968 3271.8863 2873.47 3273.5067"/>
<path transform="matrix(.12,0,0,-.12,14,547)" stroke-width="3" stroke-linecap="round" stroke-linejoin="round" fill="none" stroke="#808080" d="M2865.8197 3259.289C2867.5572 3262.5135 2869.144 3265.8167 2870.5755 3269.1883"/>
<path transform="matrix(.12,0,0,-.12,14,547)" stroke-width="3" stroke-linecap="round" stroke-linejoin="round" fill="none" stroke="#808080" d="M2950.2022 3312.1583C2957.0587 3311.653 2963.9508 3312.3607 2970.5616 3314.248"/>
<path transform="matrix(.12,0,0,-.12,14,547)" stroke-width="3" stroke-linecap="round" stroke-linejoin="round" fill="none" stroke="#808080" d="M2931.5616 3303.248C2938.1727 3305.1358 2944.3992 3308.174 2949.9554 3312.2235"/>
<path transform="matrix(.12,0,0,-.12,14,547)" stroke-width="3" stroke-linecap="round" stroke-linejoin="round" fill="none" stroke="#808080" d="M2918.9554 3291.2235C2923.8436 3294.786 2928.15 3299.0853 2931.7205 3303.9678"/>
<path transform="matrix(.12,0,0,-.12,14,547)" stroke-width="3" stroke-linecap="round" stroke-linejoin="round" fill="none" stroke="#808080" d="M2910.7205 3274.9678C2914.291 3279.8504 2917.0828 3285.257 2918.996 3290.9954"/>
<path transform="matrix(.12,0,0,-.12,14,547)" stroke-width="3" stroke-linecap="round" stroke-linejoin="round" fill="none" stroke="#808080" d="M2489.8123 3305.0762C2494.6197 3306.9078 2499.3214 3309.0059 2503.8953 3311.3609"/>
<path transform="matrix(.12,0,0,-.12,14,547)" stroke-width="3" stroke-linecap="round" stroke-linejoin="round" fill="none" stroke="#808080" d="M2482.3267 3300.0465C2484.952 3301.3978 2487.4393 3303.0018 2489.7537 3304.8353"/>
<path transform="matrix(.12,0,0,-.12,14,547)" stroke-width="3" stroke-linecap="round" stroke-linejoin="round" fill="none" stroke="#808080" d="M2466.2523 3286.0406C2471.9827 3290.58 2477.4949 3295.389 2482.7706 3300.4503"/>
<path transform="matrix(.12,0,0,-.12,14,547)" stroke-width="3" stroke-linecap="round" stroke-linejoin="round" fill="none" stroke="#808080" d="M2454.2315 3273.8885C2458.2113 3277.7066 2461.9486 3281.7694 2465.4217 3286.0533"/>
<path transform="matrix(.12,0,0,-.12,14,547)" stroke-width="3" stroke-linecap="round" stroke-linejoin="round" fill="none" stroke="#808080" d="M2451.4146 3268.9215C2452.574 3270.351 2453.5968 3271.8863 2454.47 3273.5067"/>
<path transform="matrix(.12,0,0,-.12,14,547)" stroke-width="3" stroke-linecap="round" stroke-linejoin="round" fill="none" stroke="#808080" d="M2446.8197 3259.289C2448.5572 3262.5135 2450.144 3265.8167 2451.5755 3269.1883"/>
<path transform="matrix(.12,0,0,-.12,14,547)" stroke-width="3" stroke-linecap="round" stroke-linejoin="round" fill="none" stroke="#808080" d="M3024 2842V2208"/>
<path transform="matrix(.12,0,0,-.12,14,547)" stroke-width="3" stroke-linecap="round" stroke-linejoin="round" fill="none" stroke="#808080" d="M3012.5 2197C3018.8514 2197 3024 2202.1488 3024 2208.5"/>
<path transform="matrix(.12,0,0,-.12,14,547)" stroke-width="5" stroke-linecap="round" stroke-linejoin="round" fill="none" stroke="#808080" d="M2068 3237.5C2068 3270.3609 2041.361 3297 2008.5 3297 1975.639 3297 1949 3270.3609 1949 3237.5 1949 3204.6392 1975.639 3178 2008.5 3178 2041.361 3178 2068 3204.6392 2068 3237.5"/>
<path transform="matrix(.12,0,0,-.12,14,547)" stroke-width="5" stroke-linecap="round" stroke-linejoin="round" fill="none" stroke="#808080" d="M2044 3237.5C2044 3257.1063 2028.1061 3273 2008.5 3273 1988.8939 3273 1973 3257.1063 1973 3237.5 1973 3217.8939 1988.8939 3202 2008.5 3202 2028.1061 3202 2044 3217.8939 2044 3237.5"/>
<path transform="matrix(.12,0,0,-.12,14,547)" stroke-width="5" stroke-linecap="round" stroke-linejoin="round" fill="none" stroke="#808080" d="M2009 3310V3164"/>
<path transform="matrix(.12,0,0,-.12,14,547)" stroke-width="5" stroke-linecap="round" stroke-linejoin="round" fill="none" stroke="#808080" d="M1936 3237H2081"/>
<path transform="matrix(.12,0,0,-.12,14,547)" stroke-width="5" stroke-linecap="round" stroke-linejoin="round" fill="none" stroke="#808080" d="M2141 3104V3370H1876V3104H2141"/>
<path transform="matrix(.12,0,0,-.12,14,547)" stroke-width="5" stroke-linecap="round" stroke-linejoin="round" fill="none" stroke="#808080" d="M3232 3237.5C3232 3270.3609 3205.3609 3297 3172.5 3297 3139.6392 3297 3113 3270.3609 3113 3237.5 3113 3204.6392 3139.6392 3178 3172.5 3178 3205.3609 3178 3232 3204.6392 3232 3237.5"/>
<path transform="matrix(.12,0,0,-.12,14,547)" stroke-width="5" stroke-linecap="round" stroke-linejoin="round" fill="none" stroke="#808080" d="M3208 3237.5C3208 3257.1063 3192.1063 3273 3172.5 3273 3152.8939 3273 3137 3257.1063 3137 3237.5 3137 3217.8939 3152.8939 3202 3172.5 3202 3192.1063 3202 3208 3217.8939 3208 3237.5"/>
<path transform="matrix(.12,0,0,-.12,14,547)" stroke-width="5" stroke-linecap="round" stroke-linejoin="round" fill="none" stroke="#808080" d="M3244 3237H3099"/>
<path transform="matrix(.12,0,0,-.12,14,547)" stroke-width="5" stroke-linecap="round" stroke-linejoin="round" fill="none" stroke="#808080" d="M3039 3104V3370H3305V3104H3039"/>
<path transform="matrix(.12,0,0,-.12,14,547)" stroke-width="5" stroke-linecap="round" stroke-linejoin="round" fill="none" stroke="#808080" d="M2112 1848H1876V1080H2112V1848"/>
<path transform="matrix(.12,0,0,-.12,14,547)" stroke-width="5" stroke-linecap="round" stroke-linejoin="round" fill="none" stroke="#808080" d="M2457 1576 2436 1577"/>
<path transform="matrix(.12,0,0,-.12,14,547)" stroke-width="5" stroke-linecap="round" stroke-linejoin="round" fill="none" stroke="#808080" d="M2234.7652 1742.5125C2223.46 1744.2826 2211.9339 1741.1879 2203.036 1733.9933 2194.138 1726.7987 2188.6986 1716.1759 2188.0626 1704.7509"/>
<path transform="matrix(.12,0,0,-.12,14,547)" stroke-width="5" stroke-linecap="round" stroke-linejoin="round" fill="none" stroke="#808080" d="M2233.218 1732.6328C2224.7047 1733.966 2216.0242 1731.6353 2209.3233 1726.2172 2202.6224 1720.7991 2198.5262 1712.7992 2198.047 1704.1952"/>
<path transform="matrix(.12,0,0,-.12,14,547)" stroke-width="5" stroke-linecap="round" stroke-linejoin="round" fill="none" stroke="#808080" d="M2418 1639 2414 1558"/>
<path transform="matrix(.12,0,0,-.12,14,547)" stroke-width="5" stroke-linecap="round" stroke-linejoin="round" fill="none" stroke="#808080" d="M2433.323 1493.7814C2464.2928 1559.2128 2468.468 1634.156 2444.958 1702.6227"/>
<path transform="matrix(.12,0,0,-.12,14,547)" stroke-width="5" stroke-linecap="round" stroke-linejoin="round" fill="none" stroke="#808080" d="M2440 1645 2435 1550"/>
<path transform="matrix(.12,0,0,-.12,14,547)" stroke-width="5" stroke-linecap="round" stroke-linejoin="round" fill="none" stroke="#808080" d="M2461.3428 1480.519C2495.7723 1553.2599 2500.4139 1636.5752 2474.2777 1712.6904"/>
<path transform="matrix(.12,0,0,-.12,14,547)" stroke-width="5" stroke-linecap="round" stroke-linejoin="round" fill="none" stroke="#808080" d="M2249 1745 2258 1785 2390 1745"/>
<path transform="matrix(.12,0,0,-.12,14,547)" stroke-width="5" stroke-linecap="round" stroke-linejoin="round" fill="none" stroke="#808080" d="M2407.9085 1713.1188C2411.9849 1726.5991 2404.3616 1740.8318 2390.881 1744.9083"/>
<path transform="matrix(.12,0,0,-.12,14,547)" stroke-width="5" stroke-linecap="round" stroke-linejoin="round" fill="none" stroke="#808080" d="M2407 1710V1713"/>
<path transform="matrix(.12,0,0,-.12,14,547)" stroke-width="5" stroke-linecap="round" stroke-linejoin="round" fill="none" stroke="#808080" d="M2444 1702 2474 1712"/>
<path transform="matrix(.12,0,0,-.12,14,547)" stroke-width="5" stroke-linecap="round" stroke-linejoin="round" fill="none" stroke="#808080" d="M2459 1612 2438 1613"/>
<path transform="matrix(.12,0,0,-.12,14,547)" stroke-width="5" stroke-linecap="round" stroke-linejoin="round" fill="none" stroke="#808080" d="M2439.905 1645.0819C2441.5836 1675.2362 2421.1187 1702.147 2391.612 1708.5859"/>
<path transform="matrix(.12,0,0,-.12,14,547)" stroke-width="5" stroke-linecap="round" stroke-linejoin="round" fill="none" stroke="#808080" d="M2418.905 1639.0819C2420.5836 1669.2362 2400.1187 1696.147 2370.612 1702.5859"/>
<path transform="matrix(.12,0,0,-.12,14,547)" stroke-width="5" stroke-linecap="round" stroke-linejoin="round" fill="none" stroke="#808080" d="M2249 1745 2407 1710"/>
<path transform="matrix(.12,0,0,-.12,14,547)" stroke-width="5" stroke-linecap="round" stroke-linejoin="round" fill="none" stroke="#808080" d="M2234 1742 2392 1708"/>
<path transform="matrix(.12,0,0,-.12,14,547)" stroke-width="5" stroke-linecap="round" stroke-linejoin="round" fill="none" stroke="#808080" d="M2232 1732 2370 1702"/>
<path transform="matrix(.12,0,0,-.12,14,547)" stroke-width="5" stroke-linecap="round" stroke-linejoin="round" fill="none" stroke="#808080" d="M2433 1493 2461 1479"/>
<path transform="matrix(.12,0,0,-.12,14,547)" stroke-width="5" stroke-linecap="round" stroke-linejoin="round" fill="none" stroke="#808080" d="M2374 1456 2238 1431"/>
<path transform="matrix(.12,0,0,-.12,14,547)" stroke-width="5" stroke-linecap="round" stroke-linejoin="round" fill="none" stroke="#808080" d="M2374.1243 1456.4229C2387.974 1458.9767 2397.131 1472.2745 2394.5772 1486.1243"/>
<path transform="matrix(.12,0,0,-.12,14,547)" stroke-width="5" stroke-linecap="round" stroke-linejoin="round" fill="none" stroke="#808080" d="M2394 1488 2395 1486"/>
<path transform="matrix(.12,0,0,-.12,14,547)" stroke-width="5" stroke-linecap="round" stroke-linejoin="round" fill="none" stroke="#808080" d="M2234 1472 2238 1431"/>
<path transform="matrix(.12,0,0,-.12,14,547)" stroke-width="5" stroke-linecap="round" stroke-linejoin="round" fill="none" stroke="#808080" d="M2187 1704 2176 1519"/>
<path transform="matrix(.12,0,0,-.12,14,547)" stroke-width="5" stroke-linecap="round" stroke-linejoin="round" fill="none" stroke="#808080" d="M2197 1704 2187 1518"/>
<path transform="matrix(.12,0,0,-.12,14,547)" stroke-width="5" stroke-linecap="round" stroke-linejoin="round" fill="none" stroke="#808080" d="M2379.8626 1493.33C2409.9014 1496.4545 2433.2264 1520.9277 2434.905 1551.0819"/>
<path transform="matrix(.12,0,0,-.12,14,547)" stroke-width="5" stroke-linecap="round" stroke-linejoin="round" fill="none" stroke="#808080" d="M2358.8626 1501.33C2388.9014 1504.4545 2412.2264 1528.9277 2413.905 1559.0819"/>
<path transform="matrix(.12,0,0,-.12,14,547)" stroke-width="5" stroke-linecap="round" stroke-linejoin="round" fill="none" stroke="#808080" d="M2219 1476 2380 1492"/>
<path transform="matrix(.12,0,0,-.12,14,547)" stroke-width="5" stroke-linecap="round" stroke-linejoin="round" fill="none" stroke="#808080" d="M2218 1486 2359 1501"/>
<path transform="matrix(.12,0,0,-.12,14,547)" stroke-width="5" stroke-linecap="round" stroke-linejoin="round" fill="none" stroke="#808080" d="M2234 1472 2394 1488"/>
<path transform="matrix(.12,0,0,-.12,14,547)" stroke-width="5" stroke-linecap="round" stroke-linejoin="round" fill="none" stroke="#808080" d="M2187.047 1519.1952C2186.568 1510.5917 2189.751 1502.187 2195.8087 1496.0587 2201.8663 1489.9304 2210.2332 1486.6505 2218.8419 1487.0296"/>
<path transform="matrix(.12,0,0,-.12,14,547)" stroke-width="5" stroke-linecap="round" stroke-linejoin="round" fill="none" stroke="#808080" d="M2177.0626 1519.7509C2176.4268 1508.3265 2180.6529 1497.1663 2188.6966 1489.0288 2196.7403 1480.8912 2207.8509 1476.5359 2219.2818 1477.0392"/>
</g>
</g>
</svg>
